<svg id="sad" xmlns="http://www.w3.org/2000/svg" width="147.588" height="147.623" viewBox="0 0 147.588 147.623">
  <path id="Path_4058" data-name="Path 4058" d="M206.258,341.622H194.45a26.946,26.946,0,0,0-27.124,26.747,3.479,3.479,0,0,0,3.5,3.474,3.572,3.572,0,0,0,3.5-3.581,19.81,19.81,0,0,1,20.116-19.875h11.809a20.112,20.112,0,0,1,20.116,20.021,3.532,3.532,0,0,0,3.5,3.535,3.441,3.441,0,0,0,3.5-3.427A27.013,27.013,0,0,0,206.258,341.622Z" transform="translate(-123.81 -252.742)"/>
  <path id="Path_4059" data-name="Path 4059" d="M73.86,0A73.124,73.124,0,0,0,43.168,6.674C41.5,4.729,40.2,3.4,39.81,3.009a3.558,3.558,0,0,0-2.521-1.03A3.5,3.5,0,0,0,34.794,3.06c-.392.411-7.83,8.262-11.611,17.171a3.532,3.532,0,0,0-.487.388A73.792,73.792,0,1,0,73.86,0ZM37.4,10.734c3.791,4.378,9.183,11.666,9.832,17.209.416,3.534-.072,6.111-1.448,7.66-1.5,1.684-4.343,2.537-8.456,2.537-3.941,0-6.63-.792-7.992-2.355-1.306-1.5-1.71-4.116-1.2-7.765C29.01,21.76,34.227,14.6,37.4,10.734ZM73.86,140.613a66.868,66.868,0,0,1-66.785-66.8A66.172,66.172,0,0,1,21.028,32.923a13.164,13.164,0,0,0,3.02,7.462c2.789,3.207,7.132,4.766,13.278,4.766,6.2,0,10.806-1.645,13.691-4.889,2.766-3.107,3.833-7.527,3.177-13.135C53.6,22.1,50.678,16.759,47.607,12.373A66.17,66.17,0,0,1,73.86,7.011a66.8,66.8,0,0,1,0,133.6Z" transform="translate(-0.067)"/>
  <path id="Path_4060" data-name="Path 4060" d="M354.523,226.387a3.5,3.5,0,0,0,0-7.008,8.786,8.786,0,0,1-8.477-8.849,3.5,3.5,0,1,0-7.008,0C339.038,219.126,346.13,226.387,354.523,226.387Z" transform="translate(-250.848 -153.164)"/>
  <path id="Path_4061" data-name="Path 4061" d="M171.75,211.239a3.5,3.5,0,0,0-7.008,0,8.784,8.784,0,0,1-8.844,8.48,3.505,3.505,0,0,0,0,7.01C164.49,226.729,171.75,219.635,171.75,211.239Z" transform="translate(-112.763 -153.689)"/>
</svg>
