<svg xmlns="http://www.w3.org/2000/svg" width="77.2" height="59.559" viewBox="0 0 77.2 59.559">
  <g id="mixer" transform="translate(0 -58.5)">
    <path id="Path_4133" data-name="Path 4133" d="M1.131,72.673a1.131,1.131,0,0,0,1.131-1.131V64.556A3.81,3.81,0,0,1,6.08,60.762H43.756a1.131,1.131,0,0,0,0-2.262H6.08A6.075,6.075,0,0,0,0,64.556v6.986a1.131,1.131,0,0,0,1.131,1.131Z"/>
    <path id="Path_4134" data-name="Path 4134" d="M62.115,212.608H6.08a3.81,3.81,0,0,1-3.818-3.794V173.631a1.131,1.131,0,0,0-2.262,0v35.183a6.075,6.075,0,0,0,6.08,6.056H62.115a1.131,1.131,0,1,0,0-2.262Z" transform="translate(0 -96.811)"/>
    <path id="Path_4135" data-name="Path 4135" d="M340.892,58.5H318.8a1.131,1.131,0,0,0,0,2.262h22.091a3.811,3.811,0,0,1,3.818,3.794V112a3.81,3.81,0,0,1-3.818,3.794h-3.729a1.131,1.131,0,0,0,0,2.262h3.729a6.075,6.075,0,0,0,6.08-6.056V64.556A6.075,6.075,0,0,0,340.892,58.5Z" transform="translate(-269.771)"/>
    <path id="Path_4136" data-name="Path 4136" d="M79.824,140.309a1.131,1.131,0,0,0-1.131,1.131v10.782c0,1.755,1.656,3.13,3.771,3.13s3.771-1.375,3.771-3.13V130.058a6.382,6.382,0,0,0,0-12.746v-1.806c0-1.748-1.656-3.117-3.771-3.117s-3.771,1.369-3.771,3.117v1.806a6.382,6.382,0,0,0,0,12.746v5.989a1.131,1.131,0,0,0,2.262,0V130.07h3.019v22.151c0,.41-.646.868-1.509.868s-1.509-.458-1.509-.868V141.44A1.131,1.131,0,0,0,79.824,140.309Zm2.64-25.658c.85,0,1.509.46,1.509.855V117.3H80.955v-1.794C80.955,115.11,81.614,114.651,82.464,114.651Zm-7.544,9.035a4.141,4.141,0,0,1,4.149-4.123h6.789a4.123,4.123,0,1,1,0,8.246c-.663-.043-5.98.024-6.789,0A4.141,4.141,0,0,1,74.921,123.685Z" transform="translate(-61.703 -45.764)"/>
    <path id="Path_4137" data-name="Path 4137" d="M212.333,144.052a6.4,6.4,0,0,0-6.05-6.374l.016-22.039c0-1.755-1.656-3.13-3.771-3.13s-3.771,1.375-3.771,3.131l.014,22.038a6.383,6.383,0,0,0,0,12.748l-.01,1.951c0,1.746,1.656,3.114,3.771,3.114s3.771-1.368,3.771-3.121l-.011-1.945a6.4,6.4,0,0,0,6.045-6.374Zm-9.8-29.282c.864,0,1.509.459,1.509.868l-.016,22.029h-2.988l-.014-22.028C201.019,115.229,201.665,114.771,202.529,114.771Zm0,38.459c-.85,0-1.509-.458-1.509-.847l.01-1.946h3l.011,1.94C204.038,152.771,203.378,153.23,202.529,153.23Zm3.393-5.054h-6.789a4.123,4.123,0,1,1,0-8.246h6.789a4.123,4.123,0,1,1,0,8.246Z" transform="translate(-163.663 -45.865)"/>
    <path id="Path_4138" data-name="Path 4138" d="M324.361,125.3v-9.557c0-1.761-1.656-3.14-3.771-3.14s-3.771,1.379-3.771,3.143l.029,9.551a6.383,6.383,0,0,0,0,12.75l-.03,14.455c0,1.748,1.656,3.118,3.771,3.118s3.771-1.369,3.771-3.118V138.048a6.382,6.382,0,0,0,0-12.746Zm-3.771-10.435c.864,0,1.509.464,1.509.878v9.545h-2.99l-.029-9.545C319.081,115.331,319.727,114.868,320.59,114.868Zm0,38.494c-.85,0-1.509-.46-1.509-.854l.03-14.448H322.1v14.445C322.1,152.9,321.44,153.361,320.59,153.361Zm3.395-17.563H317.2a4.123,4.123,0,1,1,0-8.246h6.789a4.123,4.123,0,1,1,0,8.246Z" transform="translate(-263.924 -45.948)"/>
  </g>
</svg>
