<svg xmlns="http://www.w3.org/2000/svg" width="62.1" height="63" viewBox="0 0 62.1 63">
  <g id="hand-with-money-gear" transform="translate(-2.615)">
    <path id="Path_4129" data-name="Path 4129" d="M138.225,258.2a2.842,2.842,0,0,0-1.379.377,39.641,39.641,0,0,1-12.33,4.2,13.629,13.629,0,0,1-2.08.142,24.466,24.466,0,0,1-6.225-.842,5.617,5.617,0,0,1-2.876-1.416c.394.025,1.082.155,1.866.3a33.091,33.091,0,0,0,5.891.718,10.3,10.3,0,0,0,2.626-.3c1.913-.51,2.575-1.762,2.556-2.762a2.1,2.1,0,0,0-1.594-2.049c-.428-.1-1.456-.428-2.757-.846-3.7-1.188-9.88-3.176-13.019-3.269a71.459,71.459,0,0,0-9.293,1.078l-.241.037c-.67.1-1.363.2-1.427,1.186-.108,1.653-.264,4.1-.426,6.633-.19,2.986-.389,6.1-.525,8.175a1.326,1.326,0,0,0,.3.832.7.7,0,0,0,.521.23,1.241,1.241,0,0,0,.785-.359c1.329-1.133,2.453-1.607,3.339-1.407,1.8.408,16.692,3.156,21.017,3.157h0a4.336,4.336,0,0,0,.928-.075c3.443-.8,13.161-6.5,15.166-8.429,1.29-1.24,1.772-2.7,1.288-3.9A2.229,2.229,0,0,0,138.225,258.2Z" transform="translate(-78.138 -209.025)"/>
    <path id="Path_4130" data-name="Path 4130" d="M15.385,255.732l-9.1-.448A2,2,0,0,0,4.32,256.73l-.006.024L2.658,271.786a1.35,1.35,0,0,0,1.3,1.711H14.113a1.7,1.7,0,0,0,1.685-1.56l1.108-14.481a1.6,1.6,0,0,0-1.521-1.725Zm-3.22,12.9a2.158,2.158,0,1,1-2.158-2.158A2.16,2.16,0,0,1,12.166,268.629Z" transform="translate(0 -211.36)"/>
    <g id="Group_576" data-name="Group 576" transform="translate(22.325)">
      <path id="Path_4132" data-name="Path 4132" d="M159.565,18.838a2.268,2.268,0,0,0-2.007-2.25l-2.406-.281a17.1,17.1,0,0,0-1.452-3.573l1.481-1.872a2.277,2.277,0,0,0-.171-3.011l-3.175-3.175a2.249,2.249,0,0,0-1.6-.664,2.28,2.28,0,0,0-1.411.493l-1.807,1.432a17.1,17.1,0,0,0-3.78-1.584l-.273-2.347A2.27,2.27,0,0,0,140.712,0h-4.5a2.267,2.267,0,0,0-2.25,2.007l-.274,2.347A17.071,17.071,0,0,0,129.8,6l-1.881-1.491a2.273,2.273,0,0,0-3.012.17l-3.182,3.183a2.268,2.268,0,0,0-.171,3.012l1.587,2.008a16.8,16.8,0,0,0-1.426,3.609l-2.531.289a2.268,2.268,0,0,0-2.007,2.25v4.5a2.271,2.271,0,0,0,2.008,2.25l2.691.312a17.48,17.48,0,0,0,1.376,3.27l-1.7,2.143a2.278,2.278,0,0,0,.171,3.012l3.183,3.182a2.248,2.248,0,0,0,1.6.664,2.282,2.282,0,0,0,1.411-.493l2.126-1.682a17.241,17.241,0,0,0,3.415,1.445l.319,2.743a2.269,2.269,0,0,0,2.25,2.007h4.5a2.269,2.269,0,0,0,2.25-2.008l.3-2.631a17.39,17.39,0,0,0,3.685-1.49l2.052,1.623a2.273,2.273,0,0,0,3.012-.171l3.183-3.183a2.267,2.267,0,0,0,.171-3.011l-1.592-2.02a17.006,17.006,0,0,0,1.516-3.62l2.445-.281a2.271,2.271,0,0,0,2.007-2.251Zm-10.973,2.353A10.221,10.221,0,1,1,138.37,10.97,10.233,10.233,0,0,1,148.592,21.191Z" transform="translate(-117.175)"/>
    </g>
  </g>
</svg>
