<svg id="directions_run_black_24dp" xmlns="http://www.w3.org/2000/svg" width="63.956" height="63.956" viewBox="0 0 63.956 63.956">
  <path id="Path_4127" data-name="Path 4127" d="M0,0H63.956V63.956H0Z" fill="none"/>
  <path id="Path_4128" data-name="Path 4128" d="M31.137,12.139a5.33,5.33,0,1,0-5.33-5.33A5.345,5.345,0,0,0,31.137,12.139ZM21.544,49.181l2.665-11.725,5.6,5.33V58.774h5.33V38.788l-5.6-5.33,1.6-7.995a19.513,19.513,0,0,0,14.657,6.662V26.8a13.109,13.109,0,0,1-11.459-6.4L31.67,16.137a5.5,5.5,0,0,0-4.53-2.665c-.8,0-1.332.266-2.132.266L11.151,19.6V32.126h5.33v-9.06l4.8-1.865L17.014,42.785,3.956,40.12,2.89,45.45Z" transform="translate(4.811 2.464)"/>
</svg>
