<svg id="target" xmlns="http://www.w3.org/2000/svg" width="63" height="63" viewBox="0 0 63 63">
  <path id="Path_4125" data-name="Path 4125" d="M183.4,198.467A15.064,15.064,0,1,0,168.339,183.4,15.081,15.081,0,0,0,183.4,198.467Zm-12.42-13.775h5.745a6.816,6.816,0,0,0,5.386,5.386v5.745A12.509,12.509,0,0,1,170.983,184.692Zm12.42-5.51a4.228,4.228,0,0,1,4.019,2.932h-8.039A4.229,4.229,0,0,1,183.4,179.182Zm4.019,5.51a4.221,4.221,0,0,1-8.038,0Zm-2.73,11.131v-5.745a6.816,6.816,0,0,0,5.386-5.386h5.745a12.509,12.509,0,0,1-11.131,11.131Zm11.131-13.709h-5.745a6.816,6.816,0,0,0-5.386-5.386v-5.745a12.509,12.509,0,0,1,11.131,11.131Zm-13.709-11.131v5.745a6.816,6.816,0,0,0-5.386,5.386h-5.745A12.509,12.509,0,0,1,182.114,170.983Z" transform="translate(-151.903 -151.903)"/>
  <path id="Path_4126" data-name="Path 4126" d="M62.077,30.577h-3.04A27.549,27.549,0,0,0,32.423,3.962V.923a.923.923,0,0,0-1.846,0v3.04A27.549,27.549,0,0,0,3.962,30.577H.923a.923.923,0,0,0,0,1.846h3.04A27.549,27.549,0,0,0,30.577,59.038v3.04a.923.923,0,0,0,1.846,0v-3.04A27.549,27.549,0,0,0,59.038,32.423h3.04a.923.923,0,0,0,0-1.846ZM30.577,5.81v2.1h-.04A23.6,23.6,0,0,0,7.913,30.537c0,.014,0,.027,0,.04H5.81A25.74,25.74,0,0,1,30.577,5.81ZM5.81,32.423h2.1a23.517,23.517,0,0,0,5.508,14.254.923.923,0,0,0,1.412-1.188A21.675,21.675,0,0,1,9.76,32.423H16.7a.923.923,0,1,0,0-1.846H9.759A21.752,21.752,0,0,1,30.577,9.759V16.7a.923.923,0,0,0,1.846,0V9.76a21.674,21.674,0,0,1,13.066,5.074.923.923,0,0,0,1.188-1.412A23.517,23.517,0,0,0,32.423,7.913V5.81A25.74,25.74,0,0,1,57.19,30.577h-2.1a23.517,23.517,0,0,0-5.508-14.254.923.923,0,0,0-1.412,1.188A21.675,21.675,0,0,1,53.24,30.577H46.3a.923.923,0,1,0,0,1.846h6.946A21.752,21.752,0,0,1,32.423,53.241V46.3a.923.923,0,1,0-1.846,0V53.24a21.674,21.674,0,0,1-13.066-5.074.923.923,0,0,0-1.188,1.412,23.515,23.515,0,0,0,14.254,5.509v2.1A25.74,25.74,0,0,1,5.81,32.423ZM32.423,57.19v-2.1h.04A23.6,23.6,0,0,0,55.087,32.463c0-.013,0-.027,0-.04h2.1A25.74,25.74,0,0,1,32.423,57.19Z"/>
</svg>
