<svg xmlns="http://www.w3.org/2000/svg" width="63.626" height="72.608" viewBox="0 0 63.626 72.608">
  <g id="user-protection" transform="translate(-31.669 0)">
    <path id="Path_4149" data-name="Path 4149" d="M94.39,57.392a1.064,1.064,0,0,0-1.21.893,14.354,14.354,0,1,1,0-4.317,1.064,1.064,0,1,0,2.1-.317,16.489,16.489,0,0,0-9.145-12.374,39.834,39.834,0,0,0,.519-6.4v-25a1.064,1.064,0,0,0-.727-1.009L75.577,5.414A1.064,1.064,0,1,0,74.9,7.432l9.625,3.209V34.874a37.705,37.705,0,0,1-.419,5.587,16.5,16.5,0,0,0-2.251-.564,35.512,35.512,0,0,0,.359-5.023v-21.8a1.063,1.063,0,0,0-.727-1.009L59.5,4.734a1.064,1.064,0,0,0-.673,0l-21.992,7.33a1.064,1.064,0,0,0-.727,1.009v21.8A35.233,35.233,0,0,0,58.784,67.826a1.064,1.064,0,0,0,.759,0,35.386,35.386,0,0,0,5.618-2.737,16.59,16.59,0,0,0,1.4,1.852,37.637,37.637,0,0,1-7.4,3.481A37.542,37.542,0,0,1,33.8,34.874V10.641L59.164,2.185,70.507,5.967a1.064,1.064,0,0,0,.673-2.018L59.5.054a1.063,1.063,0,0,0-.673,0L32.4,8.865a1.064,1.064,0,0,0-.727,1.009v25A39.667,39.667,0,0,0,58.827,72.553a1.065,1.065,0,0,0,.673,0,39.772,39.772,0,0,0,8.6-4.065A16.477,16.477,0,0,0,95.283,58.6a1.064,1.064,0,0,0-.893-1.21Zm-35.226,8.3A32.9,32.9,0,0,1,38.235,34.874V13.84L59.164,6.864,80.091,13.84V34.874a33.393,33.393,0,0,1-.347,4.788,16.928,16.928,0,0,0-6.3.943,14.791,14.791,0,0,0-4.888,2.82,13.686,13.686,0,0,0-4.151,5.03,16.548,16.548,0,0,0-.285,14.778,33.259,33.259,0,0,1-4.954,2.457Z" transform="translate(0 0)"/>
    <line id="Line_279" data-name="Line 279" x1="21.414" y2="21.414" transform="translate(68.186 45.522)" fill="none" stroke="#000" stroke-linecap="round" stroke-width="3"/>
  </g>
</svg>
