<svg xmlns="http://www.w3.org/2000/svg" width="63" height="63" viewBox="0 0 63 63">
  <g id="startup_1_" data-name="startup (1)" transform="translate(-0.001 0)">
    <g id="Group_578" data-name="Group 578" transform="translate(30.854 29.483)">
      <g id="Group_577" data-name="Group 577">
        <path id="Path_4139" data-name="Path 4139" d="M253.862,240.809a1.333,1.333,0,1,0,0,1.884A1.332,1.332,0,0,0,253.862,240.809Z" transform="translate(-251.587 -240.418)"/>
      </g>
    </g>
    <g id="Group_580" data-name="Group 580" transform="translate(37.452 12.228)">
      <g id="Group_579" data-name="Group 579">
        <path id="Path_4140" data-name="Path 4140" d="M321.972,103.368a6.662,6.662,0,1,0,0,9.421A6.659,6.659,0,0,0,321.972,103.368Zm-1.884,7.537a4,4,0,1,1,0-5.653A4,4,0,0,1,320.088,110.9Z" transform="translate(-310.603 -101.415)"/>
      </g>
    </g>
    <g id="Group_582" data-name="Group 582" transform="translate(7.578 0)">
      <g id="Group_581" data-name="Group 581" transform="translate(0 0)">
        <path id="Path_4141" data-name="Path 4141" d="M151.051.39a1.328,1.328,0,0,0-.99-.389,59.188,59.188,0,0,0-16,3.313,44.608,44.608,0,0,0-16.926,10.266c-.986.986-1.945,2.031-2.863,3.117-4.35-2.56-7.836-1.758-10.039-.578-5.074,2.715-8.214,10.088-8.214,15.361a1.333,1.333,0,0,0,2.275.942,8.482,8.482,0,0,1,7.054-2.367l.467.467a46.862,46.862,0,0,0-2.2,6.471,3.771,3.771,0,0,0,.161,2.314,12.617,12.617,0,0,0-3.6,2.537c-3.43,3.43-4.126,11.788-4.154,12.142a1.332,1.332,0,0,0,1.328,1.437q.052,0,.1,0c.354-.028,8.713-.724,12.142-4.154a12.618,12.618,0,0,0,2.536-3.6,3.762,3.762,0,0,0,2.316.16,46.869,46.869,0,0,0,6.47-2.2l.467.467a8.482,8.482,0,0,1-2.367,7.054,1.332,1.332,0,0,0,.942,2.274c5.273,0,12.646-3.14,15.361-8.214,1.179-2.2,1.982-5.689-.578-10.039,1.085-.917,2.131-1.877,3.117-2.863a44.612,44.612,0,0,0,10.265-16.926,59.186,59.186,0,0,0,3.313-16A1.333,1.333,0,0,0,151.051.39ZM99,28.614c.828-4.005,3.232-8.4,6.493-10.146a7.1,7.1,0,0,1,7.095.335,53.871,53.871,0,0,0-5.6,9.125,1.4,1.4,0,0,0-.705-.414A11.388,11.388,0,0,0,99,28.614Zm8.717,20.767c-1.832,1.832-6.129,2.8-8.846,3.193.395-2.716,1.361-7.014,3.193-8.846a9.6,9.6,0,0,1,3.411-2.242l4.484,4.484A9.6,9.6,0,0,1,107.714,49.381Zm6.074-4.134a1.25,1.25,0,0,1-1.164-.378l-2.61-2.609-3.441-3.441a1.251,1.251,0,0,1-.379-1.164,43.261,43.261,0,0,1,1.664-5.089l11.018,11.018A43.235,43.235,0,0,1,113.788,45.247Zm19.186.7c-1.746,3.261-6.141,5.666-10.146,6.493a11.34,11.34,0,0,0,1.092-7.317,1.392,1.392,0,0,0-.405-.673,53.89,53.89,0,0,0,9.125-5.6A7.1,7.1,0,0,1,132.974,45.951Zm3-13.529a48.356,48.356,0,0,1-3.842,3.447,51.189,51.189,0,0,1-10.621,6.584L108.988,29.927a51.181,51.181,0,0,1,6.584-10.621,48.353,48.353,0,0,1,3.447-3.843,41.545,41.545,0,0,1,15.145-9.35l11.164,11.164A41.542,41.542,0,0,1,135.978,32.422Zm10.308-17.955-9.313-9.313a59.9,59.9,0,0,1,11.691-2.378A59.908,59.908,0,0,1,146.286,14.467Z" transform="translate(-96.018 0)"/>
      </g>
    </g>
    <g id="Group_584" data-name="Group 584" transform="translate(23.791 49.426)">
      <g id="Group_583" data-name="Group 583">
        <path id="Path_4142" data-name="Path 4142" d="M201.063,410.511a1.333,1.333,0,0,0-1.884,0l-3.768,3.769a1.332,1.332,0,0,0,1.885,1.884l3.768-3.769A1.332,1.332,0,0,0,201.063,410.511Z" transform="translate(-195.021 -410.121)"/>
      </g>
    </g>
    <g id="Group_586" data-name="Group 586" transform="translate(7.141 32.778)">
      <g id="Group_585" data-name="Group 585">
        <path id="Path_4143" data-name="Path 4143" d="M59.636,269.092a1.332,1.332,0,0,0-1.884,0l-3.769,3.768a1.332,1.332,0,1,0,1.884,1.884l3.769-3.768A1.332,1.332,0,0,0,59.636,269.092Z" transform="translate(-53.592 -268.701)"/>
      </g>
    </g>
    <g id="Group_588" data-name="Group 588" transform="translate(10.263 51.311)">
      <g id="Group_587" data-name="Group 587">
        <path id="Path_4144" data-name="Path 4144" d="M96.151,424.661a1.332,1.332,0,0,0-1.884,0l-9.025,9.024a1.332,1.332,0,0,0,1.884,1.884l9.025-9.024A1.332,1.332,0,0,0,96.151,424.661Z" transform="translate(-84.851 -424.271)"/>
      </g>
    </g>
    <g id="Group_590" data-name="Group 590" transform="translate(0.648 51.311)">
      <g id="Group_589" data-name="Group 589">
        <path id="Path_4145" data-name="Path 4145" d="M16.151,424.661a1.332,1.332,0,0,0-1.884,0l-9.025,9.024a1.332,1.332,0,1,0,1.884,1.884l9.025-9.024A1.332,1.332,0,0,0,16.151,424.661Z" transform="translate(-4.851 -424.271)"/>
      </g>
    </g>
    <g id="Group_592" data-name="Group 592" transform="translate(0.001 41.048)">
      <g id="Group_591" data-name="Group 591">
        <path id="Path_4146" data-name="Path 4146" d="M11.3,339.8a1.332,1.332,0,0,0-1.884,0L.392,348.826a1.332,1.332,0,1,0,1.884,1.884l9.024-9.025A1.332,1.332,0,0,0,11.3,339.8Z" transform="translate(-0.001 -339.41)"/>
      </g>
    </g>
    <g id="Group_594" data-name="Group 594" transform="translate(34.235 24.218)">
      <g id="Group_593" data-name="Group 593">
        <path id="Path_4147" data-name="Path 4147" d="M284.03,198.38a1.333,1.333,0,0,0-1.884,0l-1.884,1.884a1.332,1.332,0,0,0,1.884,1.884l1.884-1.884A1.333,1.333,0,0,0,284.03,198.38Z" transform="translate(-279.871 -197.99)"/>
      </g>
    </g>
  </g>
</svg>
