<svg  id="LinkedIn_logo" data-name="LinkedIn logo" xmlns="http://www.w3.org/2000/svg" width="24" height="24" viewBox="0 0 24 24">
  <g id="linkedin">
    <rect id="Rectangle_93" data-name="Rectangle 93" width="24" height="24" transform="translate(24 24) rotate(180)" fill="#f000" opacity="0"/>
    <path id="Path_305" data-name="Path 305" d="M20,22H18.33a2,2,0,0,1-2-2V14.63a.92.92,0,0,0-.69-.93.84.84,0,0,0-.67.19.85.85,0,0,0-.3.65V20a2,2,0,0,1-2,2H11a2,2,0,0,1-2-2V14.54a6.5,6.5,0,1,1,13,0V20A2,2,0,0,1,20,22ZM15.5,11.69a3.73,3.73,0,0,1,.47,0,2.91,2.91,0,0,1,2.36,2.9V20H20V14.54a4.5,4.5,0,1,0-9,0V20h1.67V14.54a2.85,2.85,0,0,1,2.83-2.85Z" fill="#fff"/>
    <path id="Path_306" data-name="Path 306" d="M6,22H4a2,2,0,0,1-2-2V10A2,2,0,0,1,4,8H6a2,2,0,0,1,2,2V20A2,2,0,0,1,6,22ZM4,10V20H6V10Z" fill="#fff"/>
    <path id="Path_307" data-name="Path 307" d="M5,7A3,3,0,1,1,8,4,3,3,0,0,1,5,7ZM5,3A1,1,0,1,0,6,4,1,1,0,0,0,5,3Z" fill="#fff"/>
  </g>
</svg>
