<?xml version="1.0" encoding="UTF-8" standalone="no"?>
<svg
   xmlns:dc="http://purl.org/dc/elements/1.1/"
   xmlns:cc="http://creativecommons.org/ns#"
   xmlns:rdf="http://www.w3.org/1999/02/22-rdf-syntax-ns#"
   xmlns:svg="http://www.w3.org/2000/svg"
   xmlns="http://www.w3.org/2000/svg"
   xmlns:sodipodi="http://sodipodi.sourceforge.net/DTD/sodipodi-0.dtd"
   xmlns:inkscape="http://www.inkscape.org/namespaces/inkscape"
   width="136.606mm"
   height="34.218884mm"
   viewBox="0 0 136.606 34.218884"
   version="1.1"
   id="svg8"
   sodipodi:docname="logo-dark-bg.svg"
   inkscape:version="1.0.1 (c497b03c, 2020-09-10)">
  <sodipodi:namedview
     pagecolor="#ffffff"
     bordercolor="#666666"
     borderopacity="1"
     objecttolerance="10"
     gridtolerance="10"
     guidetolerance="10"
     inkscape:pageopacity="0"
     inkscape:pageshadow="2"
     inkscape:window-width="2304"
     inkscape:window-height="1243"
     id="namedview853"
     showgrid="false"
     inkscape:zoom="3.4165774"
     inkscape:cx="269.80738"
     inkscape:cy="64.665603"
     inkscape:window-x="0"
     inkscape:window-y="25"
     inkscape:window-maximized="0"
     inkscape:current-layer="g38"
     inkscape:document-rotation="0"
     fit-margin-top="0"
     fit-margin-left="0"
     fit-margin-right="0"
     fit-margin-bottom="0" />
  <defs
     id="defs2">
    <clipPath
       clipPathUnits="userSpaceOnUse"
       id="clipPath46">
      <path
         d="M 0,0.015625 H 935.016 V 969.99963 H 0 Z"
         id="path44" />
    </clipPath>
    <clipPath
       clipPathUnits="userSpaceOnUse"
       id="clipPath56">
      <path
         d="M 1446.7,459.324 H 4097.96 V 889.168 H 1446.7 Z"
         id="path54" />
    </clipPath>
    <clipPath
       clipPathUnits="userSpaceOnUse"
       id="clipPath66">
      <path
         d="M 1224,80 V 331 H 4320 V 80 Z"
         id="path64" />
    </clipPath>
  </defs>
  <metadata
     id="metadata5">
    <rdf:RDF>
      <cc:Work
         rdf:about="">
        <dc:format>image/svg+xml</dc:format>
        <dc:type
           rdf:resource="http://purl.org/dc/dcmitype/StillImage" />
        <dc:title></dc:title>
      </cc:Work>
    </rdf:RDF>
  </metadata>
  <g
     id="layer1"
     transform="translate(-29.633333,-48.65842)">
    <g
       id="g38"
       transform="matrix(0.03527778,0,0,-0.03527778,29.633333,82.877854)">
      <g
         id="g40"
         style="fill:#ffffff;fill-opacity:1">
        <g
           id="g42"
           clip-path="url(#clipPath46)"
           style="fill:#ffffff;fill-opacity:1">
          <path
             d="M 324.324,888.203 183.262,806.344 V 598.969 L 91.7578,545.98 0.3125,492.93 0.125,328.27 0,163.613 141.25,81.6875 C 225.586,32.7734 282.871,-0.109375 283.559,0.078125 c 0.562,0.125 42.199,24.113275 92.504,53.300775 l 91.445,53.0511 91.508,-53.0511 c 50.3,-29.1875 91.879,-53.175775 92.504,-53.363275 0.621,-0.125 58.843,33.257775 142.246,81.671875 l 141.25,81.8595 -0.125,164.723 -0.188,164.722 -92.379,53.551 -92.441,53.613 -0.125,103.032 -0.188,103.093 -141.187,81.86 C 530.715,933.172 466.758,970.063 466.262,970 c -0.5,0 -64.395,-36.828 -141.938,-81.797 z M 600.59,857.699 c 65.14,-37.828 118.621,-68.894 118.933,-69.207 0.25,-0.25 0.375,-38.769 0.313,-85.617 l -0.188,-85.18 -33.847,19.602 -33.785,19.605 -89.325,-51.734 C 513.633,576.672 472.121,552.621 470.5,551.617 l -2.867,-1.754 -92.317,53.551 -92.257,53.488 -34.157,-19.793 c -18.765,-10.898 -34.535,-19.98 -34.91,-20.105 -0.621,-0.25 -0.808,17.164 -0.808,85.684 v 86.054 l 126.601,73.406 126.539,73.34 7.914,-4.57 c 4.364,-2.504 61.215,-35.449 126.352,-73.219 z M 360.043,577.234 c 42.262,-24.488 76.797,-44.718 76.609,-44.906 -0.125,-0.254 -15.523,-9.269 -34.222,-20.105 l -34.035,-19.731 v -43.715 c 0,-24.179 -0.25,-43.656 -0.559,-43.531 -0.25,0.125 -35.219,20.293 -77.609,44.906 l -77.043,44.719 v 86.559 l 34.781,20.168 c 19.074,11.086 34.848,20.168 34.969,20.23 0.125,0 34.847,-20.043 77.109,-44.594 z m 325.945,24.989 33.66,-19.539 0.125,-43.844 0.125,-43.844 -76.484,-44.277 -76.484,-44.344 -0.188,43.09 -0.125,43.027 -33.222,19.293 c -18.329,10.582 -33.723,19.602 -34.348,20.039 -0.871,0.692 9.226,6.703 75.801,45.348 42.261,24.551 76.98,44.594 77.168,44.594 0.187,0 15.461,-8.77 33.972,-19.543 z m 141.75,-82.235 77.356,-44.843 V 181.211 L 778.555,107.805 652.016,34.4648 575.035,78.9961 c -42.328,24.5509 -76.922,44.7189 -76.922,44.9059 0,0.188 15.336,9.207 34.098,20.043 l 34.098,19.731 0.308,103.844 0.313,103.843 91.508,53.047 91.445,53.051 v 43.656 c 0,24.051 0.125,43.715 0.246,43.715 0.187,0 35.098,-20.168 77.609,-44.844 z m -644.351,0.313 0.187,-43.278 92.254,-53.488 92.254,-53.551 0.313,-103.156 0.312,-103.09 34.098,-19.793 c 18.761,-10.836 34.16,-19.855 34.16,-20.043 -0.063,-0.562 -153.594,-89.2497 -154.215,-89.0622 -0.375,0.125 -57.41,33.0704 -126.727,73.2812 l -126.1011,73.09 v 293.934 l 76.2341,44.218 c 41.887,24.301 76.36,44.219 76.61,44.219 0.308,0 0.558,-19.48 0.621,-43.281 z m 319.465,-25.805 33.785,-19.539 -0.125,-43.156 -0.125,-43.09 -35.032,-20.356 -35.031,-20.292 -33.66,19.542 -33.726,19.54 0.125,44.093 0.187,44.094 33.973,19.727 c 20.132,11.652 34.347,19.543 34.906,19.355 0.5,-0.25 16.144,-9.207 34.723,-19.918 z m 33.41,-313.035 c -0.313,-0.25 -15.832,-9.395 -34.594,-20.293 l -34.16,-19.727 -34.285,19.852 -34.285,19.918 v 85.305 c 0,46.972 0.125,85.367 0.187,85.367 0.125,0 15.336,-8.77 33.723,-19.414 l 33.476,-19.481 35.031,20.356 35.032,20.293 0.187,-85.867 c 0.063,-47.227 -0.062,-86.059 -0.312,-86.309"
             style="fill:#ffffff;fill-opacity:1;fill-rule:nonzero;stroke:none"
             id="path48" />
        </g>
      </g>
      <g
         id="g50"
         transform="translate(-225.66385,-201.50425)"
         style="fill:#ffffff;fill-opacity:1">
        <g
           id="g52"
           clip-path="url(#clipPath56)"
           style="fill:#ffffff;fill-opacity:1">
          <path
             d="m 1792.98,843.098 h -95.44 V 623.055 c 0,-51.492 -30.79,-82.957 -76.12,-82.957 -45.85,0 -78.74,31.465 -78.74,82.957 V 843.098 H 1446.7 V 623.055 c 0,-100.27 67.96,-163.731 174.19,-163.731 105.72,0 172.09,63.461 172.09,163.731 z m 258.93,-82.961 c -43.15,-0.528 -76.57,-17.84 -97.09,-52.016 v 47.727 h -93.36 V 463.691 h 93.36 V 618.16 c 3.74,34.707 25.32,59.098 59.33,59.098 31.32,0 51.25,-21.156 51.25,-55.332 V 463.691 h 92.75 v 184.282 c 0,68.277 -42.03,112.164 -106.24,112.164 z m 219.52,129.031 c -28.54,0 -49.07,-20.629 -49.07,-49.309 0,-29.285 20.53,-49.91 49.07,-49.91 28.62,0 49.15,20.625 49.15,49.91 0,28.68 -20.53,49.309 -49.15,49.309 z m 45.86,-133.32 h -92.7539 V 463.692 h 92.7539 z m 355.5,11.367 v 75.883 H 2392.8 V 463.691 h 96.05 v 139.868 h 169.4 v 75.879 h -169.4 v 87.777 z m 138.67,-11.367 h -93.35 V 463.691 h 93.35 v 150.106 c 4.8,41.25 40.46,66.695 94.4,61.805 v 84.535 c -41.58,-0.528 -74.47,-19.496 -94.4,-53.598 z m 259.45,4.289 c -48.55,0 -89.53,-11.891 -134.86,-33.047 l 26.45,-61.805 c 30.72,15.735 62.56,24.391 86.84,24.391 37.76,0 56.64,-17.313 56.64,-46.071 v -4.289 h -76.65 c -72.22,-0.527 -111.63,-33.046 -111.63,-88.378 0,-53.672 37.76,-91.614 99.8,-91.614 39.4,0 70.12,13.024 89,37.942 v -33.575 h 91.18 v 190.754 c -0.52,66.172 -46.98,105.692 -126.77,105.692 z m -24.8,-237.352 c -25.92,0 -41.05,13.547 -41.05,34.703 0,21.68 14.08,31.391 42.1,31.391 h 58.82 v -25.973 c -5.92,-23.863 -30.8,-40.121 -59.87,-40.121 z m 606.27,237.352 c -47.95,-0.528 -83.61,-22.735 -102.5,-66.094 -14.53,41.18 -49.59,66.094 -97.09,66.094 -42.56,-0.528 -76.05,-17.84 -95.98,-52.543 v 48.254 h -92.83 V 463.691 h 92.83 v 144.684 c 0,39.598 22.1,68.355 57.69,69.406 30.79,0 49.68,-21.152 49.68,-55.855 V 463.691 h 93.27 v 144.684 c 0,39.598 21.58,68.355 56.64,69.406 30.79,0 50.2,-21.152 50.2,-55.855 V 463.691 h 92.75 v 184.282 c 0,68.277 -40.98,112.164 -104.66,112.164 z m 298.33,-1.051 c -90.05,0 -151.57,-59.621 -151.57,-150.109 0,-88.903 59.34,-148.524 154.27,-148.524 53.42,0 97.09,18.969 126.77,51.492 l -49.08,48.25 c -19.4,-19.57 -44.28,-29.808 -69.6,-29.808 -34.54,0 -59.34,19.496 -68.48,54.199 h 204.39 c 6.52,106.746 -44.21,174.5 -146.7,174.5 z m -59.33,-124.137 c 5.91,35.231 28.01,59.094 60.38,59.094 33.49,0 56.12,-23.336 56.12,-59.094"
             style="fill:#ffffff;fill-opacity:1;fill-rule:nonzero;stroke:none"
             id="path58" />
        </g>
      </g>
    </g>
  </g>
</svg>
