<?xml version="1.0" encoding="UTF-8" standalone="no"?>
<svg
   xmlns:dc="http://purl.org/dc/elements/1.1/"
   xmlns:cc="http://creativecommons.org/ns#"
   xmlns:rdf="http://www.w3.org/1999/02/22-rdf-syntax-ns#"
   xmlns:svg="http://www.w3.org/2000/svg"
   xmlns="http://www.w3.org/2000/svg"
   xmlns:sodipodi="http://sodipodi.sourceforge.net/DTD/sodipodi-0.dtd"
   xmlns:inkscape="http://www.inkscape.org/namespaces/inkscape"
   version="1.1"
   id="svg10"
   xml:space="preserve"
   width="576"
   height="129.33333"
   viewBox="0 0 576 129.33333"
   sodipodi:docname="logo-dark-bg.svg"
   inkscape:version="1.0.1 (c497b03c, 2020-09-10)"><metadata
     id="metadata16"><rdf:RDF><cc:Work
         rdf:about=""><dc:format>image/svg+xml</dc:format><dc:type
           rdf:resource="http://purl.org/dc/dcmitype/StillImage" /><dc:title></dc:title></cc:Work></rdf:RDF></metadata><defs
     id="defs14"><clipPath
       clipPathUnits="userSpaceOnUse"
       id="clipPath28"><path
         d="M 0,0.015625 H 935.016 V 969.99963 H 0 Z"
         id="path26" /></clipPath><clipPath
       clipPathUnits="userSpaceOnUse"
       id="clipPath38"><path
         d="M 1446.7,459.324 H 4097.96 V 889.168 H 1446.7 Z"
         id="path36" /></clipPath><clipPath
       clipPathUnits="userSpaceOnUse"
       id="clipPath48"><path
         d="M 1224,80 V 331 H 4320 V 80 Z"
         id="path46" /></clipPath></defs><sodipodi:namedview
     pagecolor="#ffffff"
     bordercolor="#666666"
     borderopacity="1"
     objecttolerance="10"
     gridtolerance="10"
     guidetolerance="10"
     inkscape:pageopacity="0"
     inkscape:pageshadow="2"
     inkscape:window-width="2304"
     inkscape:window-height="1296"
     id="namedview12"
     showgrid="false"
     inkscape:pagecheckerboard="true"
     inkscape:zoom="3.0625"
     inkscape:cx="184.34985"
     inkscape:cy="64.666664"
     inkscape:window-x="0"
     inkscape:window-y="0"
     inkscape:window-maximized="0"
     inkscape:current-layer="g20" /><g
     id="g18"
     inkscape:groupmode="layer"
     inkscape:label="ink_ext_XXXXXX"
     transform="matrix(1.3333333,0,0,-1.3333333,0,129.33333)"><g
       id="g20"
       transform="scale(0.1)"><g
         id="g22"
         style="fill:#ffffff;fill-opacity:1"><g
           id="g24"
           clip-path="url(#clipPath28)"
           style="fill:#ffffff;fill-opacity:1"><path
             d="M 324.324,888.203 183.262,806.344 V 598.969 L 91.7578,545.98 0.3125,492.93 0.125,328.27 0,163.613 141.25,81.6875 C 225.586,32.7734 282.871,-0.109375 283.559,0.078125 c 0.562,0.125 42.199,24.113275 92.504,53.300775 l 91.445,53.0511 91.508,-53.0511 c 50.3,-29.1875 91.879,-53.175775 92.504,-53.363275 0.621,-0.125 58.843,33.257775 142.246,81.671875 l 141.25,81.8595 -0.125,164.723 -0.188,164.722 -92.379,53.551 -92.441,53.613 -0.125,103.032 -0.188,103.093 -141.187,81.86 C 530.715,933.172 466.758,970.063 466.262,970 c -0.5,0 -64.395,-36.828 -141.938,-81.797 z M 600.59,857.699 c 65.14,-37.828 118.621,-68.894 118.933,-69.207 0.25,-0.25 0.375,-38.769 0.313,-85.617 l -0.188,-85.18 -33.847,19.602 -33.785,19.605 -89.325,-51.734 C 513.633,576.672 472.121,552.621 470.5,551.617 l -2.867,-1.754 -92.317,53.551 -92.257,53.488 -34.157,-19.793 c -18.765,-10.898 -34.535,-19.98 -34.91,-20.105 -0.621,-0.25 -0.808,17.164 -0.808,85.684 v 86.054 l 126.601,73.406 126.539,73.34 7.914,-4.57 c 4.364,-2.504 61.215,-35.449 126.352,-73.219 z M 360.043,577.234 c 42.262,-24.488 76.797,-44.718 76.609,-44.906 -0.125,-0.254 -15.523,-9.269 -34.222,-20.105 l -34.035,-19.731 v -43.715 c 0,-24.179 -0.25,-43.656 -0.559,-43.531 -0.25,0.125 -35.219,20.293 -77.609,44.906 l -77.043,44.719 v 86.559 l 34.781,20.168 c 19.074,11.086 34.848,20.168 34.969,20.23 0.125,0 34.847,-20.043 77.109,-44.594 z m 325.945,24.989 33.66,-19.539 0.125,-43.844 0.125,-43.844 -76.484,-44.277 -76.484,-44.344 -0.188,43.09 -0.125,43.027 -33.222,19.293 c -18.329,10.582 -33.723,19.602 -34.348,20.039 -0.871,0.692 9.226,6.703 75.801,45.348 42.261,24.551 76.98,44.594 77.168,44.594 0.187,0 15.461,-8.77 33.972,-19.543 z m 141.75,-82.235 77.356,-44.843 V 181.211 L 778.555,107.805 652.016,34.4648 575.035,78.9961 c -42.328,24.5509 -76.922,44.7189 -76.922,44.9059 0,0.188 15.336,9.207 34.098,20.043 l 34.098,19.731 0.308,103.844 0.313,103.843 91.508,53.047 91.445,53.051 v 43.656 c 0,24.051 0.125,43.715 0.246,43.715 0.187,0 35.098,-20.168 77.609,-44.844 z m -644.351,0.313 0.187,-43.278 92.254,-53.488 92.254,-53.551 0.313,-103.156 0.312,-103.09 34.098,-19.793 c 18.761,-10.836 34.16,-19.855 34.16,-20.043 -0.063,-0.562 -153.594,-89.2497 -154.215,-89.0622 -0.375,0.125 -57.41,33.0704 -126.727,73.2812 l -126.1011,73.09 v 293.934 l 76.2341,44.218 c 41.887,24.301 76.36,44.219 76.61,44.219 0.308,0 0.558,-19.48 0.621,-43.281 z m 319.465,-25.805 33.785,-19.539 -0.125,-43.156 -0.125,-43.09 -35.032,-20.356 -35.031,-20.292 -33.66,19.542 -33.726,19.54 0.125,44.093 0.187,44.094 33.973,19.727 c 20.132,11.652 34.347,19.543 34.906,19.355 0.5,-0.25 16.144,-9.207 34.723,-19.918 z m 33.41,-313.035 c -0.313,-0.25 -15.832,-9.395 -34.594,-20.293 l -34.16,-19.727 -34.285,19.852 -34.285,19.918 v 85.305 c 0,46.972 0.125,85.367 0.187,85.367 0.125,0 15.336,-8.77 33.723,-19.414 l 33.476,-19.481 35.031,20.356 35.032,20.293 0.187,-85.867 c 0.063,-47.227 -0.062,-86.059 -0.312,-86.309"
             style="fill:#ffffff;fill-opacity:1;fill-rule:nonzero;stroke:none"
             id="path30" /></g><path
           style="fill:#ffffff;fill-opacity:1;stroke:none;stroke-width:0.11876;stroke-opacity:1"
           d="M 36.266651,128.41513 C 33.370093,126.75948 16.694358,117.12343 8.5956518,112.42548 L 0.10433661,107.49978 0.07433239,85.592844 0.04432816,63.685909 10.347042,57.713737 c 5.666493,-3.284695 11.170924,-6.476013 12.232067,-7.091817 l 1.929353,-1.119644 0.03018,-13.839428 0.03018,-13.839428 6.94744,-4.033236 C 49.384736,7.4168988 61.438394,0.46008695 61.930162,0.23669501 c 0.285934,-0.12988876 0.544681,-0.004356 3.56279,1.72850969 3.013121,1.7300014 22.351346,12.9218393 30.777014,17.8119423 l 3.651859,2.119473 v 13.729121 13.729123 l 12.351315,7.161724 12.35132,7.161725 -0.03,21.916202 -0.03,21.916205 -13.59798,7.88057 c -7.47889,4.33431 -15.946993,9.22666 -18.818014,10.87189 l -5.220035,2.99133 -0.829315,-0.45235 c -0.661653,-0.36091 -22.922397,-13.22876 -23.586571,-13.63425 -0.129136,-0.0788 -0.553837,0.11023 -1.543876,0.68728 -3.513402,2.04785 -20.85845,12.08233 -21.918719,12.68045 -0.657337,0.37083 -1.245197,0.67105 -1.306356,0.66718 -0.06116,-0.004 -0.725778,-0.35834 -1.476933,-0.78769 z M 100.23045,117.1105 c 7.30915,-4.23789 14.89261,-8.63573 16.85215,-9.77298 l 3.56279,-2.06774 V 85.574723 65.879662 l -10.21334,-5.919764 c -5.61733,-3.255869 -10.28013,-5.920918 -10.36177,-5.922331 -0.116773,-0.002 -0.148455,1.235047 -0.148455,5.796488 v 5.799055 l -12.024414,6.971685 c -6.613429,3.834426 -12.100055,7.018547 -12.192502,7.075822 -0.142737,0.08843 -0.178559,2.193236 -0.237519,13.956429 l -0.06943,13.852294 -4.445715,2.58315 c -2.445143,1.42073 -4.464876,2.64063 -4.488297,2.71089 -0.02342,0.0703 2.164199,1.41308 4.861374,2.98403 4.345624,2.53109 15.573291,9.04004 15.60405,9.04605 0.0064,10e-4 5.991936,-3.46507 13.301078,-7.70296 z m -59.639484,6.0209 c 3.985464,-2.27566 16.666123,-9.61876 17.274127,-10.00307 l 0.518603,-0.3278 -0.637363,-0.38201 c -0.35055,-0.21011 -2.414304,-1.41397 -4.586121,-2.67525 l -3.948759,-2.29323 -0.0161,-10.467135 C 49.18649,91.225977 49.146411,85.026499 49.10628,83.206284 L 49.033314,79.896802 47.07378,78.75918 C 45.996036,78.133488 40.491526,74.939542 34.841535,71.661523 l -10.27271,-5.960034 -0.05938,-5.704691 c -0.03266,-3.13758 -0.09287,-5.738137 -0.133807,-5.779017 -0.07307,-0.07296 -2.545368,1.33712 -14.4142501,8.221207 l -5.9379827,3.444098 v 19.692884 19.69288 l 12.4103838,7.19359 c 6.825711,3.95647 14.361011,8.32445 16.745111,9.70664 2.3841,1.38217 4.410204,2.51639 4.502454,2.52048 0.09225,0.004 1.401574,-0.69708 2.909612,-1.55816 z m 26.968854,-15.60747 3.919068,-2.2821 0.07416,-3.95947 c 0.04079,-2.177706 0.04537,-7.368732 0.01018,-11.535612 -0.0528,-6.251953 -0.09171,-7.565505 -0.222617,-7.515273 -0.08725,0.03348 -2.186736,1.23839 -4.665531,2.677577 l -4.506902,2.616705 -1.698284,-0.994165 c -3.948218,-2.31126 -7.112056,-4.113035 -7.222313,-4.113035 -0.07788,0 -0.10791,3.897203 -0.08796,11.415973 l 0.03028,11.41598 4.568777,2.65075 4.568778,2.65076 0.656647,-0.373 c 0.361157,-0.20514 2.420228,-1.39994 4.575717,-2.65509 z M 66.705585,80.38619 c 2.494681,-1.444391 4.59603,-2.686914 4.669662,-2.761162 0.09352,-0.09431 0.156108,-1.871154 0.20763,-5.89484 l 0.07375,-5.759843 -1.157706,-0.661087 c -0.63674,-0.363597 -2.717441,-1.558879 -4.62378,-2.656184 l -3.466074,-1.995098 -0.987413,0.525598 c -0.543079,0.289079 -2.630751,1.475474 -4.639274,2.636432 l -3.651859,2.110835 v 5.914077 5.914078 l 4.483177,2.614594 c 2.465747,1.438028 4.499585,2.620034 4.51964,2.62668 0.02005,0.0067 2.077566,-1.16969 4.572247,-2.61408 z M 49.133547,74.135071 c 0.04217,-0.636849 0.07695,-3.247118 0.07729,-5.8006 l 6.14e-4,-4.642694 2.642403,-1.527735 c 4.2756,-2.471987 6.383424,-3.736126 6.381968,-3.8275 -7.13e-4,-0.04707 -1.002785,-0.671034 -2.226744,-1.386594 C 52.40291,54.84168 44.047231,49.988964 40.765371,48.096879 l -3.042517,-1.754097 -4.67686,2.709485 -4.67686,2.709485 -0.03079,5.800448 -0.03079,5.800449 8.343969,4.837732 c 4.589183,2.660753 9.199038,5.339717 10.244123,5.953254 1.045085,0.613538 1.958897,1.120881 2.030693,1.127432 0.08208,0.0075 0.159002,-0.417934 0.207214,-1.145996 z m 36.774639,-4.88072 10.035191,-5.821992 0.03077,-5.920823 0.03077,-5.920822 -4.477072,-2.595709 c -4.061551,-2.3548 -4.50632,-2.584671 -4.792196,-2.476765 -0.44755,0.168932 -16.950702,9.732192 -19.263486,11.162823 -0.574353,0.355279 -1.016814,0.690399 -0.983248,0.74471 0.03357,0.05431 2.065191,1.260683 4.514721,2.680825 l 4.453693,2.582077 2.37e-4,2.981609 c 4.75e-4,4.593016 0.13335,8.524488 0.286056,8.460366 0.07117,-0.02987 4.645201,-2.674204 10.164556,-5.876299 z M 70.623249,51.284224 c 4.520306,-2.623329 10.00904,-5.81049 12.197186,-7.082581 2.188147,-1.27209 4.031891,-2.314397 4.097208,-2.316238 0.06532,-0.0018 2.113764,1.154529 4.552104,2.569713 2.438339,1.415184 4.455769,2.573062 4.483177,2.573062 0.02741,0 0.04983,-5.144282 0.04983,-11.431739 0,-10.759128 -0.01223,-11.439318 -0.207829,-11.560549 C 95.465329,23.831611 78.784918,14.141321 70.095376,9.1060369 l -7.915292,-4.5866342 -16.952626,9.8237713 -16.952625,9.823773 0.07903,11.452602 c 0.04347,6.298932 0.09805,11.471619 0.121293,11.494861 0.02324,0.02324 2.093128,-1.143621 4.599744,-2.593031 2.506618,-1.449411 4.610927,-2.634568 4.676245,-2.633685 0.06532,8.32e-4 5.596548,3.185111 12.291624,7.076058 6.695075,3.890946 12.215361,7.077984 12.267302,7.082306 0.05194,0.0043 3.79287,-2.138504 8.313176,-4.761834 z"
           id="path877"
           transform="matrix(7.5000002,0,0,-7.5000002,0,970)" /><path
           style="fill:#ffffff;fill-opacity:1;stroke:none;stroke-width:0.326531;stroke-opacity:1"
           d="m 213.38776,67.729812 c -6.23069,-0.453825 -11.5564,-2.852816 -15.11165,-6.807109 -1.93019,-2.146834 -2.942,-3.908587 -4.05897,-7.067418 l -0.91102,-2.576376 -0.0978,-17.061224 -0.0978,-17.061225 h 6.20599 6.20599 l 0.0959,16.244898 0.0959,16.244898 0.84576,1.795918 c 1.14653,2.43456 2.20634,3.609493 4.27008,4.73392 1.44459,0.787083 2.222,0.97186 4.56239,1.084405 4.47673,0.215279 7.45914,-1.170037 9.44841,-4.388744 1.5113,-2.445339 1.60006,-3.558716 1.60417,-20.123458 l 0.004,-15.591837 h 6.21787 6.21787 l -0.10588,16.897959 c -0.0925,14.756336 -0.17633,17.135471 -0.66178,18.77199 -3.0895,10.415112 -12.06727,15.825666 -24.7293,14.903403 z"
           id="path879"
           transform="matrix(7.5000002,0,0,-7.5000002,0,970)" /><path
           style="fill:#ffffff;fill-opacity:1;stroke:none;stroke-width:0.326531;stroke-opacity:1"
           d="m 213.38776,67.729812 c -6.23069,-0.453825 -11.5564,-2.852816 -15.11165,-6.807109 -1.93019,-2.146834 -2.942,-3.908587 -4.05897,-7.067418 l -0.91102,-2.576376 -0.0978,-17.061224 -0.0978,-17.061225 h 6.20599 6.20599 l 0.0959,16.244898 0.0959,16.244898 0.84576,1.795918 c 1.14653,2.43456 2.20634,3.609493 4.27008,4.73392 1.44459,0.787083 2.222,0.97186 4.56239,1.084405 4.47673,0.215279 7.45914,-1.170037 9.44841,-4.388744 1.5113,-2.445339 1.60006,-3.558716 1.60417,-20.123458 l 0.004,-15.591837 h 6.21787 6.21787 l -0.10588,16.897959 c -0.0925,14.756336 -0.17633,17.135471 -0.66178,18.77199 -3.0895,10.415112 -12.06727,15.825666 -24.7293,14.903403 z"
           id="path881"
           transform="matrix(7.5000002,0,0,-7.5000002,0,970)" /></g><g
         id="g32"
         style="fill:#ffffff;fill-opacity:1"><g
           id="g34"
           clip-path="url(#clipPath38)"
           style="fill:#ffffff;fill-opacity:1"><path
             d="m 1792.98,843.098 h -95.44 V 623.055 c 0,-51.492 -30.79,-82.957 -76.12,-82.957 -45.85,0 -78.74,31.465 -78.74,82.957 V 843.098 H 1446.7 V 623.055 c 0,-100.27 67.96,-163.731 174.19,-163.731 105.72,0 172.09,63.461 172.09,163.731 z m 258.93,-82.961 c -43.15,-0.528 -76.57,-17.84 -97.09,-52.016 v 47.727 h -93.36 V 463.691 h 93.36 V 618.16 c 3.74,34.707 25.32,59.098 59.33,59.098 31.32,0 51.25,-21.156 51.25,-55.332 V 463.691 h 92.75 v 184.282 c 0,68.277 -42.03,112.164 -106.24,112.164 z m 219.52,129.031 c -28.54,0 -49.07,-20.629 -49.07,-49.309 0,-29.285 20.53,-49.91 49.07,-49.91 28.62,0 49.15,20.625 49.15,49.91 0,28.68 -20.53,49.309 -49.15,49.309 z m 45.86,-133.32 h -92.7539 V 463.692 h 92.7539 z m 355.5,11.367 v 75.883 H 2392.8 V 463.691 h 96.05 v 139.868 h 169.4 v 75.879 h -169.4 v 87.777 z m 138.67,-11.367 h -93.35 V 463.691 h 93.35 v 150.106 c 4.8,41.25 40.46,66.695 94.4,61.805 v 84.535 c -41.58,-0.528 -74.47,-19.496 -94.4,-53.598 z m 259.45,4.289 c -48.55,0 -89.53,-11.891 -134.86,-33.047 l 26.45,-61.805 c 30.72,15.735 62.56,24.391 86.84,24.391 37.76,0 56.64,-17.313 56.64,-46.071 v -4.289 h -76.65 c -72.22,-0.527 -111.63,-33.046 -111.63,-88.378 0,-53.672 37.76,-91.614 99.8,-91.614 39.4,0 70.12,13.024 89,37.942 v -33.575 h 91.18 v 190.754 c -0.52,66.172 -46.98,105.692 -126.77,105.692 z m -24.8,-237.352 c -25.92,0 -41.05,13.547 -41.05,34.703 0,21.68 14.08,31.391 42.1,31.391 h 58.82 v -25.973 c -5.92,-23.863 -30.8,-40.121 -59.87,-40.121 z m 606.27,237.352 c -47.95,-0.528 -83.61,-22.735 -102.5,-66.094 -14.53,41.18 -49.59,66.094 -97.09,66.094 -42.56,-0.528 -76.05,-17.84 -95.98,-52.543 v 48.254 h -92.83 V 463.691 h 92.83 v 144.684 c 0,39.598 22.1,68.355 57.69,69.406 30.79,0 49.68,-21.152 49.68,-55.855 V 463.691 h 93.27 v 144.684 c 0,39.598 21.58,68.355 56.64,69.406 30.79,0 50.2,-21.152 50.2,-55.855 V 463.691 h 92.75 v 184.282 c 0,68.277 -40.98,112.164 -104.66,112.164 z m 298.33,-1.051 c -90.05,0 -151.57,-59.621 -151.57,-150.109 0,-88.903 59.34,-148.524 154.27,-148.524 53.42,0 97.09,18.969 126.77,51.492 l -49.08,48.25 c -19.4,-19.57 -44.28,-29.808 -69.6,-29.808 -34.54,0 -59.34,19.496 -68.48,54.199 h 204.39 c 6.52,106.746 -44.21,174.5 -146.7,174.5 z m -59.33,-124.137 c 5.91,35.231 28.01,59.094 60.38,59.094 33.49,0 56.12,-23.336 56.12,-59.094"
             style="fill:#ffffff;fill-opacity:1;fill-rule:nonzero;stroke:none"
             id="path40" /></g></g><g
         id="g42"
         style="fill:#ffffff;fill-opacity:1"><g
           id="g44"
           clip-path="url(#clipPath48)"
           style="fill:#ffffff;fill-opacity:1"><path
             d="m 1370.3,165.359 c 0,4.067 -0.83,7.567 -0.83,11.629 0,1.094 0.83,2.184 0.83,3.278 0,0.789 -0.53,0.523 -0.83,1.351 -0.79,1.883 0.3,4.594 0.3,7.567 0,2.183 -0.3,4.328 -0.3,6.511 -0.79,13.289 0.83,26.836 0,42.008 -0.79,11.668 0.57,23.563 -0.26,37.414 0,1.879 0,3.235 0.26,3.762 0,1.355 -0.26,3.012 -0.26,4.367 0.26,6.473 1.09,12.984 -0.26,19.234 0.82,1.883 0,3.5 0,5.418 -0.27,6.211 1.09,12.461 0.82,18.145 -4.04,1.355 -8.39,1.918 -12.7,2.184 -4.57,0.789 -9.44,1.089 -14.27,0.789 -1.35,0 -3,-0.528 -4.35,-0.528 -1.87,0 -3.74,0 -5.65,-0.261 -0.26,0 -0.26,-0.266 -1.09,-0.266 h -0.78 c -1.91,-0.301 -2.44,-1.356 -4.31,-1.356 -1.35,-11.667 -5.4,-21.152 -8.39,-31.73 -2.14,-7.867 -3.23,-15.996 -6.18,-23.824 l -6.48,-22.246 c 0,-0.262 0,-0.528 0.26,-0.262 0.26,-0.828 -0.53,-0.266 -0.53,-1.094 -1.09,-6.773 -2.96,-12.457 -4.87,-18.707 -0.79,-2.972 -1.87,-5.683 -2.7,-7.828 -2.43,13.25 -6.74,26.008 -10.22,38.731 -4.05,13.023 -7.05,26.011 -10.53,39.035 -1.09,3.535 -1.61,7.3 -3.52,10.312 0.26,1.883 -0.52,3.5 -1.35,5.684 -0.26,1.355 -0.26,2.707 -1.35,3.5 0.27,2.445 -1.08,5.719 -1.87,8.129 -1.91,0.828 -3.26,0.566 -5.13,0.566 -4.57,0.789 -8.62,2.145 -13.22,1.879 -3.23,0 -6.49,0.266 -9.45,0 -4.57,-0.789 -8.87,-1.617 -12.92,-1.617 -1.35,0 -2.17,0.527 -3.26,-0.262 -0.26,-5.422 -0.26,-11.406 -0.26,-16.824 0,-5.684 0.82,-11.106 0.82,-16.262 0,-2.144 -0.29,-5.683 0.79,-7.039 -0.26,-0.262 -0.53,-0.789 -0.53,-1.355 0,-1.883 0.27,-4.59 0,-7.039 0,-2.973 -0.26,-5.684 -0.26,-7.868 0.79,-17.351 0,-33.308 0.79,-49.871 -0.79,-6.211 -0.26,-11.894 -0.26,-18.14 0,-8.66 0.82,-17.352 0.82,-26.012 0,-3.535 -0.3,-7.035 -0.3,-10.574 0.3,-4.328 0.57,-9.223 0.57,-13.817 0,-5.156 -0.57,-9.484 -0.27,-14.113 4.05,0 9.44,-1.055 14.54,-1.883 5.69,-0.828 11.09,1.356 15.66,1.621 1.08,-0.265 1.08,-1.355 2.17,-0.527 1.87,16.258 0.79,34.965 0,52.281 -0.83,11.668 -1.35,22.242 -1.35,32.821 0,4.066 0.79,7.3 0.79,11.367 0,2.972 -0.27,6.511 0.56,9.75 3.48,-9.489 6.44,-18.407 9.44,-27.102 0.26,-1.883 0.78,-3.238 1.05,-4.066 1.08,-3.235 2.43,-7.039 3.26,-10.574 3.48,-13.817 8.88,-25.184 12.4,-40.352 0,-0.828 0.82,-0.563 1.08,-0.828 -0.82,-0.828 -1.08,-0.828 -0.82,-1.883 7.3,-0.828 13.22,-0.562 19.97,0.266 2.17,0.261 4.3,0.261 6.21,1.09 1.35,5.421 2.96,10.539 4.31,14.906 1.09,4.594 2.14,8.922 3.48,12.984 l 1.65,6.512 c 2.96,8.394 6.18,16.262 8.09,24.918 2.96,7.34 4.05,15.207 7.01,22.508 v -18.707 c 0,-8.391 0.26,-19.231 0.26,-26.536 0,-16.257 0,-30.636 0.26,-45.804 0,-5.16 -0.26,-9.489 1.61,-13.551 6.22,-0.828 11.88,-1.922 18.1,-1.621 5.13,0 9.44,1.355 13.49,2.148 0.78,8.957 0,18.707 0.26,27.664 z m -100.06,152.817 0.26,-0.266 c 0,-0.262 0,-0.262 0.26,0 0.83,-1.09 -1.35,0.266 -1.35,-0.527 -0.26,0 -0.26,0.793 0,0.793 z m 1.61,-5.949 c -0.26,-0.262 -0.53,-0.262 -1.09,-0.262 -0.26,0.789 0.27,0.527 0.27,0.789 0.29,0 0.56,-0.262 0.82,-0.527 z M 1494.1,141.758 v 2.449 c 0,3.234 -0.26,6.512 -0.26,9.746 0,3.277 -0.56,6.25 -0.56,9.223 0,9.75 -0.26,19.234 0.26,28.719 0.3,10.312 0.56,20.589 0,30.902 -0.26,10.312 -0.52,20.59 -3.48,30.336 -1.35,1.355 -1.61,3.539 -2.44,4.894 -1.08,1.618 -2.43,2.711 -3.78,4.067 -2.7,2.445 -5.66,4.328 -8.36,6.773 -3.21,1.617 -6.21,3.238 -9.7,4.067 -7,1.882 -14.05,4.328 -22.66,3.8 -0.82,-0.566 0,-0.265 -1.09,-0.265 -6.74,0 -11.87,-1.352 -16.44,-2.707 l -3.22,-1.094 c -0.83,-0.262 -1.35,-1.09 -1.91,-1.617 l -2.14,-0.567 c -1.09,-0.527 -2.17,-1.617 -3.26,-2.445 -1.35,-1.055 -2.7,-2.144 -3.48,-3.5 -1.09,-1.09 -3.53,-2.711 -4.61,-3.801 -7.01,-7.867 -8.61,-19.234 -8.61,-33.347 l 1.87,-1.621 c 5.65,-0.262 10.52,-0.262 16.74,-0.79 4.05,-0.566 8.88,-1.355 12.14,0 0.26,1.356 -0.82,1.883 -0.82,2.973 -1.09,4.594 1.87,9.485 3.51,11.934 1.36,2.144 2.97,4.062 5.1,5.117 1.09,0.828 3,1.656 4.35,1.918 5.91,1.621 10.48,-0.262 14.53,-3.274 6.74,-1.355 7.57,-13.55 6.22,-19.761 -5.13,-1.09 -10.53,-3.274 -14.57,-4.629 -6.18,-2.406 -12.66,-4.063 -18.32,-6.473 -5.96,-2.711 -11.09,-5.984 -15.92,-9.484 -1.61,-1.094 -2.96,-3.012 -5.14,-3.012 -4.3,-5.684 -8.35,-12.195 -9.96,-20.324 -0.3,-1.621 -0.3,-4.067 -0.3,-6.211 0,-1.922 -0.26,-4.066 0,-5.684 l 0.83,-1.922 v -2.972 c 1.08,-6.774 4.31,-11.367 7,-15.996 3.26,-2.711 7.01,-5.684 11.05,-7.867 3.79,-1.883 8.92,-4.329 13.22,-5.122 4.61,-0.828 8.66,0.266 12.97,0.266 1.87,0 3.48,0.262 5.13,0.789 2.4,0.828 4.83,1.356 6.74,2.184 l 2.14,0.527 c 0.82,0.301 1.61,1.09 2.43,1.356 l 2.7,1.089 c 2.7,1.356 4.57,4.067 6.48,5.684 1.09,-3.234 2.43,-6.473 4.05,-9.184 5.65,0.266 15.09,-1.918 21.57,-1.089 0.79,2.144 0.27,4.062 0,5.945 z m -33.97,30.074 c -5.4,-6.211 -17.54,-9.746 -25.63,-4.062 -1.91,1.089 -3.78,4.363 -4.34,7.074 -0.79,4.594 1.91,7.301 3.26,11.105 7.53,6.207 18.31,8.391 28.06,11.629 h 0.26 c -0.26,-9.183 1.35,-18.668 -1.61,-25.746 z m 95.18,154.211 c -0.26,0.262 -1.08,0.562 -1.08,1.09 -4.84,1.617 -10.23,1.617 -16.19,1.355 -5.09,-0.261 -10.49,0 -14.53,-1.355 -0.3,-4.895 -0.3,-10.313 -0.83,-15.168 -0.26,-4.629 0,-9.75 0,-14.906 0.27,-12.196 0,-25.219 0,-36.848 0,-10.313 -0.26,-20.891 -0.52,-31.469 0,-5.117 -0.3,-10.273 -0.3,-15.429 -0.79,-21.418 2.18,-42.836 0.3,-63.422 -0.3,-0.793 0.79,-0.266 0.52,-0.793 -0.52,0 -0.82,0.265 -0.52,-0.301 -0.3,-2.973 -0.56,-8.395 0.52,-10.84 0.83,-0.262 2.44,-1.617 2.96,-0.527 0.27,-0.262 -0.26,-0.828 0.57,-0.828 9.14,0 17.79,-0.528 27.49,-0.262 0.26,1.617 0.53,3.535 0.53,4.629 1.08,10.539 0,19.496 0.3,29.508 l 0.52,25.484 c 1.88,-2.711 3.79,-5.422 5.4,-8.395 1.87,-2.711 3.78,-5.421 5.39,-8.394 5.66,-11.402 11.87,-23.035 17.53,-34.137 1.35,-3.012 2.17,-5.722 4.05,-7.867 3.22,0 6.48,-0.266 9.7,0 1.91,0 3.52,-0.266 5.13,-0.566 4.87,-0.262 9.7,0.3 14.31,0.566 2.4,0 4.57,-0.566 6.44,0 0.3,1.09 -0.78,1.879 -1.34,2.707 -1.61,2.148 -2.7,4.594 -4.05,7.039 -3.48,6.512 -7.79,13.289 -10.79,20.063 -4.3,9.484 -10.79,17.878 -15.09,28.191 -1.62,1.621 -2.14,3.5 -3.79,5.949 -0.52,1.356 -3.48,4.59 -3.22,6.246 0,1.055 2.44,3.766 3.22,5.121 1.65,2.184 2.44,3.801 3.52,5.418 2.7,3.805 4.87,7.34 7.01,10.578 2.43,3.54 4.6,7.34 6.48,11.102 l 3.22,5.422 c 1.35,2.184 2.17,4.367 3.26,5.984 l 2.96,4.328 c 2.96,5.684 5.92,11.368 9.18,16.524 -0.83,0.566 0,1.355 -0.27,2.183 -11.35,1.094 -21.57,0.793 -33.19,0.528 l -8.91,-14.641 c -2.96,-5.121 -6.45,-10.012 -9.14,-14.906 -5.7,-10.277 -11.35,-20.324 -17.53,-30.074 0.26,18.968 0,36.324 0.52,55.293 0.26,6.511 1.09,13.023 0.83,19.234 -0.31,12.457 -0.57,23.297 -0.57,36.586 z m -18.88,-188.875 c 0,0.789 0.57,0.527 0.83,1.09 0.26,-0.301 -0.26,-0.828 -0.26,-1.09 z m 107.89,36.586 c -0.52,-6.512 2.43,-12.461 4.87,-17.09 3.22,-2.711 5.39,-6.512 8.61,-8.922 0,-0.562 0.57,-0.828 0.57,-1.355 2.4,-1.09 4.04,-3.008 6.74,-3.801 0.53,-0.262 0.53,-0.828 1.05,-1.356 2.17,-0.261 3.78,-1.355 5.69,-2.183 1.05,0.266 2.14,-0.524 3.22,-0.789 1.88,-0.563 4.31,-0.828 6.48,-1.356 l 7.27,-1.089 c 11.62,-0.829 23.19,2.445 31.28,8.128 h 1.09 c 1.35,1.883 3.52,2.711 5.39,4.067 1.91,1.09 3.26,3.234 4.87,5.418 1.61,1.883 3.49,4.066 4.31,6.211 0.53,0.828 0.53,1.922 0.83,2.711 0.78,3.011 2.13,5.722 2.39,8.695 0.82,5.418 0.56,10.574 0.3,14.906 -1.08,0.262 -0.56,1.617 -1.08,2.446 -2.7,0.261 -5.4,0.261 -8.09,0 -6.48,-0.301 -12.97,0 -19.71,0.261 -0.79,-0.261 -1.35,-0.828 -1.87,-1.355 -1.09,-3.535 -1.35,-7.336 -2.17,-10.574 -0.53,-2.184 -2.14,-4.329 -2.97,-5.684 -1.87,-2.973 -4.87,-4.066 -9.17,-4.629 -4.57,-0.793 -9.18,-0.527 -13.23,1.356 l -1.61,1.089 c -2.96,2.446 -3.22,8.129 -3.48,13.024 -0.56,7.301 -0.56,13.551 0,18.969 19.14,-1.09 41.8,-1.09 62.82,0 1.35,2.449 1.35,7.867 1.35,12.461 0,4.062 0.26,8.394 0,12.457 -0.27,1.621 -0.79,3.273 -0.79,4.894 -0.3,2.711 0,5.684 -0.56,8.395 -0.26,2.179 -1.35,4.328 -2.13,6.511 -2.44,7.563 -5.7,14.641 -11.36,18.969 -0.52,0.262 -0.52,-0.262 -1.08,-0.262 l -6.18,4.063 -3.79,1.883 c -2.69,1.355 -5.13,1.882 -8.91,2.445 -1.05,0 -2.4,0.527 -3.48,0.793 -5.14,0.562 -10.27,0.828 -15.1,1.09 -0.56,-0.262 -0.3,0.566 -0.83,0.265 -2.43,-0.527 -4.04,-0.265 -6.48,-0.527 l -1.87,-0.828 c -4.61,-0.793 -9.7,-1.055 -12.7,-4.328 -1.87,-0.266 -2.7,-1.094 -3.48,-2.149 -1.35,-0.3 -2.18,-1.089 -2.7,-1.656 l -1.09,-0.527 c -0.82,-0.524 -1.87,-1.617 -2.43,-2.707 -0.79,-0.828 -1.09,-2.184 -1.88,-2.977 -0.26,-0.562 -0.82,-0.828 -1.34,-1.351 l -1.09,-1.621 c -1.35,-2.446 -2.96,-4.891 -3.78,-7.34 -1.61,-4.59 -3.22,-10.575 -3.22,-15.996 -0.83,-1.356 -0.57,-1.883 0,-2.973 -1.35,-2.973 -0.57,-6.211 -0.57,-9.484 0,-2.711 -0.52,-5.422 -0.52,-7.868 -0.26,-3.5 0.26,-7.304 0,-10.539 0,-3.011 0.52,-6.25 0.52,-9.222 0.3,-6.512 -0.78,-13.024 1.09,-18.969 z m 40.46,70.988 c 3.52,0.262 7.83,0.828 12.4,0.262 4.04,-0.262 5.13,-1.883 7.04,-4.856 1.87,-2.972 3.74,-6.25 2.7,-10.839 -10.01,0.261 -23.23,-0.829 -32.37,0 -0.82,6.511 4.31,12.984 10.23,15.433 z m 279.42,-3.504 c -0.27,7.305 -0.79,14.606 -0.79,21.946 0.26,7.566 0.79,14.078 0,21.418 -0.27,3.234 -1.35,6.472 -2.18,9.746 -1.08,3.238 -1.6,6.511 -2.69,9.488 l -2.96,4.855 c -2.17,3.274 -3.22,5.157 -6.22,7.34 -1.87,1.879 -3.75,2.145 -5.92,3.5 -0.82,0.301 -1.08,1.09 -1.87,1.356 -3,1.918 -6.75,3.008 -9.74,4.89 -4.31,-0.261 -8.35,0.528 -12.4,1.356 -2.96,0.265 -6.18,0.265 -9.44,0.265 -15.36,1.09 -32.1,1.352 -45.85,0.563 0,-1.09 -1.61,-1.09 -1.87,-1.918 0.78,-8.66 -0.57,-19.234 -0.27,-27.102 v -5.421 c 0.79,-8.391 0.79,-16.786 0.53,-25.18 -0.26,-7.34 0.26,-15.469 0.26,-22.77 -0.26,-4.632 0,-10.843 0,-15.172 0,-1.918 -0.26,-3.273 0,-4.628 0,-0.79 0.26,-1.356 0.26,-2.145 0.83,-3.012 -0.26,-5.984 -0.26,-8.957 0,-4.066 0.26,-7.867 0.26,-11.934 0,-4.066 0.3,-7.867 0.3,-11.367 -0.3,-9.75 -0.56,-18.707 -0.56,-28.453 0,-2.184 0.26,-4.332 0.26,-6.512 0,-1.093 -0.52,-1.882 -0.26,-2.976 0.26,-5.156 0.56,-9.746 1.35,-15.168 1.91,0.265 1.35,-0.301 2.43,-1.09 1.88,-0.266 3.52,0.262 5.4,0 5.66,-0.266 11.61,-0.266 18.05,-0.266 l 24.58,1.356 9.7,0.527 c 0.79,0 1.87,0.262 2.7,0.262 1.87,0.266 4.04,0 5.91,0.266 l 8.36,2.71 c 6.48,5.157 12.14,10.047 16.18,17.614 3.52,7.34 6.48,15.996 6.75,24.957 -1.35,1.355 -0.53,3.5 -0.53,5.683 0.26,4.328 0.53,8.657 0.26,12.723 -0.26,8.957 0.27,17.352 0.27,28.191 z m -35.33,-66.133 c -0.79,-1.917 -0.79,-1.917 -2.7,-2.972 -4.04,-2.184 -10.53,-3.801 -16.18,-4.063 -3.22,0.789 -8.09,0 -12.4,0.789 0.82,8.957 0,17.879 0.26,26.309 0.26,8.395 -0.52,16.262 -0.52,24.09 0,5.722 -0.26,12.195 -0.26,18.445 0,6.246 0.52,12.195 0.52,17.879 0,3.535 -0.26,6.773 0,10.313 0.26,8.394 -0.52,20.062 0.26,30.601 7.31,-0.793 14.84,1.918 21.32,0 l 2.43,-1.055 c 2.96,-1.093 4.83,-2.445 6.19,-4.367 5.12,-8.129 2.69,-21.117 2.69,-31.164 -0.26,-8.394 0.82,-16.523 0,-24.918 0,-2.972 0,-5.422 0.3,-8.394 0.26,-2.973 -0.3,-5.418 -0.3,-8.395 0.3,-5.156 1.09,-9.219 0.3,-13.851 0.79,-6.774 1.35,-14.903 0.26,-22.207 z m 153.47,-33.347 v 2.449 c 0,3.234 -0.26,6.512 -0.26,9.746 0,3.277 -0.56,6.25 -0.56,9.223 0,9.75 -0.26,19.234 0.3,28.719 0.26,10.312 0.52,20.589 0,30.902 -0.3,10.312 -0.56,20.59 -3.52,30.336 -1.35,1.355 -1.61,3.539 -2.44,4.894 -1.08,1.618 -2.43,2.711 -3.78,4.067 -2.7,2.445 -5.65,4.328 -8.35,6.773 -3.22,1.617 -6.18,3.238 -9.71,4.067 -7,1.882 -14,4.328 -22.66,3.8 -0.79,-0.566 0,-0.265 -1.09,-0.265 -6.74,0 -11.83,-1.352 -16.44,-2.707 l -3.22,-1.094 c -0.82,-0.262 -1.35,-1.09 -1.91,-1.617 l -2.14,-0.567 c -1.08,-0.527 -2.17,-1.617 -3.26,-2.445 -1.34,-1.055 -2.69,-2.144 -3.48,-3.5 -1.09,-1.09 -3.52,-2.711 -4.61,-3.801 -7,-7.867 -8.61,-19.234 -8.61,-33.347 l 1.87,-1.621 c 5.69,-0.262 10.53,-0.262 16.74,-0.79 4.05,-0.566 8.88,-1.355 12.14,0 0.26,1.356 -0.82,1.883 -0.82,2.973 -1.09,4.594 1.91,9.485 3.52,11.934 1.35,2.144 2.96,4.062 5.13,5.117 1.05,0.828 2.96,1.656 4.31,1.918 5.92,1.621 10.53,-0.262 14.57,-3.274 6.74,-1.355 7.53,-13.55 6.18,-19.761 -5.13,-1.09 -10.53,-3.274 -14.57,-4.629 -6.18,-2.406 -12.66,-4.063 -18.32,-6.473 -5.96,-2.711 -11.05,-5.984 -15.92,-9.484 -1.61,-1.094 -2.96,-3.012 -5.13,-3.012 -4.31,-5.684 -8.35,-12.195 -9.96,-20.324 -0.27,-1.621 -0.27,-4.067 -0.27,-6.211 0,-1.922 -0.3,-4.066 0,-5.684 l 0.79,-1.922 v -2.972 c 1.09,-6.774 4.31,-11.367 7,-15.996 3.26,-2.711 7.05,-5.684 11.09,-7.867 3.75,-1.883 8.88,-4.329 13.19,-5.122 4.61,-0.828 8.65,0.266 12.96,0.266 1.87,0 3.52,0.262 5.13,0.789 2.44,0.828 4.83,1.356 6.74,2.184 l 2.14,0.527 c 0.82,0.301 1.65,1.09 2.43,1.356 l 2.7,1.089 c 2.7,1.356 4.61,4.067 6.48,5.684 1.09,-3.234 2.44,-6.473 4.05,-9.184 5.66,0.266 15.09,-1.918 21.57,-1.089 0.83,2.144 0.27,4.062 0,5.945 z m -33.97,30.074 c -5.4,-6.211 -17.53,-9.746 -25.62,-4.062 -1.91,1.089 -3.79,4.363 -4.31,7.074 -0.83,4.594 1.87,7.301 3.22,11.105 7.57,6.207 18.36,8.391 28.06,11.629 h 0.26 c -0.26,-9.183 1.35,-18.668 -1.61,-25.746 z m 105.71,134.148 c -10.53,0.563 -18.62,0 -29.1,-0.789 -0.3,-0.566 -0.57,-1.355 -1.09,-1.921 0,-10.54 0,-21.379 -0.56,-30.075 -7.01,-0.527 -14.54,-0.527 -19.41,-1.355 0.26,-1.356 -0.82,-1.617 -1.08,-2.445 -0.79,-7.567 -1.09,-17.051 -0.53,-25.446 0.79,0 0.79,-0.562 1.61,0 0,-0.562 -0.26,-1.355 0.53,-1.355 5.95,-0.301 14.31,0.793 20.53,-0.301 -0.83,-8.129 -0.3,-15.695 -0.3,-22.207 v -3.234 c 0,-0.829 0.3,-1.356 0.3,-2.184 0.26,-6.25 0,-13.023 0.52,-19.5 0.52,-6.512 0.52,-14.641 0,-21.98 1.35,-0.79 0.52,-2.145 0.82,-4.067 0.27,-2.144 1.05,-5.418 1.61,-8.129 1.09,-4.066 2.44,-7.566 4.05,-10.273 3.79,-3.805 7.53,-8.133 12.93,-9.489 0.55,-0.562 1.34,-0.828 2.17,-1.355 1.87,-0.828 4.04,-1.09 6.22,-1.617 0.78,0 1.61,-0.563 2.39,-0.828 2.44,-0.262 5.13,-1.09 7.57,-1.09 4.31,-0.266 9.18,0 13.49,0 1.08,0 2.43,-0.527 3.52,-0.266 1.05,0 1.61,0.528 2.39,0.528 1.09,0 1.65,-0.528 2.7,-0.262 0.83,0.262 1.65,1.09 2.44,1.617 -1.35,9.785 0.26,18.969 -0.79,27.102 -0.82,-0.266 -1.35,0 -1.65,0.562 -2.96,0 -4.83,-0.562 -7,-0.562 -6.48,0 -15.1,1.089 -19.15,6.773 0,0.566 0.53,0.828 0.27,1.356 -1.61,3.011 -2.14,7.339 -2.7,11.667 -0.26,3.239 -0.26,6.778 -0.26,10.012 -0.27,5.985 -0.83,12.762 -0.53,17.617 0.53,4.891 0,10.047 0.26,14.641 0.27,4.895 1.09,9.484 0.79,14.113 0,0.793 -0.26,1.621 -0.52,1.883 9.7,-0.262 15.92,0 24.8,0.527 0.3,1.094 1.34,1.356 2.17,2.184 0.52,4.895 0.52,10.313 0.26,15.434 -0.26,4.062 -0.26,7.867 -1.09,11.668 -1.61,0.828 -3.74,0.261 -5.65,0 -1.61,0 -2.96,0.261 -4.31,0.527 -5.13,0 -10.79,-0.527 -16.45,-0.266 1.62,10.051 -0.56,20.325 -0.26,30.641 -0.82,0.527 -1.35,1.355 -1.91,2.144 z M 2301.9,141.758 v 2.449 c 0,3.234 -0.26,6.512 -0.26,9.746 0,3.277 -0.56,6.25 -0.56,9.223 0,9.75 -0.26,19.234 0.26,28.719 0.3,10.312 0.56,20.589 0,30.902 -0.26,10.312 -0.52,20.59 -3.48,30.336 -1.35,1.355 -1.61,3.539 -2.44,4.894 -1.08,1.618 -2.44,2.711 -3.78,4.067 -2.7,2.445 -5.66,4.328 -8.35,6.773 -3.23,1.617 -6.22,3.238 -9.71,4.067 -7,1.882 -14.04,4.328 -22.66,3.8 -0.83,-0.566 0,-0.265 -1.09,-0.265 -6.74,0 -11.87,-1.352 -16.44,-2.707 l -3.23,-1.094 c -0.82,-0.262 -1.34,-1.09 -1.91,-1.617 l -2.13,-0.567 c -1.09,-0.527 -2.17,-1.617 -3.26,-2.445 -1.35,-1.055 -2.7,-2.144 -3.48,-3.5 -1.09,-1.09 -3.52,-2.711 -4.61,-3.801 -7.01,-7.867 -8.62,-19.234 -8.62,-33.347 l 1.87,-1.621 c 5.66,-0.262 10.53,-0.262 16.75,-0.79 4.05,-0.566 8.88,-1.355 12.14,0 0.26,1.356 -0.83,1.883 -0.83,2.973 -1.08,4.594 1.88,9.485 3.53,11.934 1.34,2.144 2.95,4.062 5.09,5.117 1.09,0.828 3,1.656 4.34,1.918 5.92,1.621 10.5,-0.262 14.54,-3.274 6.74,-1.355 7.56,-13.55 6.22,-19.761 -5.14,-1.09 -10.53,-3.274 -14.57,-4.629 -6.19,-2.406 -12.67,-4.063 -18.32,-6.473 -5.96,-2.711 -11.09,-5.984 -15.92,-9.484 -1.61,-1.094 -2.96,-3.012 -5.13,-3.012 -4.31,-5.684 -8.36,-12.195 -9.97,-20.324 -0.3,-1.621 -0.3,-4.067 -0.3,-6.211 0,-1.922 -0.26,-4.066 0,-5.684 l 0.82,-1.922 v -2.972 c 1.09,-6.774 4.31,-11.367 7.01,-15.996 3.26,-2.711 7.01,-5.684 11.05,-7.867 3.78,-1.883 8.92,-4.329 13.23,-5.122 4.6,-0.828 8.65,0.266 12.96,0.266 1.87,0 3.48,0.262 5.13,0.789 2.39,0.828 4.83,1.356 6.74,2.184 l 2.13,0.527 c 0.83,0.301 1.62,1.09 2.44,1.356 l 2.7,1.089 c 2.7,1.356 4.57,4.067 6.48,5.684 1.08,-3.234 2.43,-6.473 4.04,-9.184 5.66,0.266 15.1,-1.918 21.58,-1.089 0.79,2.144 0.26,4.062 0,5.945 z m -33.97,30.074 c -5.4,-6.211 -17.54,-9.746 -25.63,-4.062 -1.91,1.089 -3.78,4.363 -4.34,7.074 -0.79,4.594 1.91,7.301 3.25,11.105 7.54,6.207 18.33,8.391 28.06,11.629 h 0.27 c -0.27,-9.183 1.34,-18.668 -1.61,-25.746 z m 158.57,60.715 c 0.26,-16.262 1.08,-33.051 0.82,-47.164 -0.26,-15.168 -0.82,-30.863 0.26,-48.215 1.87,-1.922 4.87,-1.355 7.83,-1.621 6.18,-0.828 11.57,-0.563 16.97,0.266 3.26,0.261 6.22,-0.266 8.66,1.617 0.52,11.367 0.52,22.773 0,34.402 l -1.09,11.406 c -0.82,12.723 0.52,25.481 0.52,37.114 0,1.918 -0.26,5.984 0,8.957 0,1.089 0.3,1.882 0.57,2.972 0,2.446 -0.27,5.157 -0.27,8.129 v 3.539 c 0,1.356 0.27,2.973 0,4.328 0,0.793 -0.56,0.528 -0.82,1.356 -0.82,2.972 0,7.039 0,10.578 0,10.539 0,20.324 -0.27,29.809 0,12.988 0.53,25.183 -0.55,37.113 -2.4,1.355 -5.93,1.094 -9.45,1.094 -8.35,0 -15.36,-0.266 -21.84,-1.094 -0.26,-0.828 -0.26,-1.617 -1.34,-1.617 0.26,-14.379 0,-29.813 0,-47.164 0.26,-13.024 0,-29.547 0,-45.805 z m 162.65,-94.852 c 0.26,2.973 -0.26,7.602 -0.26,11.403 0,2.711 0,5.422 -0.3,8.132 0,6.208 0.82,12.458 0.56,18.403 v 9.488 c 0.52,7.34 -0.56,14.113 -0.83,21.152 -0.26,9.75 1.09,19.762 0.57,29.547 -0.3,4.856 -1.65,10.012 -3.26,14.078 -1.61,3.536 -2.44,5.946 -4.31,8.957 l -2.96,3.766 c -1.35,1.352 -4.05,3.008 -3.78,4.629 -2.44,0.789 -4.57,1.883 -6.48,3.234 h -1.62 c -2.17,1.621 -5.39,1.922 -7.56,3.539 -1.87,-0.562 -3.22,0.793 -5.1,1.094 -2.69,0.262 -5.95,0.262 -8.91,0.262 -10.53,0 -20.75,-4.328 -26.15,-11.406 -0.3,0.828 0,0.828 0,1.922 -1.65,1.617 -1.35,6.773 -3.26,7.867 -1.09,0.527 -3.78,0.527 -5.13,0.527 -5.39,0.262 -12.92,-0.266 -18.06,0 0.26,-0.828 -0.26,-1.094 -0.82,-1.621 0.56,-1.355 -0.53,-4.328 0.56,-5.418 -1.09,-2.449 -0.26,-5.422 -0.56,-8.133 -0.26,-8.39 0.56,-17.879 0.56,-27.097 -0.26,-8.133 0,-15.997 0.26,-23.036 0.53,-5.421 -0.26,-13.023 0.53,-18.707 -0.27,-3.804 -0.27,-7.867 -0.27,-11.668 0,-4.328 -0.26,-7.566 -0.26,-11.367 0,-9.222 0.83,-18.972 0.83,-29.285 l 2.7,-1.617 c 7.26,0.562 11.83,-0.266 18.31,0 2.7,0 6.22,0.562 9.44,0.562 0.27,0.793 1.35,0.793 1.61,1.356 0,15.961 0,30.863 -0.26,46.863 0,2.973 0,6.512 -0.26,9.484 -0.26,3.54 0,7.04 -0.26,10.575 -0.56,8.394 -1.35,17.351 0.52,24.656 0.56,2.184 1.61,4.891 2.17,7.34 0.79,1.617 1.88,2.972 2.96,4.328 3.79,2.445 10.27,4.59 15.66,3.238 1.61,-0.265 4.57,-2.449 5.92,-3.504 3.22,-3.273 3.78,-7.074 4.57,-12.496 0.3,-1.879 1.09,-4.062 1.09,-5.683 1.91,-14.641 0.26,-28.719 0.82,-43.36 0.26,-1.883 0.53,-4.066 0.53,-6.211 0,-3.011 -0.53,-6.511 -0.53,-9.785 l -0.56,-10.84 c -0.26,-2.144 0,-4.066 -0.79,-5.683 0.27,-1.883 0.53,-4.594 0,-6.778 1.35,-0.789 1.35,-2.144 1.88,-3.234 1.61,-1.094 3.25,-0.566 5.13,-0.566 8.61,0.3 19.14,-0.262 25.36,1.093 z m 68.78,168.285 c -10.53,0.563 -18.62,0 -29.15,-0.789 -0.26,-0.566 -0.52,-1.355 -1.08,-1.921 0,-10.54 0,-21.379 -0.53,-30.075 -7.01,-0.527 -14.57,-0.527 -19.4,-1.355 0.26,-1.356 -0.83,-1.617 -1.09,-2.445 -0.82,-7.567 -1.09,-17.051 -0.56,-25.446 0.82,0 0.82,-0.562 1.65,0 0,-0.562 -0.31,-1.355 0.52,-1.355 5.92,-0.301 14.31,0.793 20.49,-0.301 -0.78,-8.129 -0.26,-15.695 -0.26,-22.207 v -3.234 c 0,-0.829 0.26,-1.356 0.26,-2.184 0.26,-6.25 0,-13.023 0.56,-19.5 0.53,-6.512 0.53,-14.641 0,-21.98 1.35,-0.79 0.53,-2.145 0.79,-4.067 0.26,-2.144 1.08,-5.418 1.61,-8.129 1.09,-4.066 2.44,-7.566 4.05,-10.273 3.78,-3.805 7.57,-8.133 12.96,-9.489 0.52,-0.562 1.35,-0.828 2.17,-1.355 1.87,-0.828 4.04,-1.09 6.18,-1.617 0.83,0 1.61,-0.563 2.44,-0.828 2.43,-0.262 5.13,-1.09 7.57,-1.09 4.3,-0.266 9.14,0 13.48,0 1.05,0 2.4,-0.527 3.48,-0.266 1.09,0 1.61,0.528 2.44,0.528 1.08,0 1.61,-0.528 2.7,-0.262 0.82,0.262 1.61,1.09 2.43,1.617 -1.35,9.785 0.26,18.969 -0.82,27.102 -0.79,-0.266 -1.35,0 -1.61,0.562 -2.96,0 -4.87,-0.562 -7.01,-0.562 -6.48,0 -15.09,1.089 -19.14,6.773 0,0.566 0.52,0.828 0.26,1.356 -1.61,3.011 -2.17,7.339 -2.69,11.667 -0.27,3.239 -0.27,6.778 -0.27,10.012 -0.3,5.985 -0.82,12.762 -0.56,17.617 0.56,4.891 0,10.047 0.26,14.641 0.3,4.895 1.09,9.484 0.83,14.113 0,0.793 -0.26,1.621 -0.53,1.883 9.7,-0.262 15.89,0 24.8,0.527 0.26,1.094 1.35,1.356 2.17,2.184 0.53,4.895 0.53,10.313 0.26,15.434 -0.26,4.062 -0.26,7.867 -1.08,11.668 -1.61,0.828 -3.78,0.261 -5.66,0 -1.61,0 -2.96,0.261 -4.31,0.527 -5.13,0 -10.79,-0.527 -16.48,-0.266 1.65,10.051 -0.52,20.325 -0.26,30.641 -0.79,0.527 -1.35,1.355 -1.87,2.144 z m 53.12,-132.226 c -0.53,-6.512 2.43,-12.461 4.86,-17.09 3.23,-2.711 5.4,-6.512 8.62,-8.922 0,-0.562 0.56,-0.828 0.56,-1.355 2.4,-1.09 4.05,-3.008 6.75,-3.801 0.52,-0.262 0.52,-0.828 1.04,-1.356 2.18,-0.261 3.79,-1.355 5.7,-2.183 1.05,0.266 2.13,-0.524 3.22,-0.789 1.87,-0.563 4.31,-0.828 6.48,-1.356 l 7.27,-1.089 c 11.61,-0.829 23.18,2.445 31.28,8.128 h 1.08 c 1.35,1.883 3.52,2.711 5.4,4.067 1.91,1.09 3.26,3.234 4.87,5.418 1.61,1.883 3.48,4.066 4.3,6.211 0.53,0.828 0.53,1.922 0.83,2.711 0.79,3.011 2.14,5.722 2.4,8.695 0.82,5.418 0.56,10.574 0.3,14.906 -1.09,0.262 -0.56,1.617 -1.09,2.446 -2.7,0.261 -5.39,0.261 -8.09,0 -6.48,-0.301 -12.96,0 -19.7,0.261 -0.79,-0.261 -1.35,-0.828 -1.88,-1.355 -1.09,-3.535 -1.35,-7.336 -2.17,-10.574 -0.53,-2.184 -2.13,-4.329 -2.96,-5.684 -1.87,-2.973 -4.87,-4.066 -9.18,-4.629 -4.57,-0.793 -9.17,-0.527 -13.22,1.356 l -1.61,1.089 c -2.96,2.446 -3.22,8.129 -3.48,13.024 -0.57,7.301 -0.57,13.551 0,18.969 19.14,-1.09 41.8,-1.09 62.82,0 1.34,2.449 1.34,7.867 1.34,12.461 0,4.062 0.26,8.394 0,12.457 -0.26,1.621 -0.78,3.273 -0.78,4.894 -0.3,2.711 0,5.684 -0.56,8.395 -0.27,2.179 -1.35,4.328 -2.14,6.511 -2.43,7.563 -5.69,14.641 -11.35,18.969 -0.53,0.262 -0.53,-0.262 -1.08,-0.262 l -6.19,4.063 -3.78,1.883 c -2.7,1.355 -5.13,1.882 -8.92,2.445 -1.04,0 -2.39,0.527 -3.48,0.793 -5.13,0.562 -10.26,0.828 -15.1,1.09 -0.56,-0.262 -0.3,0.566 -0.82,0.265 -2.44,-0.527 -4.05,-0.265 -6.48,-0.527 l -1.88,-0.828 c -4.6,-0.793 -9.7,-1.055 -12.69,-4.328 -1.88,-0.266 -2.7,-1.094 -3.49,-2.149 -1.35,-0.3 -2.17,-1.089 -2.69,-1.656 l -1.09,-0.527 c -0.82,-0.524 -1.88,-1.617 -2.44,-2.707 -0.78,-0.828 -1.08,-2.184 -1.87,-2.977 -0.26,-0.562 -0.82,-0.828 -1.35,-1.351 l -1.08,-1.621 c -1.35,-2.446 -2.96,-4.891 -3.79,-7.34 -1.61,-4.59 -3.22,-10.575 -3.22,-15.996 -0.82,-1.356 -0.56,-1.883 0,-2.973 -1.35,-2.973 -0.56,-6.211 -0.56,-9.484 0,-2.711 -0.53,-5.422 -0.53,-7.868 -0.26,-3.5 0.27,-7.304 0,-10.539 0,-3.011 0.53,-6.25 0.53,-9.222 0.3,-6.512 -0.79,-13.024 1.09,-18.969 z m 40.45,70.988 c 3.52,0.262 7.83,0.828 12.4,0.262 4.05,-0.262 5.14,-1.883 7.05,-4.856 1.87,-2.972 3.74,-6.25 2.69,-10.839 -10,0.261 -23.23,-0.829 -32.36,0 -0.83,6.511 4.3,12.984 10.22,15.433 z m 172.88,29.281 c -0.78,0.793 -4.31,1.094 -5.92,1.356 -3.78,0.262 -10.78,0 -14.57,0 -1.09,0 -2.13,0.527 -2.96,-0.262 0.27,-0.828 -0.82,-1.355 -0.82,-2.183 -0.79,-2.977 -0.26,-6.778 -1.61,-8.961 -2.14,3.539 -6.18,6.25 -10.53,7.867 -5.09,1.922 -11.05,3.801 -16.44,3.539 -3.23,0.262 -9.18,0 -14.01,-1.356 -1.09,-0.261 -2.18,-1.089 -3.52,-1.355 -4.05,-1.355 -6.48,-3.273 -9.45,-5.684 -0.78,-0.562 -1.6,-0.828 -2.13,-1.355 -2.44,-2.18 -3.52,-4.891 -5.96,-7.074 -0.26,-1.055 -0.78,-2.145 -1.35,-3.239 -0.52,-1.089 -1.61,-1.882 -2.13,-2.711 -1.35,-2.972 -1.91,-7.035 -2.44,-11.101 -0.82,-6.25 -0.82,-13.813 -1.08,-20.891 -0.83,-12.984 -0.83,-27.101 0,-40.648 1.08,-13.25 3.78,-25.746 10.79,-33.578 1.87,-1.09 3.22,-3.008 5.13,-4.364 9.96,-6.777 26.41,-7.566 39.37,-4.328 3.22,1.618 5.92,3.535 8.91,4.328 0.53,-4.855 -0.29,-8.921 0,-13.816 0,-3.5 0.53,-10.273 -0.82,-13.547 l -2.7,-3.805 c -2.69,-2.406 -7.56,-2.707 -11.87,-3.761 h -0.26 c -1.35,0 -3.22,0.261 -4.87,0.527 -1.61,0.262 -3.23,0.262 -4.31,0.828 -2.7,0.528 -3.78,2.145 -4.83,4.59 -1.65,4.066 -3,8.656 -2.7,13.816 -1.09,0 -1.35,0.829 -1.91,1.352 -5.13,1.094 -10.79,0.828 -15.62,1.922 -4.61,-0.566 -8.92,-0.566 -12.44,-1.656 -0.26,-0.789 -1.05,-0.789 -1.35,-1.356 0.3,-12.195 3,-24.09 9.18,-31.9568 0,-2.4454 3.26,-2.1836 4.05,-3.8008 0.56,-0.2617 0.82,0 1.34,-0.2617 4.61,-4.6329 11.62,-7.3399 19.45,-8.6954 2.39,-0.5273 4.83,-1.0546 7,-1.3554 11.05,-1.0547 22.37,1.9179 29.93,5.1562 3.22,1.3555 7.01,3.2735 9.7,5.418 3.79,2.9766 7.57,6.5117 9.18,11.1059 0.83,0.3 0.83,0.566 1.35,1.089 1.61,2.184 2.7,6.512 3.22,10.579 0.3,4.328 1.09,8.957 1.09,13.023 0,6.211 -0.79,12.457 -1.09,17.312 -0.26,5.161 0.3,11.407 0,17.09 0,4.328 -0.26,8.395 -0.26,12.461 -0.52,8.129 0,15.996 0.83,24.387 0.52,8.133 0.26,16.828 0.52,25.219 0.26,15.172 0,32.785 0,47.691 -1.09,0.262 -0.52,1.883 -1.09,2.445 z m -32.06,-97.824 c -0.3,-1.094 -1.09,-1.918 -0.83,-3.539 -4.04,-4.59 -10.79,-10.012 -19.96,-7.867 -1.35,0.266 -4.83,2.184 -5.4,2.711 -0.79,0.828 -1.61,2.184 -2.43,3.273 -1.88,2.711 -1.61,10.278 -1.88,14.344 -0.26,10.047 -0.82,26.57 -0.82,37.938 0,4.632 0.56,7.867 0.3,12.195 0.79,2.976 1.87,4.066 4.04,5.684 1.62,1.093 2.14,1.656 4.05,2.449 l 3.22,1.355 c 6.48,1.617 12.96,-1.621 17.01,-6.211 0.26,-0.566 0,-0.566 0,-1.093 1.61,-2.184 2.7,-5.157 3.22,-7.868 0,-1.617 -0.26,-3.234 0,-5.156 0,-0.527 0.26,-0.789 0.26,-1.355 0.27,-0.528 0,-1.09 0,-1.618 0,-1.355 0.56,-2.445 0.56,-3.539 0.79,-11.629 -0.56,-27.625 -1.34,-41.703 z m 139.16,95.379 c -1.09,0.262 -1.61,1.09 -2.17,1.617 -1.87,0.266 -3.22,2.184 -5.4,1.621 -0.52,0.301 0.57,0.563 -0.26,0.563 -7.83,1.617 -14.31,0.527 -22.4,0 -0.52,-0.563 -1.35,-0.828 -2.13,-0.563 -8.36,-3.238 -15.1,-8.394 -19.97,-14.343 -0.52,4.855 -1.61,9.222 -2.17,12.988 -0.53,-0.266 -0.79,0 -0.53,0.562 -1.61,-0.261 -3.52,0.528 -4.87,0.266 -0.78,0 -1.61,-0.266 -2.69,-0.266 -1.62,-0.261 -3.49,0.266 -5.4,0.266 -3.22,0 -9.7,-0.266 -10.49,-3.238 -0.3,-0.828 0,-1.918 0.27,-2.711 0,-5.985 0,-11.668 -0.27,-18.18 0.53,-14.078 0.27,-29.246 0.53,-44.453 0.26,-5.117 0.52,-10.012 0.52,-15.168 -0.26,-7.566 0,-14.641 -0.26,-21.68 -0.26,-4.855 0,-10.578 -0.26,-15.433 -0.53,-5.684 0.26,-10.84 0.82,-15.996 2.7,0.265 4.83,-0.828 7.53,-0.828 5.39,-0.528 11.87,-0.262 16.75,0 2.39,0.3 4.3,1.093 6.17,0 1.09,1.093 0.57,2.183 0.57,3.539 0,2.445 0.26,4.894 0.26,7.039 -0.26,3.539 -0.83,7.039 -0.83,10.312 0,12.723 0.27,28.981 -0.26,43.36 -0.52,12.988 -0.26,24.39 3.79,33.046 l 1.35,2.977 c 2.7,3.535 8.35,6.773 12.92,7.602 6.74,1.093 15.13,-0.829 21.31,0 0.57,0.828 -0.52,1.355 -0.26,2.183 3.23,7.301 4.87,16.524 7.83,24.918 z m 111.37,-129.82 v 2.449 c 0,3.234 -0.26,6.512 -0.26,9.746 0,3.277 -0.52,6.25 -0.52,9.223 0,9.75 -0.27,19.234 0.26,28.719 0.26,10.312 0.52,20.589 0,30.902 -0.26,10.312 -0.53,20.59 -3.53,30.336 -1.34,1.355 -1.6,3.539 -2.39,4.894 -1.09,1.618 -2.44,2.711 -3.78,4.067 -2.7,2.445 -5.66,4.328 -8.36,6.773 -3.26,1.617 -6.22,3.238 -9.74,4.067 -7,1.882 -14.01,4.328 -22.62,3.8 -0.83,-0.566 0,-0.265 -1.09,-0.265 -6.74,0 -11.87,-1.352 -16.44,-2.707 l -3.26,-1.094 c -0.79,-0.262 -1.35,-1.09 -1.88,-1.617 l -2.17,-0.567 c -1.09,-0.527 -2.14,-1.617 -3.22,-2.445 -1.35,-1.055 -2.7,-2.144 -3.52,-3.5 -1.09,-1.09 -3.49,-2.711 -4.57,-3.801 -7.01,-7.867 -8.66,-19.234 -8.66,-33.347 l 1.91,-1.621 c 5.66,-0.262 10.53,-0.262 16.71,-0.79 4.05,-0.566 8.92,-1.355 12.14,0 0.26,1.356 -0.79,1.883 -0.79,2.973 -1.09,4.594 1.88,9.485 3.48,11.934 1.35,2.144 2.97,4.062 5.14,5.117 1.08,0.828 2.96,1.656 4.31,1.918 5.95,1.621 10.52,-0.262 14.57,-3.274 6.74,-1.355 7.56,-13.55 6.22,-19.761 -5.14,-1.09 -10.53,-3.274 -14.58,-4.629 -6.21,-2.406 -12.69,-4.063 -18.35,-6.473 -5.92,-2.711 -11.05,-5.984 -15.92,-9.484 -1.61,-1.094 -2.96,-3.012 -5.1,-3.012 -4.34,-5.684 -8.39,-12.195 -10,-20.324 -0.26,-1.621 -0.26,-4.067 -0.26,-6.211 0,-1.922 -0.26,-4.066 0,-5.684 l 0.82,-1.922 v -2.972 c 1.05,-6.774 4.31,-11.367 7.01,-15.996 3.22,-2.711 7,-5.684 11.05,-7.867 3.78,-1.883 8.92,-4.329 13.22,-5.122 4.57,-0.828 8.62,0.266 12.93,0.266 1.91,0 3.52,0.262 5.13,0.789 2.43,0.828 4.87,1.356 6.74,2.184 l 2.17,0.527 c 0.79,0.301 1.62,1.09 2.44,1.356 l 2.7,1.089 c 2.69,1.356 4.57,4.067 6.44,5.684 1.09,-3.234 2.43,-6.473 4.04,-9.184 5.7,0.266 15.14,-1.918 21.58,-1.089 0.83,2.144 0.3,4.062 0,5.945 z m -33.97,30.074 c -5.4,-6.211 -17.54,-9.746 -25.63,-4.062 -1.87,1.089 -3.78,4.363 -4.3,7.074 -0.83,4.594 1.87,7.301 3.22,11.105 7.56,6.207 18.35,8.391 28.05,11.629 h 0.26 c -0.26,-9.183 1.36,-18.668 -1.6,-25.746 z m 105.75,134.148 c -10.53,0.563 -18.62,0 -29.15,-0.789 -0.26,-0.566 -0.52,-1.355 -1.09,-1.921 0,-10.54 0,-21.379 -0.52,-30.075 -7,-0.527 -14.57,-0.527 -19.44,-1.355 0.3,-1.356 -0.79,-1.617 -1.05,-2.445 -0.83,-7.567 -1.09,-17.051 -0.56,-25.446 0.82,0 0.82,-0.562 1.61,0 0,-0.562 -0.26,-1.355 0.56,-1.355 5.92,-0.301 14.28,0.793 20.49,-0.301 -0.82,-8.129 -0.26,-15.695 -0.26,-22.207 v -3.234 c 0,-0.829 0.26,-1.356 0.26,-2.184 0.27,-6.25 0,-13.023 0.53,-19.5 0.56,-6.512 0.56,-14.641 0,-21.98 1.35,-0.79 0.56,-2.145 0.82,-4.067 0.26,-2.144 1.09,-5.418 1.61,-8.129 1.09,-4.066 2.44,-7.566 4.05,-10.273 3.78,-3.805 7.56,-8.133 12.96,-9.489 0.52,-0.562 1.35,-0.828 2.13,-1.355 1.92,-0.828 4.05,-1.09 6.22,-1.617 0.83,0 1.61,-0.563 2.44,-0.828 2.43,-0.262 5.13,-1.09 7.53,-1.09 4.34,-0.266 9.18,0 13.48,0 1.09,0 2.44,-0.527 3.52,-0.266 1.09,0 1.62,0.528 2.44,0.528 1.09,0 1.61,-0.528 2.7,-0.262 0.78,0.262 1.61,1.09 2.43,1.617 -1.35,9.785 0.26,18.969 -0.82,27.102 -0.83,-0.266 -1.35,0 -1.61,0.562 -2.96,0 -4.87,-0.562 -7.01,-0.562 -6.48,0 -15.13,1.089 -19.18,6.773 0,0.566 0.56,0.828 0.3,1.356 -1.65,3.011 -2.17,7.339 -2.7,11.667 -0.3,3.239 -0.3,6.778 -0.3,10.012 -0.26,5.985 -0.78,12.762 -0.52,17.617 0.52,4.891 0,10.047 0.26,14.641 0.26,4.895 1.09,9.484 0.83,14.113 0,0.793 -0.27,1.621 -0.57,1.883 9.75,-0.262 15.93,0 24.84,0.527 0.26,1.094 1.35,1.356 2.14,2.184 0.56,4.895 0.56,10.313 0.3,15.434 -0.3,4.062 -0.3,7.867 -1.09,11.668 -1.61,0.828 -3.78,0.261 -5.66,0 -1.65,0 -3,0.261 -4.34,0.527 -5.1,0 -10.79,-0.527 -16.45,-0.266 1.61,10.051 -0.52,20.325 -0.26,30.641 -0.82,0.527 -1.35,1.355 -1.87,2.144 z m 87.35,-33.875 c -1.05,0 -1.34,0.301 -2.13,0 0,0.563 -0.26,1.09 -0.83,1.09 -9.17,2.446 -19.4,1.356 -28.05,0 -0.79,-5.683 -0.53,-12.195 -0.53,-18.707 0,-4.855 -0.82,-9.746 -0.82,-15.168 v -16.261 c -0.26,-5.684 -1.35,-11.93 -0.79,-17.051 0.26,-1.918 0,-2.707 0,-4.629 -0.26,-5.684 0,-11.629 0,-16.785 -0.26,-10.313 0.79,-20.891 0.79,-30.641 0,-4.855 -0.79,-9.484 -0.53,-13.812 0.27,-2.711 1.61,-4.895 3.79,-2.973 8.09,-1.621 18.05,-0.828 28.32,0 0.52,0.527 0.52,1.617 1.35,2.145 0.26,12.195 -0.57,24.691 -0.57,37.148 -0.26,8.66 0.31,16.789 0.83,25.746 0.52,7.305 0,14.906 0.52,22.473 0.56,12.758 -0.26,24.39 -1.35,37.148 0.83,2.711 -0.52,7.039 0,10.277 z m 0.31,53.938 c -10.79,0.562 -20.8,1.918 -30.76,0.562 0.52,-0.828 -0.26,-0.828 -0.83,-1.656 0,-8.656 -0.26,-18.14 -0.52,-28.719 7,-0.261 13.75,-0.261 20.49,-0.789 0.53,0 1.35,-0.566 1.87,-0.566 h 4.05 c 1.91,0 3.26,0.266 4.61,-0.262 0,0.528 0.52,0.528 0.78,0.528 0.83,3.011 1.35,8.129 1.35,12.496 z m 122.98,-137.949 c -0.57,2.445 0,6.511 0,9.785 v 18.144 c 0,7.036 -0.27,12.719 -1.09,18.704 -0.82,4.855 -1.09,9.75 -2.7,13.816 -1.87,3.801 -3.78,7.602 -6.21,11.102 l -6.45,5.984 c -0.3,0 -0.56,0.266 -0.82,0.266 -1.61,-0.266 -2.44,0.527 -3.52,1.089 -10.23,4.594 -23.98,8.395 -38.03,7.832 -6.48,-0.527 -12.4,-2.976 -16.97,-5.949 -5.13,-2.711 -8.09,-7.301 -12.13,-11.101 -0.83,-2.184 -2.44,-4.067 -3.53,-6.25 -2.17,-4.067 -3.52,-7.868 -4.3,-12.723 l -1.35,-7.34 c -0.26,-4.59 0.26,-6.773 0.79,-10.539 1.08,-10.574 0,-22.769 0.29,-33.086 0.27,-8.918 0.27,-17.879 3.23,-25.18 1.34,-3.8 2.96,-7.074 5.39,-9.484 l 2.17,-3.012 c 1.35,-1.355 3.23,-2.41 4.84,-3.5 5.13,-3.8 11.05,-6.25 17.26,-8.129 0.83,0 0.83,0.524 1.62,0.262 11.05,-3.801 22.13,-2.972 31.84,0.528 2.13,0.562 4.31,1.089 5.92,1.917 2.69,1.094 5.13,2.711 7,4.067 3.26,2.144 5.4,4.855 8.39,8.129 1.88,2.148 4.84,5.156 5.66,7.867 0.79,2.145 1.35,4.594 1.87,7.039 0.83,4.328 1.09,8.922 0.83,13.285 0,1.356 -0.57,3.504 0,5.121 0,0.301 0,0.301 0.26,0.301 l -0.26,0.262 c -0.27,0 0,0.527 0,0.793 z m -31.02,-5.121 c -0.26,-3.274 -0.82,-5.985 -1.61,-8.43 -1.91,-1.617 -4.05,-2.973 -5.69,-5.117 -2.14,-1.094 -3.75,-1.656 -5.92,-2.449 -0.53,-0.262 -1.09,-0.563 -1.62,-0.563 -3.25,-0.527 -8.35,1.09 -10.78,2.707 -1.35,1.094 -2.96,3.012 -4.05,4.895 -1.35,1.882 -2.44,3.8 -2.96,5.683 -0.56,1.356 -0.82,2.973 -0.82,4.895 -0.26,0.789 -0.26,1.617 -0.26,2.445 v 20.852 c 0,7.039 -0.27,15.734 0.26,22.507 0.26,2.711 0.52,5.684 1.61,7.305 0.82,1.356 2.43,2.973 4.04,4.328 1.35,1.356 3.53,2.184 4.61,2.973 2.4,0.566 5.66,0.301 8.35,0.828 1.09,0 1.62,-0.828 2.97,-0.527 4.87,-2.184 8.35,-5.157 9.7,-10.84 0.56,-1.656 0.56,-4.367 0.82,-5.985 0.26,-0.527 0,-1.355 0,-2.144 0,-1.094 0.26,-1.922 0.53,-3.012 0.26,-4.328 -0.27,-9.484 0,-14.605 0.56,-8.696 1.34,-16.258 0.82,-25.746 z m 153.48,-45.278 c 0.26,2.973 -0.3,7.602 -0.3,11.403 0,2.711 0,5.422 -0.27,8.132 0,6.208 0.83,12.458 0.57,18.403 v 9.488 c 0.52,7.34 -0.57,14.113 -0.83,21.152 -0.26,9.75 1.09,19.762 0.53,29.547 -0.27,4.856 -1.61,10.012 -3.23,14.078 -1.61,3.536 -2.43,5.946 -4.31,8.957 l -2.95,3.766 c -1.35,1.352 -4.05,3.008 -3.79,4.629 -2.43,0.789 -4.6,1.883 -6.48,3.234 h -1.61 c -2.17,1.621 -5.39,1.922 -7.56,3.539 -1.88,-0.562 -3.23,0.793 -5.14,1.094 -2.7,0.262 -5.91,0.262 -8.88,0.262 -10.52,0 -20.78,-4.328 -26.18,-11.406 -0.26,0.828 0,0.828 0,1.922 -1.61,1.617 -1.35,6.773 -3.22,7.867 -1.09,0.527 -3.79,0.527 -5.13,0.527 -5.4,0.262 -12.93,-0.266 -18.06,0 0.26,-0.828 -0.26,-1.094 -0.82,-1.621 0.56,-1.355 -0.53,-4.328 0.56,-5.418 -1.09,-2.449 -0.3,-5.422 -0.56,-8.133 -0.27,-8.39 0.56,-17.879 0.56,-27.097 -0.3,-8.133 0,-15.997 0.26,-23.036 0.52,-5.421 -0.26,-13.023 0.52,-18.707 -0.26,-3.804 -0.26,-7.867 -0.26,-11.668 0,-4.328 -0.26,-7.566 -0.26,-11.367 0,-9.222 0.79,-18.972 0.79,-29.285 l 2.7,-1.617 c 7.3,0.562 11.87,-0.266 18.35,0 2.7,0 6.22,0.562 9.44,0.562 0.26,0.793 1.35,0.793 1.61,1.356 0,15.961 0,30.863 -0.26,46.863 0,2.973 0,6.512 -0.27,9.484 -0.26,3.54 0,7.04 -0.26,10.575 -0.56,8.394 -1.35,17.351 0.53,24.656 0.52,2.184 1.61,4.891 2.17,7.34 0.79,1.617 1.87,2.972 2.96,4.328 3.78,2.445 10.23,4.59 15.62,3.238 1.65,-0.265 4.61,-2.449 5.96,-3.504 3.22,-3.273 3.78,-7.074 4.57,-12.496 0.26,-1.879 1.08,-4.062 1.08,-5.683 1.88,-14.641 0.26,-28.719 0.83,-43.36 0.26,-1.883 0.52,-4.066 0.52,-6.211 0,-3.011 -0.52,-6.511 -0.52,-9.785 l -0.57,-10.84 c -0.26,-2.144 0,-4.066 -0.78,-5.683 0.26,-1.883 0.52,-4.594 0,-6.778 1.35,-0.789 1.35,-2.144 1.87,-3.234 1.61,-1.094 3.22,-0.566 5.13,-0.566 8.62,0.3 19.15,-0.262 25.37,1.093 z m 216.29,157.746 c -1.87,7.567 -5.65,13.25 -9.7,18.668 -4.05,3.012 -6.74,6.778 -11.05,9.223 -1.91,1.09 -4.87,1.617 -5.96,3.539 -2.95,1.356 -5.13,2.445 -9.17,2.707 l -10.23,0.793 c -1.91,0 -4.05,0 -6.22,-0.266 -2.96,-0.261 -6.48,-0.527 -9.44,-1.355 l -7,-2.445 c -5.66,-2.145 -11.32,-5.117 -15.36,-8.657 l -2.44,-2.183 c -1.35,-2.41 -3.52,-3.766 -5.39,-6.211 -0.83,-1.09 -1.35,-2.445 -2.18,-3.801 -1.08,-2.973 -2.69,-5.156 -2.69,-8.394 -1.88,-4.329 -2.14,-9.223 -2.96,-13.813 0,-1.922 -0.27,-4.367 0,-6.25 0,-0.828 0.52,-1.617 0.52,-2.445 -0.26,-8.656 1.65,-15.168 4.87,-21.418 1.88,-1.879 2.44,-4.328 4.31,-6.211 l 2.43,-2.18 c 2.18,-2.148 4.57,-3.804 6.48,-5.683 l 2.7,-2.184 c 1.09,-1.355 2.14,-1.883 3.49,-2.977 1.91,-1.878 2.69,-4.062 5.69,-4.855 0.79,-1.918 2.7,-3.008 4.05,-3.801 0.26,-1.09 0.78,-1.918 2.13,-2.183 1.35,-1.879 3.78,-2.973 5.13,-4.856 0.83,-0.301 0.27,-0.562 1.09,-0.562 6.18,-7.301 15.09,-11.368 20.49,-18.973 2.96,-6.207 6.22,-15.168 3.22,-23.035 -3.48,-3.235 -7.26,-7.863 -13.48,-9.219 -5.1,-1.055 -9.71,1.656 -14.01,3.012 -6.48,5.679 -5.14,20.023 -5.14,30.863 -0.78,0.301 -0.52,0.563 -1.34,1.356 -10.53,0.3 -21.32,3.011 -31.29,-0.528 -1.08,-5.156 -1.87,-12.722 -0.52,-18.972 -0.3,-0.262 -0.3,-0.528 -0.3,-1.09 1.35,-7.867 1.09,-15.434 5.13,-21.946 -0.26,-0.828 0.26,-0.527 0,-1.355 2.96,-2.973 3.79,-7.035 7.01,-8.957 -0.26,-0.262 0.56,-0.527 0.56,-1.356 1.87,-0.789 2.44,-2.144 4.57,-2.406 0.27,-0.828 1.35,-2.183 2.96,-2.183 0.82,-1.356 3,-2.45 3.79,-2.184 1.91,-2.973 7.56,-3.5 10.78,-4.594 0.83,-0.261 1.35,0 2.18,0 0.78,-0.828 2.69,-0.261 4.04,-0.261 4.05,0 8.62,0.261 11.87,0.261 0.79,0.266 1.88,-0.261 2.7,-0.261 0.79,0 0.79,0.527 1.61,0.527 5.4,0.828 9.71,0.562 14.84,2.973 1.09,-0.266 1.61,0.562 2.69,0.562 1.36,1.355 2.97,2.148 4.84,3.238 3,0.828 4.61,2.711 6.48,4.629 l 1.09,0.793 c 0.82,0.828 0.26,1.356 1.08,2.184 l 1.61,1.617 1.35,1.883 c 0.82,1.355 2.17,2.445 2.96,3.801 1.09,1.918 1.91,4.628 2.7,7.039 1.91,6.773 4.3,13.285 3.52,23.035 0,1.918 0,3.273 -0.26,5.156 0,1.09 -0.83,1.918 -0.83,2.973 -0.26,1.355 0,2.711 -0.26,4.066 -0.26,1.356 -1.09,2.184 -1.91,4.063 -1.87,3.277 -2.7,7.605 -5.1,9.789 -2.17,4.062 -5.13,7.3 -8.09,10.273 -2.99,2.977 -5.13,4.629 -8.09,7.606 -1.91,1.878 -3,4.062 -5.39,4.855 -3.52,3.535 -7.31,6.773 -11.88,9.785 -2.96,2.145 -5.66,4.856 -8.65,7.301 -1.05,1.094 -2.13,1.621 -2.96,2.711 -1.09,1.094 -1.87,2.711 -2.96,3.801 -3.22,4.066 -6.48,7.867 -8.35,12.988 -1.61,4.629 -2.18,9.219 -1.35,13.547 1.35,1.922 1.61,3.805 3.48,4.894 1.91,1.883 4.35,2.184 7.31,3.239 2.13,0.828 3.78,1.355 4.57,1.355 2.96,0.301 4.87,-0.793 7.3,-1.621 1.05,0 1.88,0.266 2.7,0 1.87,-0.789 3.48,-2.445 4.83,-4.59 2.17,-3.277 2.44,-7.039 3.26,-11.105 0.79,-5.157 -0.3,-10.84 0,-15.207 2.14,-1.879 4.31,-1.352 7.27,-2.145 0.82,0 0.82,-0.562 1.61,-0.562 2.17,-0.266 4.31,0 6.74,0 2.44,0 4.61,0.3 7.01,0.3 3.52,0 7.3,-0.3 10.52,1.055 0.26,7.336 1.61,14.641 0.83,21.414 -0.26,4.067 -1.61,7.867 -2.44,11.406 z m 60.43,-23.336 c -1.09,0 -1.35,0.301 -2.18,0 0,0.563 -0.26,1.09 -0.78,1.09 -9.18,2.446 -19.45,1.356 -28.06,0 -0.82,-5.683 -0.56,-12.195 -0.56,-18.707 0,-4.855 -0.79,-9.746 -0.79,-15.168 v -16.261 c -0.26,-5.684 -1.35,-11.93 -0.83,-17.051 0.27,-1.918 0,-2.707 0,-4.629 -0.26,-5.684 0,-11.629 0,-16.785 -0.26,-10.313 0.83,-20.891 0.83,-30.641 0,-4.855 -0.83,-9.484 -0.56,-13.812 0.3,-2.711 1.65,-4.895 3.78,-2.973 8.09,-1.621 18.09,-0.828 28.32,0 0.56,0.527 0.56,1.617 1.35,2.145 0.26,12.195 -0.52,24.691 -0.52,37.148 -0.27,8.66 0.26,16.789 0.78,25.746 0.56,7.305 0,14.906 0.56,22.473 0.53,12.758 -0.26,24.39 -1.34,37.148 0.78,2.711 -0.57,7.039 0,10.277 z m 0.26,53.938 c -10.79,0.562 -20.76,1.918 -30.76,0.562 0.57,-0.828 -0.26,-0.828 -0.78,-1.656 0,-8.656 -0.3,-18.14 -0.56,-28.719 7,-0.261 13.74,-0.261 20.48,-0.789 0.57,0 1.36,-0.566 1.92,-0.566 h 4.04 c 1.88,0 3.22,0.266 4.57,-0.262 0,0.528 0.56,0.528 0.83,0.528 0.78,3.011 1.34,8.129 1.34,12.496 z m 147.82,-49.574 c -12.7,0 -22.93,-5.156 -31.32,-14.641 v 0.266 c -2.4,2.183 -5.39,3.801 -7,6.773 -0.79,0.266 -1.62,0.528 -2.14,1.09 -6.48,2.977 -12.7,5.684 -20.23,4.859 -2.17,0.563 -4.61,0 -6.74,-0.265 -7.05,-1.09 -14.05,-2.711 -18.88,-6.211 -1.91,-1.09 -3,-2.445 -4.35,-4.063 -0.78,1.352 -0.78,3.762 -1.87,4.856 1.09,0.262 0,2.972 0.26,4.328 -7.26,1.355 -18.05,1.918 -25.36,0.828 -1.87,-4.594 0,-9.488 -1.35,-13.816 1.91,-4.328 0,-8.129 -0.26,-12.457 -0.52,-6.778 1.35,-14.379 1.61,-21.68 0,-4.066 0,-7.606 0.3,-11.406 -0.82,-0.262 0.53,0 0.26,-0.528 0,-1.617 -0.56,-5.156 0,-7.039 v -18.968 c -0.26,-8.957 -0.82,-16.825 0,-25.747 0.53,-3.539 1.35,-6.773 1.35,-10.312 -0.26,-4.895 -0.82,-9.75 -0.26,-14.906 0.52,-0.262 0.52,-1.09 1.05,-1.356 8.65,0.828 20.79,-0.828 29.97,0 1.34,2.449 0.26,5.684 0.26,8.656 0.26,5.161 0,10.579 -0.26,15.735 -0.57,14.078 0.52,28.191 0.26,41.742 0.53,2.973 0,6.211 0.26,9.484 0.53,4.067 1.35,8.133 1.09,12.196 -0.27,0.527 -0.56,1.093 -0.56,1.621 -0.26,1.617 0.56,3.535 0.82,5.156 0.52,4.328 1.61,7.039 3.52,9.484 3.75,4.329 12.4,6.211 18.06,3.5 0.26,0 1.08,0 1.35,-0.261 0.52,-0.266 0.82,-1.094 1.08,-1.356 l 1.87,-1.093 1.09,-1.879 c 0.26,-0.528 1.09,-1.094 1.35,-1.883 0,-0.301 0,-0.828 0.26,-1.094 0.27,-0.562 0.83,-1.09 0.83,-1.355 0.52,-1.352 1.08,-3.274 1.08,-4.629 0.53,-1.883 0.53,-3.762 0.79,-5.684 0.26,-1.883 0.56,-3.801 0.56,-5.418 0.52,-4.066 0.26,-8.394 0.26,-12.723 0,-4.066 -0.26,-8.128 -0.56,-12.761 -0.26,-4.063 -0.78,-8.657 -0.78,-13.246 0,-4.067 0.52,-7.868 0.78,-11.668 0.3,-3.805 -0.26,-7.606 0,-11.106 0,-6.512 0.3,-13.023 0.82,-18.707 0.53,-0.262 0.53,-1.09 1.36,-1.617 9.96,-0.566 20.75,0 29.93,0 0.26,5.418 0.56,10.574 0.56,15.996 -0.3,4.856 -0.83,10.539 -0.56,15.434 0.26,2.972 0.26,5.945 0,8.656 0,5.984 0,13.851 -0.27,19.535 -0.26,9.484 0.53,22.77 -0.52,32.254 0.52,1.355 0.79,3.238 0.79,4.855 1.08,1.094 1.61,2.711 1.91,3.805 1.87,1.09 3.22,2.973 5.39,4.328 2.7,1.617 4.83,2.711 8.09,2.711 2.96,0 4.57,0.262 7.27,-1.094 2.43,-0.789 4.31,-2.41 5.66,-4.066 2.17,-2.144 2.43,-3.234 3.25,-6.207 0.27,-1.094 1.05,-2.449 1.05,-3.539 0.83,-3.5 0.57,-7.867 0.57,-11.934 v -19.496 c 0,-2.972 -0.27,-5.945 -0.57,-9.222 0,-3.235 0.3,-6.512 0.57,-9.746 0.26,-7.04 -0.83,-14.079 -0.83,-20.59 0,-5.985 0,-12.196 0.26,-17.618 0,-1.089 -0.26,-1.917 0,-2.707 0.83,-0.265 1.65,-0.566 2.18,-1.093 8.91,-0.528 17.53,0.265 26.15,0.527 0.82,-0.262 0.82,-1.055 1.91,-1.055 1.6,1.356 1.08,3.5 1.08,4.856 l -0.56,18.445 c -0.26,12.195 1.35,28.192 1.08,41.176 -0.26,6.777 0.27,14.117 0.27,21.418 0,6.773 -1.09,13.285 -1.61,19.234 0,2.446 -0.26,4.891 -0.83,7.34 -0.52,2.145 -1.34,2.406 -2.13,4.063 l -0.83,1.882 c -2.69,4.594 -5.92,9.223 -9.96,12.723 -1.35,0 -1.91,0.828 -2.96,1.094 -1.09,1.09 -2.7,1.617 -4.35,2.707 -2.69,1.621 -5.92,2.449 -9.7,3.801 -4.04,0.265 -8.61,0.828 -12.92,0.828 z m -31.58,-15.203 c 0,0 0.26,0.3 0.26,0.562 0,-0.262 -0.26,-0.262 -0.26,-0.562 z m 134.07,-117.887 c 2.69,-2.149 6.44,-4.594 10.23,-5.684 0.56,0 1.34,0.262 1.91,0 1.05,-0.527 1.87,-0.793 3.22,-0.793 5.39,-0.828 9.96,-0.562 15.66,-0.562 3.48,0.262 6.74,0.262 8.87,1.09 2.18,0.828 3.53,2.183 5.66,2.445 0.3,1.094 2.18,1.883 3.52,2.148 1.35,1.657 2.7,3.012 4.57,3.801 1.65,3.801 5.4,5.418 5.7,10.578 1.87,1.618 2.69,4.891 3.74,8.129 1.35,5.418 0.83,11.367 0.83,17.086 v 8.66 c -0.27,12.196 -0.53,24.918 -0.53,35.758 0,13.547 -0.56,24.125 -5.95,32.254 -2.7,3.805 -7.01,6.512 -9.44,10.316 -4.83,1.618 -10.23,4.59 -16.71,5.418 -2.17,0.266 -4.87,0.793 -6.48,0.528 -3.78,-0.262 -7.83,0 -11.32,-0.528 -3.78,-0.562 -7.56,-1.918 -10,-3.273 -0.52,-0.266 -1.34,-0.266 -1.87,-0.793 -1.09,-0.562 -2.96,-1.352 -3.52,-2.18 -0.52,-0.527 -0.79,-1.355 -1.35,-1.621 -1.09,-1.09 -2.13,-1.355 -3.22,-2.183 -0.56,3.539 -1.35,6.777 -2.43,9.488 -6.22,1.355 -15.66,1.09 -22.93,0 0,-1.055 -0.53,-1.883 -0.82,-2.711 0.29,-4.066 0,-7.828 0,-11.633 -0.27,-2.445 -0.27,-4.89 -0.27,-7.34 0,-1.05 0.56,-2.406 0.56,-3.761 0,-1.094 -0.56,-1.922 -0.29,-3.274 0,-2.976 0.29,-6.777 0.29,-10.277 0,-4.629 0.26,-9.223 0.26,-13.852 0,-2.972 -0.26,-5.945 -0.26,-8.922 v -8.39 c 0.26,-21.418 0.53,-36.887 1.05,-56.121 0.3,-22.774 0.83,-42.797 0,-63.4222 0.57,-0.2656 1.09,-0.2656 1.09,-1.3555 9.17,-0.7929 21.58,-2.1445 30.23,-0.2656 -0.3,1.6211 0,2.9766 0,4.6289 0.26,3.5039 -0.3,7.0391 0,10.5391 0.26,14.3793 0.26,31.4683 0,46.0743 z m 0,89.43 c 3.48,6.511 9.44,11.406 19.67,11.668 0.82,-0.829 1.91,-0.528 2.43,-0.528 5.13,-1.656 7.83,-6.511 8.92,-13.023 1.05,-7.039 1.35,-13.551 1.05,-20.324 0,-6.774 0.56,-14.641 0,-20.59 0.56,-4.891 0,-13.024 -2.14,-18.707 -3.52,-3.235 -9.18,-6.246 -15.92,-5.418 -2.96,0.527 -7.01,1.617 -8.92,3.234 -1.61,1.356 -1.87,3.012 -3.48,4.633 -1.35,11.101 -0.26,23.824 -1.35,36.586 -0.56,7.301 0,14.074 0,21.113 0.26,0.828 -0.56,0.567 -0.26,1.356 z M 4198,326.871 c -0.56,0.527 -1.61,0.262 -1.35,1.09 -9.7,1.355 -21.84,0 -30.75,0.789 0,-0.789 -0.26,-1.879 -1.09,-1.879 0.83,-2.711 0.26,-5.156 0,-7.605 v -9.485 c 0,-1.355 0.26,-2.711 0.26,-4.066 0,-3.801 -0.78,-7.863 -0.52,-11.629 0,-9.785 -0.52,-18.969 0,-28.457 0,-2.18 -0.52,-4.363 -0.52,-6.774 v -20.062 c -0.3,-6.512 -0.57,-13.285 -0.57,-20.324 l 1.09,-36.324 c 0.26,-7.04 0,-15.168 0,-21.415 -0.26,-5.949 -0.26,-10.277 0,-16.523 -1.09,-2.449 -0.26,-5.949 0.26,-7.605 1.35,-0.262 2.17,0.3 3.79,0.566 4.56,0.527 9.96,0 14.83,-0.566 4.57,-0.262 9.18,-0.528 12.66,0 0.82,1.656 -0.52,1.921 -0.79,3.273 -0.56,2.449 -0.26,5.949 -0.26,9.488 l 0.53,30.336 c 0.52,15.168 -0.53,30.375 0,44.453 0.26,8.657 0,17.086 0.26,25.746 0,8.657 0.56,17.614 0.82,26.008 0.53,8.395 0.26,16.824 0.53,25.219 0.26,8.395 -0.53,17.352 0.82,25.746 z m 26.15,-153.117 c -0.52,-6.512 2.44,-12.461 4.87,-17.09 3.22,-2.711 5.39,-6.512 8.62,-8.922 0,-0.562 0.56,-0.828 0.56,-1.355 2.39,-1.09 4.04,-3.008 6.74,-3.801 0.52,-0.262 0.52,-0.828 1.05,-1.356 2.17,-0.261 3.78,-1.355 5.69,-2.183 1.05,0.266 2.14,-0.524 3.23,-0.789 1.87,-0.563 4.3,-0.828 6.48,-1.356 l 7.26,-1.089 c 11.62,-0.829 23.19,2.445 31.28,8.128 h 1.09 c 1.35,1.883 3.52,2.711 5.39,4.067 1.91,1.09 3.26,3.234 4.87,5.418 1.61,1.883 3.49,4.066 4.31,6.211 0.53,0.828 0.53,1.922 0.82,2.711 0.79,3.011 2.14,5.722 2.4,8.695 0.83,5.418 0.57,10.574 0.3,14.906 -1.08,0.262 -0.56,1.617 -1.08,2.446 -2.7,0.261 -5.4,0.261 -8.1,0 -6.48,-0.301 -12.96,0 -19.7,0.261 -0.78,-0.261 -1.35,-0.828 -1.87,-1.355 -1.09,-3.535 -1.35,-7.336 -2.18,-10.574 -0.52,-2.184 -2.13,-4.329 -2.95,-5.684 -1.88,-2.973 -4.87,-4.066 -9.18,-4.629 -4.57,-0.793 -9.18,-0.527 -13.23,1.356 l -1.61,1.089 c -2.96,2.446 -3.22,8.129 -3.48,13.024 -0.56,7.301 -0.56,13.551 0,18.969 19.14,-1.09 41.81,-1.09 62.82,0 1.35,2.449 1.35,7.867 1.35,12.461 0,4.062 0.26,8.394 0,12.457 -0.26,1.621 -0.79,3.273 -0.79,4.894 -0.3,2.711 0,5.684 -0.56,8.395 -0.26,2.179 -1.35,4.328 -2.14,6.511 -2.43,7.563 -5.69,14.641 -11.35,18.969 -0.52,0.262 -0.52,-0.262 -1.08,-0.262 l -6.18,4.063 -3.79,1.883 c -2.69,1.355 -5.13,1.882 -8.91,2.445 -1.05,0 -2.4,0.527 -3.49,0.793 -5.13,0.562 -10.26,0.828 -15.09,1.09 -0.56,-0.262 -0.3,0.566 -0.82,0.265 -2.44,-0.527 -4.05,-0.265 -6.49,-0.527 l -1.87,-0.828 c -4.61,-0.793 -9.7,-1.055 -12.7,-4.328 -1.87,-0.266 -2.69,-1.094 -3.48,-2.149 -1.35,-0.3 -2.18,-1.089 -2.7,-1.656 l -1.08,-0.527 c -0.83,-0.524 -1.88,-1.617 -2.44,-2.707 -0.79,-0.828 -1.09,-2.184 -1.87,-2.977 -0.27,-0.562 -0.83,-0.828 -1.36,-1.351 l -1.08,-1.621 c -1.35,-2.446 -2.96,-4.891 -3.78,-7.34 -1.62,-4.59 -3.22,-10.575 -3.22,-15.996 -0.83,-1.356 -0.57,-1.883 0,-2.973 -1.35,-2.973 -0.57,-6.211 -0.57,-9.484 0,-2.711 -0.52,-5.422 -0.52,-7.868 -0.26,-3.5 0.26,-7.304 0,-10.539 0,-3.011 0.52,-6.25 0.52,-9.222 0.3,-6.512 -0.78,-13.024 1.09,-18.969 z m 40.46,70.988 c 3.52,0.262 7.83,0.828 12.4,0.262 4.04,-0.262 5.13,-1.883 7.04,-4.856 1.87,-2.972 3.75,-6.25 2.7,-10.839 -10,0.261 -23.23,-0.829 -32.37,0 -0.83,6.511 4.31,12.984 10.23,15.433"
             style="fill:#ffffff;fill-opacity:1;fill-rule:nonzero;stroke:none"
             id="path50" /></g></g></g></g></svg>
