<?xml version="1.0" encoding="UTF-8" standalone="no"?>
<svg
   xmlns:dc="http://purl.org/dc/elements/1.1/"
   xmlns:cc="http://creativecommons.org/ns#"
   xmlns:rdf="http://www.w3.org/1999/02/22-rdf-syntax-ns#"
   xmlns:svg="http://www.w3.org/2000/svg"
   xmlns="http://www.w3.org/2000/svg"
   xmlns:sodipodi="http://sodipodi.sourceforge.net/DTD/sodipodi-0.dtd"
   xmlns:inkscape="http://www.inkscape.org/namespaces/inkscape"
   version="1.1"
   id="svg10"
   xml:space="preserve"
   width="124.6688"
   height="129.33119"
   viewBox="0 0 124.6688 129.33119"
   sodipodi:docname="pure-logo-light-bg.svg"
   inkscape:version="1.0.1 (c497b03c, 2020-09-10)"><metadata
     id="metadata16"><rdf:RDF><cc:Work
         rdf:about=""><dc:format>image/svg+xml</dc:format><dc:type
           rdf:resource="http://purl.org/dc/dcmitype/StillImage" /><dc:title></dc:title></cc:Work></rdf:RDF></metadata><defs
     id="defs14"><clipPath
       clipPathUnits="userSpaceOnUse"
       id="clipPath28"><path
         d="M 0,0.015625 H 935.016 V 969.99963 H 0 Z"
         id="path26" /></clipPath><clipPath
       clipPathUnits="userSpaceOnUse"
       id="clipPath38"><path
         d="M 1446.7,459.324 H 4097.96 V 889.168 H 1446.7 Z"
         id="path36" /></clipPath><clipPath
       clipPathUnits="userSpaceOnUse"
       id="clipPath48"><path
         d="M 1224,80 V 331 H 4320 V 80 Z"
         id="path46" /></clipPath></defs><sodipodi:namedview
     pagecolor="#ffffff"
     bordercolor="#666666"
     borderopacity="1"
     objecttolerance="10"
     gridtolerance="10"
     guidetolerance="10"
     inkscape:pageopacity="0"
     inkscape:pageshadow="2"
     inkscape:window-width="2304"
     inkscape:window-height="1296"
     id="namedview12"
     showgrid="false"
     inkscape:pagecheckerboard="true"
     inkscape:zoom="3.0625"
     inkscape:cx="178.39865"
     inkscape:cy="64.666615"
     inkscape:window-x="0"
     inkscape:window-y="0"
     inkscape:window-maximized="0"
     inkscape:current-layer="g22"
     fit-margin-top="0"
     fit-margin-left="0"
     fit-margin-right="0"
     fit-margin-bottom="0" /><g
     id="g18"
     inkscape:groupmode="layer"
     inkscape:label="ink_ext_XXXXXX"
     transform="matrix(1.3333333,0,0,-1.3333333,0,129.33328)"><g
       id="g20"
       transform="scale(0.1)"><g
         id="g22"
         style="fill:#ffffff;fill-opacity:1"><g
           id="g24"
           clip-path="url(#clipPath28)"
           style="fill:#1d80cf;fill-opacity:1"><path
             d="M 324.324,888.203 183.262,806.344 V 598.969 L 91.7578,545.98 0.3125,492.93 0.125,328.27 0,163.613 141.25,81.6875 C 225.586,32.7734 282.871,-0.109375 283.559,0.078125 c 0.562,0.125 42.199,24.113275 92.504,53.300775 l 91.445,53.0511 91.508,-53.0511 c 50.3,-29.1875 91.879,-53.175775 92.504,-53.363275 0.621,-0.125 58.843,33.257775 142.246,81.671875 l 141.25,81.8595 -0.125,164.723 -0.188,164.722 -92.379,53.551 -92.441,53.613 -0.125,103.032 -0.188,103.093 -141.187,81.86 C 530.715,933.172 466.758,970.063 466.262,970 c -0.5,0 -64.395,-36.828 -141.938,-81.797 z M 600.59,857.699 c 65.14,-37.828 118.621,-68.894 118.933,-69.207 0.25,-0.25 0.375,-38.769 0.313,-85.617 l -0.188,-85.18 -33.847,19.602 -33.785,19.605 -89.325,-51.734 C 513.633,576.672 472.121,552.621 470.5,551.617 l -2.867,-1.754 -92.317,53.551 -92.257,53.488 -34.157,-19.793 c -18.765,-10.898 -34.535,-19.98 -34.91,-20.105 -0.621,-0.25 -0.808,17.164 -0.808,85.684 v 86.054 l 126.601,73.406 126.539,73.34 7.914,-4.57 c 4.364,-2.504 61.215,-35.449 126.352,-73.219 z M 360.043,577.234 c 42.262,-24.488 76.797,-44.718 76.609,-44.906 -0.125,-0.254 -15.523,-9.269 -34.222,-20.105 l -34.035,-19.731 v -43.715 c 0,-24.179 -0.25,-43.656 -0.559,-43.531 -0.25,0.125 -35.219,20.293 -77.609,44.906 l -77.043,44.719 v 86.559 l 34.781,20.168 c 19.074,11.086 34.848,20.168 34.969,20.23 0.125,0 34.847,-20.043 77.109,-44.594 z m 325.945,24.989 33.66,-19.539 0.125,-43.844 0.125,-43.844 -76.484,-44.277 -76.484,-44.344 -0.188,43.09 -0.125,43.027 -33.222,19.293 c -18.329,10.582 -33.723,19.602 -34.348,20.039 -0.871,0.692 9.226,6.703 75.801,45.348 42.261,24.551 76.98,44.594 77.168,44.594 0.187,0 15.461,-8.77 33.972,-19.543 z m 141.75,-82.235 77.356,-44.843 V 181.211 L 778.555,107.805 652.016,34.4648 575.035,78.9961 c -42.328,24.5509 -76.922,44.7189 -76.922,44.9059 0,0.188 15.336,9.207 34.098,20.043 l 34.098,19.731 0.308,103.844 0.313,103.843 91.508,53.047 91.445,53.051 v 43.656 c 0,24.051 0.125,43.715 0.246,43.715 0.187,0 35.098,-20.168 77.609,-44.844 z m -644.351,0.313 0.187,-43.278 92.254,-53.488 92.254,-53.551 0.313,-103.156 0.312,-103.09 34.098,-19.793 c 18.761,-10.836 34.16,-19.855 34.16,-20.043 -0.063,-0.562 -153.594,-89.2497 -154.215,-89.0622 -0.375,0.125 -57.41,33.0704 -126.727,73.2812 l -126.1011,73.09 v 293.934 l 76.2341,44.218 c 41.887,24.301 76.36,44.219 76.61,44.219 0.308,0 0.558,-19.48 0.621,-43.281 z m 319.465,-25.805 33.785,-19.539 -0.125,-43.156 -0.125,-43.09 -35.032,-20.356 -35.031,-20.292 -33.66,19.542 -33.726,19.54 0.125,44.093 0.187,44.094 33.973,19.727 c 20.132,11.652 34.347,19.543 34.906,19.355 0.5,-0.25 16.144,-9.207 34.723,-19.918 z m 33.41,-313.035 c -0.313,-0.25 -15.832,-9.395 -34.594,-20.293 l -34.16,-19.727 -34.285,19.852 -34.285,19.918 v 85.305 c 0,46.972 0.125,85.367 0.187,85.367 0.125,0 15.336,-8.77 33.723,-19.414 l 33.476,-19.481 35.031,20.356 35.032,20.293 0.187,-85.867 c 0.063,-47.227 -0.062,-86.059 -0.312,-86.309"
             style="fill:#1d80cf;fill-opacity:1;fill-rule:nonzero;stroke:none"
             id="path30" /></g><path
           style="fill:#1d80cf;fill-opacity:1;stroke:none;stroke-width:0.11876;stroke-opacity:1"
           d="M 36.266651,128.41513 C 33.370093,126.75948 16.694358,117.12343 8.5956518,112.42548 L 0.10433661,107.49978 0.07433239,85.592844 0.04432816,63.685909 10.347042,57.713737 c 5.666493,-3.284695 11.170924,-6.476013 12.232067,-7.091817 l 1.929353,-1.119644 0.03018,-13.839428 0.03018,-13.839428 6.94744,-4.033236 C 49.384736,7.4168988 61.438394,0.46008695 61.930162,0.23669501 c 0.285934,-0.12988876 0.544681,-0.004356 3.56279,1.72850969 3.013121,1.7300014 22.351346,12.9218393 30.777014,17.8119423 l 3.651859,2.119473 v 13.729121 13.729123 l 12.351315,7.161724 12.35132,7.161725 -0.03,21.916202 -0.03,21.916205 -13.59798,7.88057 c -7.47889,4.33431 -15.946993,9.22666 -18.818014,10.87189 l -5.220035,2.99133 -0.829315,-0.45235 c -0.661653,-0.36091 -22.922397,-13.22876 -23.586571,-13.63425 -0.129136,-0.0788 -0.553837,0.11023 -1.543876,0.68728 -3.513402,2.04785 -20.85845,12.08233 -21.918719,12.68045 -0.657337,0.37083 -1.245197,0.67105 -1.306356,0.66718 -0.06116,-0.004 -0.725778,-0.35834 -1.476933,-0.78769 z M 100.23045,117.1105 c 7.30915,-4.23789 14.89261,-8.63573 16.85215,-9.77298 l 3.56279,-2.06774 V 85.574723 65.879662 l -10.21334,-5.919764 c -5.61733,-3.255869 -10.28013,-5.920918 -10.36177,-5.922331 -0.116773,-0.002 -0.148455,1.235047 -0.148455,5.796488 v 5.799055 l -12.024414,6.971685 c -6.613429,3.834426 -12.100055,7.018547 -12.192502,7.075822 -0.142737,0.08843 -0.178559,2.193236 -0.237519,13.956429 l -0.06943,13.852294 -4.445715,2.58315 c -2.445143,1.42073 -4.464876,2.64063 -4.488297,2.71089 -0.02342,0.0703 2.164199,1.41308 4.861374,2.98403 4.345624,2.53109 15.573291,9.04004 15.60405,9.04605 0.0064,10e-4 5.991936,-3.46507 13.301078,-7.70296 z m -59.639484,6.0209 c 3.985464,-2.27566 16.666123,-9.61876 17.274127,-10.00307 l 0.518603,-0.3278 -0.637363,-0.38201 c -0.35055,-0.21011 -2.414304,-1.41397 -4.586121,-2.67525 l -3.948759,-2.29323 -0.0161,-10.467135 C 49.18649,91.225977 49.146411,85.026499 49.10628,83.206284 L 49.033314,79.896802 47.07378,78.75918 C 45.996036,78.133488 40.491526,74.939542 34.841535,71.661523 l -10.27271,-5.960034 -0.05938,-5.704691 c -0.03266,-3.13758 -0.09287,-5.738137 -0.133807,-5.779017 -0.07307,-0.07296 -2.545368,1.33712 -14.4142501,8.221207 l -5.9379827,3.444098 v 19.692884 19.69288 l 12.4103838,7.19359 c 6.825711,3.95647 14.361011,8.32445 16.745111,9.70664 2.3841,1.38217 4.410204,2.51639 4.502454,2.52048 0.09225,0.004 1.401574,-0.69708 2.909612,-1.55816 z m 26.968854,-15.60747 3.919068,-2.2821 0.07416,-3.95947 c 0.04079,-2.177706 0.04537,-7.368732 0.01018,-11.535612 -0.0528,-6.251953 -0.09171,-7.565505 -0.222617,-7.515273 -0.08725,0.03348 -2.186736,1.23839 -4.665531,2.677577 l -4.506902,2.616705 -1.698284,-0.994165 c -3.948218,-2.31126 -7.112056,-4.113035 -7.222313,-4.113035 -0.07788,0 -0.10791,3.897203 -0.08796,11.415973 l 0.03028,11.41598 4.568777,2.65075 4.568778,2.65076 0.656647,-0.373 c 0.361157,-0.20514 2.420228,-1.39994 4.575717,-2.65509 z M 66.705585,80.38619 c 2.494681,-1.444391 4.59603,-2.686914 4.669662,-2.761162 0.09352,-0.09431 0.156108,-1.871154 0.20763,-5.89484 l 0.07375,-5.759843 -1.157706,-0.661087 c -0.63674,-0.363597 -2.717441,-1.558879 -4.62378,-2.656184 l -3.466074,-1.995098 -0.987413,0.525598 c -0.543079,0.289079 -2.630751,1.475474 -4.639274,2.636432 l -3.651859,2.110835 v 5.914077 5.914078 l 4.483177,2.614594 c 2.465747,1.438028 4.499585,2.620034 4.51964,2.62668 0.02005,0.0067 2.077566,-1.16969 4.572247,-2.61408 z M 49.133547,74.135071 c 0.04217,-0.636849 0.07695,-3.247118 0.07729,-5.8006 l 6.14e-4,-4.642694 2.642403,-1.527735 c 4.2756,-2.471987 6.383424,-3.736126 6.381968,-3.8275 -7.13e-4,-0.04707 -1.002785,-0.671034 -2.226744,-1.386594 C 52.40291,54.84168 44.047231,49.988964 40.765371,48.096879 l -3.042517,-1.754097 -4.67686,2.709485 -4.67686,2.709485 -0.03079,5.800448 -0.03079,5.800449 8.343969,4.837732 c 4.589183,2.660753 9.199038,5.339717 10.244123,5.953254 1.045085,0.613538 1.958897,1.120881 2.030693,1.127432 0.08208,0.0075 0.159002,-0.417934 0.207214,-1.145996 z m 36.774639,-4.88072 10.035191,-5.821992 0.03077,-5.920823 0.03077,-5.920822 -4.477072,-2.595709 c -4.061551,-2.3548 -4.50632,-2.584671 -4.792196,-2.476765 -0.44755,0.168932 -16.950702,9.732192 -19.263486,11.162823 -0.574353,0.355279 -1.016814,0.690399 -0.983248,0.74471 0.03357,0.05431 2.065191,1.260683 4.514721,2.680825 l 4.453693,2.582077 2.37e-4,2.981609 c 4.75e-4,4.593016 0.13335,8.524488 0.286056,8.460366 0.07117,-0.02987 4.645201,-2.674204 10.164556,-5.876299 z M 70.623249,51.284224 c 4.520306,-2.623329 10.00904,-5.81049 12.197186,-7.082581 2.188147,-1.27209 4.031891,-2.314397 4.097208,-2.316238 0.06532,-0.0018 2.113764,1.154529 4.552104,2.569713 2.438339,1.415184 4.455769,2.573062 4.483177,2.573062 0.02741,0 0.04983,-5.144282 0.04983,-11.431739 0,-10.759128 -0.01223,-11.439318 -0.207829,-11.560549 C 95.465329,23.831611 78.784918,14.141321 70.095376,9.1060369 l -7.915292,-4.5866342 -16.952626,9.8237713 -16.952625,9.823773 0.07903,11.452602 c 0.04347,6.298932 0.09805,11.471619 0.121293,11.494861 0.02324,0.02324 2.093128,-1.143621 4.599744,-2.593031 2.506618,-1.449411 4.610927,-2.634568 4.676245,-2.633685 0.06532,8.32e-4 5.596548,3.185111 12.291624,7.076058 6.695075,3.890946 12.215361,7.077984 12.267302,7.082306 0.05194,0.0043 3.79287,-2.138504 8.313176,-4.761834 z"
           id="path877"
           transform="matrix(7.5000002,0,0,-7.5000002,0,970)" /></g></g></g></svg>
