<svg fill="white" id="competition" xmlns="http://www.w3.org/2000/svg" width="57.063" height="37.881" viewBox="0 0 57.063 37.881">
  <g id="Group_206" data-name="Group 206" transform="translate(0 0)">
    <path id="Path_4036" data-name="Path 4036" d="M55.392,132.723H36.823a1.938,1.938,0,0,0-1.672,2.123v4.242h-5v-8.581a1.938,1.938,0,0,0-1.672-2.123H21.912V124.3a1.938,1.938,0,0,0-1.672-2.123H1.672A1.938,1.938,0,0,0,0,124.3v12.541a1.938,1.938,0,0,0,1.672,2.123H20.241a1.938,1.938,0,0,0,1.672-2.123v-4.215h4.9v16.707h-4.9V145.4a1.938,1.938,0,0,0-1.672-2.123H1.672A1.938,1.938,0,0,0,0,145.4v12.541a1.938,1.938,0,0,0,1.672,2.123H20.241a1.938,1.938,0,0,0,1.672-2.123v-4.355h6.571a1.938,1.938,0,0,0,1.672-2.123v-8.126h5v4.052a1.939,1.939,0,0,0,1.672,2.123H55.392a1.939,1.939,0,0,0,1.672-2.123V134.846A1.938,1.938,0,0,0,55.392,132.723Z" transform="translate(0 -122.181)"/>
  </g>
</svg>
