<svg xmlns="http://www.w3.org/2000/svg" width="20" height="15.542" viewBox="0 0 20 15.542">
  <path id="Path_294" data-name="Path 294" d="M21.25,4.25h-16a2,2,0,0,0-2,1.974V17.818a2,2,0,0,0,2,1.974h16a2,2,0,0,0,2-1.974V6.224a2,2,0,0,0-2-1.974Zm-16,1.692h16a.284.284,0,0,1,.286.282V7.961L13.25,12.043,4.964,7.961V6.224A.284.284,0,0,1,5.25,5.942Zm16,12.159h-16a.284.284,0,0,1-.286-.282V9.844l7.9,3.9a.879.879,0,0,0,.777,0l7.9-3.9v7.974A.284.284,0,0,1,21.25,18.1Z" transform="translate(-3.25 -4.25)" fill="#fff"/>
</svg>
