<svg fill="white" id="help_black_24dp" xmlns="http://www.w3.org/2000/svg" width="57.518" height="57.519" viewBox="0 0 57.518 57.519">
  <path id="Path_4054" data-name="Path 4054" d="M0,0H57.518V57.519H0Z" fill="none"/>
  <path id="Path_4055" data-name="Path 4055" d="M25.966,2A23.966,23.966,0,1,0,49.932,25.966,23.975,23.975,0,0,0,25.966,2Zm2.4,40.743H23.569V37.95h4.793Zm4.961-18.574-2.157,2.2a8.159,8.159,0,0,0-2.8,6.782H23.569v-1.2a9.647,9.647,0,0,1,2.8-6.782l2.972-3.02a4.686,4.686,0,0,0,1.414-3.379,4.793,4.793,0,1,0-9.586,0H16.38a9.586,9.586,0,1,1,19.173,0A7.626,7.626,0,0,1,33.324,24.169Z" transform="translate(2.793 2.793)"/>
</svg>
