<svg fill="white" id="idea" xmlns="http://www.w3.org/2000/svg" width="58.718" height="58.02" viewBox="0 0 58.718 58.02">
  <path id="Path_4027" data-name="Path 4027" d="M84.16,68.95h-.05a17.244,17.244,0,0,0-12.131,4.935A16.991,16.991,0,0,0,73.007,99c.6.484,1.6,2.025,1.6,6.914v7.866a1.084,1.084,0,0,0,1.084,1.084H92.581a1.084,1.084,0,0,0,1.084-1.084v-7.866c0-.009,0-.017,0-.025s0-.017,0-.025c0-4.933,1-6.481,1.6-6.965a16.327,16.327,0,0,0,6.078-12.928A16.807,16.807,0,0,0,96.29,73.885,17.244,17.244,0,0,0,84.16,68.95ZM91.5,112.694H76.772V107H87.029a1.073,1.073,0,0,0,.146.011,1.045,1.045,0,0,0,.146-.011H91.5Zm-9.482-23h4.26c-.1,4.1-.171,11.074-.183,15.132H82.2C82.185,101.07,82.119,93.906,82.015,89.7ZM93.9,97.213c-1.487,1.206-2.269,3.7-2.383,7.615H88.261c.012-4.448.091-11.278.183-15.132h2.318a3.723,3.723,0,0,0,3.584-3.757,3.677,3.677,0,0,0-3.584-3.671c-1.782,0-3.86,1.116-4.348,4.248-.024.155-.047.507-.069,1.012h-4.4c-.023-.526-.047-.893-.072-1.055-.321-2.075-1.631-4.291-4.347-4.291a3.762,3.762,0,0,0,0,7.515h2.318c.092,3.872.171,10.695.182,15.132H76.753c-.121-3.847-.9-6.313-2.38-7.514A14.489,14.489,0,0,1,69.1,85.968a14.654,14.654,0,0,1,4.4-10.536,15.269,15.269,0,0,1,21.272,0,14.654,14.654,0,0,1,4.4,10.536A14.2,14.2,0,0,1,93.9,97.213Zm-5.386-9.685c.015-.344.031-.577.046-.68.327-2.1,1.522-2.413,2.205-2.413a1.5,1.5,0,0,1,1.416,1.5,1.57,1.57,0,0,1-1.416,1.589H88.511Zm-8.73,0H77.528a1.6,1.6,0,0,1,0-3.179c1.587,0,2.062,1.538,2.2,2.455C79.748,86.911,79.764,87.16,79.78,87.528Z" transform="translate(-54.836 -56.842)"/>
  <path id="Path_4028" data-name="Path 4028" d="M201.677,13.068A1.083,1.083,0,0,0,203.1,12.5l3.732-8.708a1.084,1.084,0,1,0-1.993-.854l-3.732,8.708A1.084,1.084,0,0,0,201.677,13.068Z" transform="translate(-164.702 -2.217)"/>
  <path id="Path_4029" data-name="Path 4029" d="M95.773,12.216a1.084,1.084,0,0,0,2.013-.805l-3.519-8.8a1.084,1.084,0,0,0-2.013.805Z" transform="translate(-75.523 -1.932)"/>
  <path id="Path_4030" data-name="Path 4030" d="M1.016,95.325l8.707,3.734a1.084,1.084,0,0,0,.855-1.993L1.871,93.332a1.084,1.084,0,1,0-.855,1.993Z" transform="translate(-0.294 -76.747)"/>
  <path id="Path_4031" data-name="Path 4031" d="M9.478,203.346l-8.8,3.521a1.084,1.084,0,1,0,.805,2.013l8.8-3.521a1.084,1.084,0,1,0-.805-2.013Z" transform="translate(0 -166.893)"/>
  <path id="Path_4032" data-name="Path 4032" d="M274.652,206.761l-8.71-3.732a1.084,1.084,0,0,0-.854,1.993l8.71,3.732a1.084,1.084,0,1,0,.854-1.993Z" transform="translate(-216.656 -166.625)"/>
  <path id="Path_4033" data-name="Path 4033" d="M265.385,99.783a1.081,1.081,0,0,0,.4-.078l8.8-3.521a1.084,1.084,0,0,0-.806-2.013l-8.8,3.521a1.084,1.084,0,0,0,.4,2.091Z" transform="translate(-216.549 -77.442)"/>
</svg>
