<svg fill="white"  id="user" xmlns="http://www.w3.org/2000/svg" width="48.352" height="45.233" viewBox="0 0 48.352 45.233">
  <path id="Path_271" data-name="Path 271" d="M19.948,28.146a11.7,11.7,0,1,1,11.7-11.7,11.7,11.7,0,0,1-11.7,11.7Zm0-18.717a7.019,7.019,0,1,0,7.019,7.019A7.019,7.019,0,0,0,19.948,9.429Z" transform="translate(4.228 -4.75)"/>
  <path id="Path_272" data-name="Path 272" d="M50.262,30.907a2.371,2.371,0,0,1-2.34-2.34c0-6.083-3.307-10.138-19.5-10.138s-19.5,4.055-19.5,10.138a2.34,2.34,0,0,1-4.679,0C4.25,13.75,21.189,13.75,28.426,13.75S52.6,13.75,52.6,28.568a2.371,2.371,0,0,1-2.34,2.34Z" transform="translate(-4.25 14.325)"/>
</svg>
