<svg fill="white" aria-hidden="true" style="position: absolute; width: 0; height: 0; overflow: hidden;" version="1.1" xmlns="http://www.w3.org/2000/svg" xmlns:xlink="http://www.w3.org/1999/xlink">
<defs>
<symbol id="icon-clipboard" viewBox="0 0 32 32">
<path d="M25.337 4.175h-2.883v-1.29c0-0.417-0.455-0.607-0.873-0.607h-2.237c-0.474-1.34-1.73-2.282-3.206-2.282-0.060 0-0.119 0.002-0.178 0.005l0.008-0c-0.038-0.002-0.084-0.002-0.129-0.002-1.485 0-2.751 0.938-3.238 2.254l-0.008 0.024h-2.202c-0.417 0-0.834 0.19-0.834 0.607v1.292h-2.882c-1.713 0.019-3.103 1.37-3.186 3.065l-0 0.007v21.732c0 1.669 1.517 2.882 3.186 2.882h18.66c1.669 0 3.186-1.214 3.186-2.882v-21.732c-0.083-1.702-1.474-3.053-3.184-3.072l-0.002-0zM11.077 3.795h2.086c0.366-0.045 0.656-0.322 0.721-0.677l0.001-0.005c0.228-0.966 1.070-1.679 2.083-1.706l0.003-0c1.005 0.033 1.833 0.746 2.042 1.692l0.003 0.014c0.069 0.371 0.376 0.652 0.753 0.682l0.003 0h2.162v3.034h-9.857zM27.006 28.978c0 0.834-0.834 1.366-1.669 1.366h-18.66c-0.834 0-1.669-0.531-1.669-1.366v-21.732c0.079-0.865 0.793-1.539 1.667-1.555l0.002-0h2.882v1.934c0.039 0.407 0.379 0.722 0.793 0.722 0.014 0 0.029-0 0.043-0.001l-0.002 0h11.188c0.014 0.001 0.030 0.001 0.046 0.001 0.421 0 0.77-0.312 0.826-0.718l0-0.004v-1.934h2.882c0.876 0.017 1.589 0.691 1.668 1.548l0 0.007v21.732z"></path>
<path d="M13.086 16.955c-0.138-0.146-0.334-0.237-0.55-0.237-0.198 0-0.378 0.076-0.512 0.2l0.001-0-2.427 2.313-1.024-1.062c-0.138-0.146-0.334-0.237-0.55-0.237-0.198 0-0.378 0.076-0.512 0.2l0.001-0c-0.136 0.143-0.22 0.336-0.22 0.55s0.084 0.407 0.221 0.55l-0-0 1.555 1.593c0.126 0.14 0.307 0.228 0.509 0.228 0.008 0 0.016-0 0.023-0l-0.001 0c0.208-0.003 0.396-0.089 0.531-0.227l0-0 2.959-2.807c0.144-0.132 0.233-0.321 0.233-0.531 0-0.188-0.072-0.36-0.19-0.488l0 0q-0.022-0.023-0.045-0.044z"></path>
<path d="M23.971 18.586h-8.723c-0.419 0-0.758 0.34-0.758 0.758s0.34 0.758 0.758 0.758h8.723c0.419 0 0.758-0.34 0.758-0.758s-0.34-0.758-0.758-0.758v0z"></path>
<path d="M13.086 10.888c-0.138-0.146-0.334-0.237-0.55-0.237-0.198 0-0.378 0.076-0.512 0.2l0.001-0-2.427 2.313-1.024-1.062c-0.138-0.146-0.334-0.237-0.55-0.237-0.198 0-0.378 0.076-0.512 0.2l0.001-0c-0.136 0.143-0.22 0.336-0.22 0.55s0.084 0.407 0.221 0.55l-0-0 1.555 1.593c0.126 0.14 0.307 0.228 0.509 0.228 0.008 0 0.016-0 0.023-0l-0.001 0c0.208-0.003 0.396-0.089 0.531-0.227l0-0 2.959-2.807c0.144-0.132 0.233-0.321 0.233-0.531 0-0.188-0.072-0.36-0.19-0.488l0 0.001c-0.014-0.015-0.029-0.030-0.044-0.043l-0.001-0.001z"></path>
<path d="M23.971 12.518h-8.723c-0.419 0-0.758 0.34-0.758 0.758s0.34 0.758 0.758 0.758v0h8.723c0.419 0 0.758-0.34 0.758-0.758s-0.34-0.758-0.758-0.758v0z"></path>
<path d="M13.086 23.024c-0.138-0.146-0.334-0.237-0.55-0.237-0.198 0-0.378 0.076-0.512 0.2l0.001-0-2.427 2.313-1.024-1.062c-0.138-0.146-0.334-0.237-0.55-0.237-0.198 0-0.378 0.076-0.512 0.2l0.001-0c-0.136 0.143-0.22 0.336-0.22 0.55s0.084 0.407 0.221 0.55l-0-0 1.555 1.593c0.126 0.14 0.307 0.228 0.509 0.228 0.008 0 0.016-0 0.023-0l-0.001 0c0.208-0.003 0.396-0.090 0.531-0.227l0-0 2.959-2.807c0.144-0.132 0.233-0.321 0.233-0.531 0-0.188-0.072-0.36-0.19-0.488l0 0q-0.022-0.023-0.045-0.044z"></path>
<path d="M23.971 24.655h-8.723c-0.419 0-0.759 0.34-0.759 0.759s0.34 0.759 0.759 0.759v0h8.723c0.419 0 0.759-0.34 0.759-0.759s-0.34-0.759-0.759-0.759v0z"></path>
</symbol>
<symbol id="icon-competition" viewBox="0 0 32 32">
<path d="M31.097 11.252h-10.425c-0.536 0.073-0.945 0.528-0.945 1.079 0 0.040 0.002 0.079 0.006 0.118l-0-0.005v2.381h-2.807v-4.817c0.004-0.034 0.006-0.073 0.006-0.113 0-0.55-0.409-1.005-0.939-1.078l-0.006-0.001h-3.687v-2.293c0.004-0.034 0.006-0.073 0.006-0.113 0-0.55-0.409-1.005-0.939-1.078l-0.006-0.001h-10.424c-0.536 0.073-0.945 0.528-0.945 1.079 0 0.040 0.002 0.079 0.006 0.118l-0-0.005v7.041c-0.004 0.034-0.006 0.073-0.006 0.113 0 0.55 0.409 1.005 0.939 1.078l0.006 0.001h10.425c0.536-0.073 0.945-0.528 0.945-1.079 0-0.040-0.002-0.079-0.006-0.118l0 0.005v-2.366h2.751v9.379h-2.751v-2.208c0.004-0.034 0.006-0.073 0.006-0.113 0-0.55-0.409-1.005-0.939-1.078l-0.006-0.001h-10.425c-0.536 0.073-0.945 0.528-0.945 1.078 0 0.040 0.002 0.079 0.006 0.118l-0-0.005v7.041c-0.004 0.034-0.006 0.073-0.006 0.113 0 0.55 0.409 1.005 0.939 1.078l0.006 0.001h10.425c0.536-0.073 0.945-0.528 0.945-1.078 0-0.040-0.002-0.079-0.006-0.118l0 0.005v-2.445h3.689c0.536-0.073 0.945-0.528 0.945-1.079 0-0.040-0.002-0.079-0.006-0.118l0 0.005v-4.562h2.807v2.275c-0.004 0.034-0.006 0.073-0.006 0.113 0 0.55 0.409 1.005 0.939 1.078l0.006 0.001h10.422c0.536-0.074 0.945-0.529 0.945-1.079 0-0.040-0.002-0.079-0.006-0.118l0 0.005v-7.042c0.004-0.034 0.006-0.073 0.006-0.113 0-0.55-0.409-1.005-0.939-1.078l-0.006-0.001z"></path>
</symbol>
<symbol id="icon-dashboard_white_24dp" viewBox="0 0 32 32">
<path d="M4 17.333h10.666v-13.333h-10.666zM4 28h10.666v-8h-10.666zM17.333 28h10.666v-13.333h-10.666zM17.333 4v8h10.666v-8z"></path>
</symbol>
<symbol id="icon-data" viewBox="0 0 32 32">
<path d="M20.266 16.533h7.542c0.245 0.927 1.077 1.6 2.066 1.6 1.178 0 2.133-0.955 2.133-2.133s-0.955-2.133-2.133-2.133c-0.989 0-1.82 0.673-2.062 1.585l-0.003 0.015h-7.542v-5.333h2.665c0.884 0 1.6-0.716 1.6-1.6v0-4.8c0-0.293 0.238-0.531 0.531-0.531v0h2.742c0.245 0.927 1.077 1.6 2.066 1.6 1.178 0 2.133-0.955 2.133-2.133s-0.955-2.133-2.133-2.133c-0.989 0-1.82 0.673-2.062 1.585l-0.003 0.015h-2.737c-0.884 0-1.6 0.716-1.6 1.6v0 4.8c0 0.293-0.238 0.531-0.531 0.531v0h-2.669v-4.799c0-2.433-4.356-4.267-10.133-4.267s-10.133 1.832-10.133 4.267v23.462c0 2.433 4.356 4.267 10.133 4.267s10.133-1.831 10.133-4.267v-2.664h2.665c0.293 0 0.531 0.238 0.531 0.531v0 3.2c0 0.884 0.716 1.6 1.6 1.6v0h2.742c0.245 0.927 1.077 1.6 2.066 1.6 1.178 0 2.133-0.955 2.133-2.133s-0.955-2.133-2.133-2.133c-0.989 0-1.82 0.673-2.062 1.585l-0.003 0.015h-2.737c-0.293 0-0.531-0.238-0.531-0.531v0-3.2c0 0 0 0 0 0 0-0.884-0.716-1.6-1.6-1.6-0.002 0-0.003 0-0.005 0h-2.664zM29.866 14.933c0.589 0 1.066 0.477 1.066 1.066s-0.477 1.066-1.066 1.066c-0.589 0-1.066-0.477-1.066-1.066v0c0-0.589 0.478-1.066 1.066-1.066h0zM29.866 1.6c0.589 0 1.066 0.477 1.066 1.066s-0.477 1.066-1.066 1.066c-0.589 0-1.066-0.477-1.066-1.066v0c0-0.589 0.478-1.066 1.066-1.066h0zM29.866 28.8c0.589 0 1.066 0.477 1.066 1.066s-0.477 1.066-1.066 1.066c-0.589 0-1.066-0.477-1.066-1.066v0c0-0.589 0.477-1.067 1.066-1.067h0zM10.133 1.066c5.343 0 9.067 1.686 9.067 3.2s-3.723 3.2-9.067 3.2-9.067-1.686-9.067-3.198 3.723-3.202 9.067-3.202zM1.066 6.226c1.631 1.392 4.99 2.307 9.067 2.307s7.437-0.915 9.067-2.307v6.041c0 1.514-3.723 3.2-9.067 3.2s-9.067-1.686-9.067-3.2zM10.133 30.933c-5.343 0-9.067-1.686-9.067-3.2v-6.040c1.631 1.392 4.99 2.307 9.067 2.307s7.437-0.915 9.067-2.307v6.037c0 1.517-3.724 3.202-9.067 3.202zM10.133 22.933c-5.343 0-9.067-1.686-9.067-3.2v-5.507c1.631 1.392 4.99 2.307 9.067 2.307s7.437-0.915 9.067-2.307v5.507c0 1.514-3.724 3.2-9.067 3.2z"></path>
<path d="M29.333 2.133h1.066v1.066h-1.066z"></path>
<path d="M29.333 15.466h1.066v1.066h-1.066z"></path>
<path d="M29.333 29.333h1.066v1.067h-1.066z"></path>
</symbol>
<symbol id="icon-external-link" viewBox="0 0 32 32">
<path d="M26.971 32h-21.943c-2.777 0-5.028-2.251-5.028-5.028v-21.943c0-2.777 2.251-5.028 5.028-5.028v0h10.974c0.758 0 1.373 0.615 1.373 1.373s-0.615 1.373-1.373 1.373v0h-10.974c-1.261 0-2.284 1.022-2.285 2.283v21.943c0 1.262 1.023 2.286 2.286 2.286h21.942c1.262 0 2.286-1.023 2.286-2.286v0-10.968c0-0.758 0.615-1.373 1.373-1.373s1.373 0.615 1.373 1.373v0 10.968c0 2.777-2.251 5.028-5.028 5.028v0z"></path>
<path d="M30.628 10.057c-0.754-0.010-1.363-0.618-1.373-1.372v-5.942h-5.942c-0.758 0-1.373-0.615-1.373-1.373s0.615-1.373 1.373-1.373v0h7.314c0.754 0.010 1.363 0.618 1.373 1.372v7.316c-0.010 0.754-0.618 1.363-1.372 1.373h-0.001z"></path>
<path d="M18.743 14.628c-0.366-0.029-0.688-0.199-0.913-0.456l-0.001-0.002c-0.216-0.242-0.349-0.563-0.349-0.914s0.132-0.673 0.35-0.916l-0.001 0.001 11.886-11.886c0.252-0.281 0.617-0.456 1.022-0.456 0.758 0 1.373 0.615 1.373 1.373 0 0.405-0.176 0.77-0.455 1.021l-0.001 0.001-11.993 11.776c-0.227 0.258-0.549 0.429-0.91 0.457l-0.005 0z"></path>
</symbol>
<symbol id="icon-help_black_24dp" viewBox="0 0 32 32">
<path d="M16 2.667c-7.364 0-13.333 5.969-13.333 13.333s5.969 13.333 13.333 13.333c7.364 0 13.333-5.969 13.333-13.333v0c-0.003-7.363-5.971-13.33-13.333-13.333h-0zM17.335 25.333h-2.669v-2.667h2.667zM20.095 15l-1.2 1.224c-0.964 0.837-1.57 2.065-1.57 3.434 0 0.119 0.005 0.238 0.014 0.355l-0.001-0.016h-2.671v-0.668c0.002-1.472 0.597-2.805 1.558-3.773l-0 0 1.653-1.68c0.486-0.474 0.787-1.135 0.787-1.866 0-0.005 0-0.010-0-0.014v0.001c0-1.473-1.194-2.667-2.667-2.667s-2.667 1.194-2.667 2.667v0h-2.664c0-2.946 2.388-5.333 5.333-5.333s5.333 2.388 5.333 5.333v0c0 0.002 0 0.004 0 0.006 0 1.17-0.474 2.23-1.24 2.998l0-0z"></path>
</symbol>
<symbol id="icon-idea" viewBox="0 0 32 32">
<path d="M15.905 6.838h-0.027c-0.009-0-0.019-0-0.029-0-2.551 0-4.864 1.022-6.552 2.678l0.001-0.001c-1.692 1.672-2.74 3.992-2.74 6.557 0 2.83 1.276 5.363 3.284 7.053l0.014 0.011c0.325 0.262 0.868 1.098 0.868 3.75v4.266c0 0.325 0.263 0.588 0.588 0.588v0h9.161c0.325 0 0.588-0.263 0.588-0.588v0-4.266c0-0.005 0-0.009 0-0.014s0-0.009 0-0.014c0-2.676 0.542-3.515 0.868-3.778 2.018-1.637 3.297-4.116 3.297-6.894 0-0.041-0-0.083-0.001-0.124l0 0.006c0-0.012 0-0.026 0-0.039 0-2.552-1.049-4.859-2.739-6.514l-0.002-0.002c-1.686-1.655-3.999-2.677-6.55-2.677-0.010 0-0.020 0-0.030 0h0.002zM19.886 30.564h-7.988v-3.088h5.563c0.024 0.004 0.051 0.006 0.079 0.006h0c0.028-0 0.055-0.002 0.082-0.006l-0.003 0h2.267zM14.743 18.089h2.311c-0.054 2.224-0.093 6.006-0.099 8.207h-2.113c-0.008-2.037-0.044-5.923-0.1-8.204zM21.187 22.167c-0.806 0.654-1.231 2.007-1.292 4.13h-1.766c0.006-2.412 0.049-6.117 0.099-8.207h1.257c1.082-0.042 1.944-0.929 1.944-2.018 0-0.007-0-0.014-0-0.021v0.001c-0.001-1.083-0.865-1.963-1.941-1.991l-0.003-0c-0.966 0-2.094 0.605-2.358 2.304-0.013 0.084-0.026 0.275-0.037 0.549h-2.386c-0.012-0.285-0.025-0.484-0.039-0.572-0.174-1.125-0.885-2.327-2.358-2.327-1.083 0.055-1.941 0.946-1.941 2.038s0.857 1.983 1.936 2.038l0.005 0h1.257c0.050 2.1 0.093 5.801 0.099 8.207h-1.775c-0.066-2.087-0.488-3.424-1.291-4.075-1.752-1.452-2.86-3.629-2.86-6.064 0-0.032 0-0.063 0.001-0.095l-0 0.005c-0-0.011-0-0.024-0-0.036 0-2.224 0.913-4.234 2.385-5.677l0.001-0.001c1.489-1.447 3.525-2.34 5.769-2.34s4.279 0.892 5.771 2.342l-0.002-0.002c1.473 1.444 2.387 3.454 2.387 5.678 0 0.013-0 0.026-0 0.038v-0.002c0 0.033 0.001 0.071 0.001 0.109 0 2.413-1.109 4.566-2.846 5.979l-0.014 0.011zM18.266 16.914c0.008-0.187 0.017-0.313 0.025-0.369 0.177-1.139 0.826-1.309 1.196-1.309 0.429 0.025 0.768 0.379 0.768 0.812 0 0 0 0.001 0 0.001v-0c0 0.004 0 0.009 0 0.014 0 0.441-0.335 0.804-0.765 0.847l-0.004 0h-1.223zM13.531 16.914h-1.224c-0.435-0.052-0.769-0.418-0.769-0.862s0.334-0.811 0.764-0.862l0.004-0c0.861 0 1.118 0.834 1.193 1.332 0.011 0.058 0.020 0.193 0.028 0.393z"></path>
<path d="M20.054 6.156c0.068 0.030 0.148 0.048 0.232 0.048 0.241 0 0.448-0.145 0.538-0.352l0.001-0.004 2.024-4.723c0.030-0.068 0.048-0.148 0.048-0.232 0-0.325-0.263-0.588-0.588-0.588-0.241 0-0.448 0.145-0.539 0.353l-0.001 0.004-2.024 4.723c-0.030 0.068-0.047 0.147-0.047 0.231 0 0.241 0.145 0.448 0.353 0.539l0.004 0.001z"></path>
<path d="M10.983 5.849c0.089 0.218 0.3 0.368 0.545 0.368 0.325 0 0.588-0.263 0.588-0.588 0-0.078-0.015-0.153-0.043-0.221l0.001 0.004-1.909-4.773c-0.089-0.218-0.3-0.368-0.545-0.368-0.325 0-0.588 0.263-0.588 0.588 0 0.078 0.015 0.153 0.043 0.221l-0.001-0.004z"></path>
<path d="M0.392 10.347l4.722 2.025c0.068 0.030 0.148 0.048 0.232 0.048 0.325 0 0.588-0.263 0.588-0.588 0-0.241-0.145-0.448-0.352-0.539l-0.004-0.001-4.722-2.025c-0.068-0.030-0.148-0.048-0.232-0.048-0.325 0-0.588 0.263-0.588 0.588 0 0.241 0.145 0.448 0.352 0.539l0.004 0.001z"></path>
<path d="M5.141 20.042l-4.773 1.91c-0.219 0.089-0.371 0.3-0.371 0.546 0 0.325 0.263 0.588 0.588 0.588 0.079 0 0.155-0.016 0.224-0.044l-0.004 0.001 4.773-1.91c0.219-0.089 0.371-0.3 0.371-0.546 0-0.325-0.263-0.588-0.588-0.588-0.079 0-0.155 0.016-0.224 0.044l0.004-0.001z"></path>
<path d="M31.455 22.040l-4.724-2.024c-0.068-0.030-0.148-0.048-0.232-0.048-0.325 0-0.588 0.263-0.588 0.588 0 0.241 0.145 0.448 0.353 0.539l0.004 0.001 4.724 2.024c0.068 0.030 0.148 0.048 0.232 0.048 0.325 0 0.588-0.263 0.588-0.588 0-0.241-0.145-0.448-0.353-0.539l-0.004-0.001z"></path>
<path d="M26.487 12.388c0.078-0 0.153-0.016 0.221-0.044l-0.004 0.001 4.773-1.91c0.218-0.089 0.369-0.3 0.369-0.546 0-0.325-0.263-0.588-0.588-0.588-0.079 0-0.154 0.015-0.223 0.044l0.004-0.001-4.773 1.91c-0.219 0.089-0.37 0.3-0.37 0.546 0 0.324 0.263 0.588 0.587 0.588h0z"></path>
</symbol>
<symbol id="icon-outline" viewBox="0 0 32 32">
<path d="M15.985 27.623c6.426 0 11.635-5.209 11.635-11.635s-5.209-11.635-11.635-11.635c-6.426 0-11.635 5.209-11.635 11.635v0c0.008 6.423 5.212 11.627 11.634 11.635h0.001zM15.985 5.517c5.783 0 10.471 4.688 10.471 10.471s-4.688 10.471-10.471 10.471c-5.783 0-10.471-4.688-10.471-10.471v0c0.007-5.78 4.691-10.465 10.471-10.471h0.001z"></path>
<path d="M15.403 17.634v3.009c0 0.321 0.26 0.582 0.582 0.582s0.582-0.26 0.582-0.582v-3.009c0.684-0.246 1.164-0.89 1.164-1.645 0-0.273-0.063-0.532-0.175-0.763l0.005 0.010 1.745-1.745c0.105-0.105 0.171-0.251 0.171-0.412 0-0.322-0.261-0.582-0.582-0.582-0.161 0-0.306 0.065-0.412 0.171l-1.745 1.745c-0.222-0.11-0.483-0.174-0.76-0.174-0.964 0-1.745 0.781-1.745 1.745 0 0.758 0.484 1.404 1.159 1.645l0.012 0.004zM15.985 15.407c0.321 0 0.582 0.26 0.582 0.582s-0.26 0.582-0.582 0.582c-0.321 0-0.582-0.26-0.582-0.582v0c0-0.321 0.261-0.581 0.582-0.581v0z"></path>
<path d="M7.906 20.608c0.006 0.012 0.011 0.024 0.018 0.035s0.014 0.021 0.021 0.031c0.824 1.391 1.952 2.521 3.298 3.324l0.043 0.024c0.015 0.010 0.029 0.020 0.044 0.029s0.016 0.008 0.024 0.012c1.329 0.777 2.926 1.236 4.63 1.236s3.301-0.459 4.674-1.259l-0.044 0.024c0.008-0.004 0.016-0.007 0.024-0.012s0.030-0.019 0.044-0.029c1.39-0.826 2.518-1.956 3.318-3.304l0.024-0.043c0.007-0.011 0.015-0.020 0.021-0.031s0.012-0.024 0.018-0.035c0.773-1.326 1.229-2.919 1.229-4.619s-0.456-3.293-1.253-4.663l0.024 0.044c-0.006-0.012-0.011-0.024-0.018-0.035s-0.019-0.031-0.029-0.045c-0.824-1.385-1.949-2.51-3.291-3.309l-0.043-0.024c-0.015-0.010-0.029-0.020-0.044-0.029s-0.023-0.012-0.035-0.018c-1.326-0.773-2.92-1.23-4.62-1.23s-3.293 0.457-4.664 1.254l0.044-0.024c-0.011 0.006-0.023 0.011-0.034 0.018s-0.030 0.019-0.044 0.029c-1.385 0.823-2.51 1.949-3.31 3.29l-0.024 0.043c-0.010 0.015-0.020 0.029-0.029 0.045s-0.012 0.024-0.018 0.035c-0.773 1.326-1.229 2.919-1.229 4.619s0.456 3.293 1.253 4.663l-0.024-0.044zM8.659 12.433l0.989 0.571c0.083 0.049 0.184 0.078 0.291 0.078 0.321 0 0.582-0.26 0.582-0.582 0-0.214-0.116-0.401-0.288-0.502l-0.003-0.002-0.987-0.57c0.591-0.862 1.314-1.585 2.148-2.158l0.028-0.018 0.57 0.987c0.102 0.175 0.29 0.291 0.504 0.291 0.321 0 0.582-0.26 0.582-0.582 0-0.107-0.029-0.207-0.079-0.294l0.002 0.003-0.571-0.989c0.867-0.433 1.879-0.719 2.949-0.796l0.026-0.002v1.143c0 0.321 0.26 0.582 0.582 0.582s0.582-0.26 0.582-0.582v0-1.143c1.096 0.079 2.109 0.365 3.023 0.819l-0.047-0.021-0.571 0.989c-0.049 0.083-0.078 0.184-0.078 0.291 0 0.321 0.26 0.582 0.582 0.582 0.214 0 0.401-0.116 0.502-0.288l0.002-0.003 0.57-0.987c0.862 0.591 1.585 1.314 2.158 2.148l0.018 0.028-0.987 0.57c-0.175 0.102-0.291 0.29-0.291 0.504 0 0.321 0.26 0.582 0.582 0.582 0.107 0 0.207-0.029 0.294-0.079l-0.003 0.002 0.989-0.571c0.433 0.867 0.719 1.879 0.796 2.949l0.002 0.026h-1.143c-0.321 0-0.582 0.26-0.582 0.582s0.26 0.582 0.582 0.582h1.143c-0.079 1.096-0.365 2.109-0.819 3.023l0.021-0.047-0.982-0.575c-0.083-0.049-0.184-0.078-0.291-0.078-0.321 0-0.582 0.26-0.582 0.582 0 0.214 0.116 0.401 0.288 0.502l0.003 0.002 0.987 0.57c-0.591 0.862-1.314 1.585-2.148 2.158l-0.028 0.018-0.57-0.987c-0.102-0.175-0.29-0.291-0.504-0.291-0.321 0-0.582 0.26-0.582 0.582 0 0.107 0.029 0.207 0.079 0.294l-0.002-0.003 0.571 0.989c-0.867 0.433-1.879 0.719-2.949 0.796l-0.026 0.002v-1.136c0-0.321-0.26-0.582-0.582-0.582s-0.582 0.26-0.582 0.582v0 1.143c-1.096-0.079-2.109-0.365-3.023-0.819l0.047 0.021 0.571-0.989c0.049-0.083 0.078-0.184 0.078-0.291 0-0.321-0.26-0.582-0.582-0.582-0.214 0-0.401 0.116-0.502 0.288l-0.002 0.003-0.57 0.987c-0.862-0.591-1.585-1.314-2.158-2.148l-0.018-0.028 0.987-0.57c0.175-0.102 0.291-0.29 0.291-0.504 0-0.321-0.26-0.582-0.582-0.582-0.107 0-0.207 0.029-0.294 0.079l0.003-0.002-0.989 0.571c-0.433-0.867-0.719-1.879-0.796-2.949l-0.002-0.026h1.143c0.321 0 0.582-0.26 0.582-0.582s-0.26-0.582-0.582-0.582h-1.149c0.079-1.096 0.365-2.109 0.819-3.023l-0.021 0.047z"></path>
<path d="M31.883 14.101c-0.982-7.982-7.721-14.102-15.889-14.102-2.868 0-5.559 0.754-7.887 2.075l0.079-0.041c-0.179 0.101-0.298 0.291-0.298 0.508 0 0.321 0.26 0.582 0.582 0.582 0.104 0 0.202-0.027 0.287-0.075l-0.003 0.002c2.089-1.192 4.591-1.895 7.257-1.895 8.197 0 14.842 6.645 14.842 14.842s-6.645 14.842-14.842 14.842c-8.197 0-14.842-6.645-14.842-14.842 0-2.952 0.862-5.704 2.348-8.015l-0.035 0.059 0.118 1c0.036 0.29 0.281 0.513 0.577 0.513 0.321 0 0.582-0.26 0.582-0.582 0-0.024-0.002-0.048-0.004-0.072l0 0.003-0.299-2.498c-0.036-0.29-0.281-0.513-0.578-0.513-0.024 0-0.049 0.002-0.072 0.004l0.003-0-2.498 0.299c-0.29 0.036-0.513 0.281-0.513 0.577 0 0.321 0.26 0.582 0.582 0.582 0.024 0 0.048-0.002 0.072-0.004l-0.003 0 1.183-0.142c-1.65 2.476-2.633 5.52-2.633 8.794 0 8.825 7.145 15.982 15.965 16.001h0.002c0.681-0.001 1.35-0.044 2.008-0.126l-0.079 0.008c7.982-0.979 14.102-7.717 14.102-15.883 0-0.669-0.041-1.329-0.121-1.977l0.008 0.078z"></path>
</symbol>
<symbol id="icon-storage_white_24dp" viewBox="0 0 32 32">
<path d="M2.666 26.667h26.666v-5.331h-26.666zM5.333 22.666h2.664v2.666h-2.664zM2.666 5.333v5.331h26.666v-5.331zM7.997 9.334h-2.664v-2.667h2.664zM2.666 18.667h26.666v-5.331h-26.666zM5.333 14.667h2.664v2.666h-2.664z"></path>
</symbol>
</defs>
</svg>
