<svg fill="#1c80cf" id="clipboard" xmlns="http://www.w3.org/2000/svg" width="43.023" height="54.76" viewBox="0 0 43.023 54.76">
  <g id="Group_205" data-name="Group 205" transform="translate(0 0)">
    <g id="Group_204" data-name="Group 204">
      <path id="Path_4014" data-name="Path 4014" d="M84.585,7.175H79.63V4.958c0-.717-.782-1.043-1.5-1.043H74.285A5.831,5.831,0,0,0,68.484,0a5.932,5.932,0,0,0-5.8,3.911H58.9c-.717,0-1.434.326-1.434,1.043V7.175H52.513a5.541,5.541,0,0,0-5.476,5.28V49.806c0,2.868,2.607,4.954,5.476,4.954H84.585c2.868,0,5.476-2.086,5.476-4.954V12.455A5.541,5.541,0,0,0,84.585,7.175Zm-24.51-.652H63.66A1.434,1.434,0,0,0,64.9,5.35a3.781,3.781,0,0,1,3.585-2.933A3.715,3.715,0,0,1,72,5.35a1.434,1.434,0,0,0,1.3,1.173h3.716v5.215H60.074ZM87.453,49.806c0,1.434-1.434,2.347-2.868,2.347H52.513c-1.434,0-2.868-.913-2.868-2.347V12.455a2.933,2.933,0,0,1,2.868-2.673h4.954v3.324A1.369,1.369,0,0,0,58.9,14.345h19.23a1.434,1.434,0,0,0,1.5-1.239V9.782h4.954a2.934,2.934,0,0,1,2.868,2.673V49.806Z" transform="translate(-47.037 0)"/>
      <path id="Path_4015" data-name="Path 4015" d="M109.342,230.718a1.3,1.3,0,0,0-1.825-.065l-4.172,3.976-1.76-1.825a1.3,1.3,0,0,0-1.825-.065,1.369,1.369,0,0,0,0,1.89l2.673,2.738a1.173,1.173,0,0,0,.913.391,1.3,1.3,0,0,0,.913-.391l5.085-4.824a1.238,1.238,0,0,0,.075-1.75Q109.381,230.754,109.342,230.718Z" transform="translate(-92.85 -201.576)"/>
      <path id="Path_4016" data-name="Path 4016" d="M214.845,256.034H199.852a1.3,1.3,0,1,0,0,2.607h14.993a1.3,1.3,0,0,0,0-2.607Z" transform="translate(-179.644 -224.089)"/>
      <path id="Path_4017" data-name="Path 4017" d="M109.342,147.126a1.3,1.3,0,0,0-1.825-.065l-4.172,3.976-1.76-1.825a1.3,1.3,0,0,0-1.825-.065,1.369,1.369,0,0,0,0,1.89l2.673,2.738a1.173,1.173,0,0,0,.913.391,1.3,1.3,0,0,0,.913-.391l5.085-4.824a1.238,1.238,0,0,0,.075-1.75A1.058,1.058,0,0,0,109.342,147.126Z" transform="translate(-92.85 -128.413)"/>
      <path id="Path_4018" data-name="Path 4018" d="M214.845,172.442H199.852a1.3,1.3,0,1,0,0,2.607h14.993a1.3,1.3,0,1,0,0-2.607Z" transform="translate(-179.644 -150.927)"/>
      <path id="Path_4019" data-name="Path 4019" d="M109.342,314.309a1.3,1.3,0,0,0-1.825-.065l-4.172,3.976-1.76-1.825a1.3,1.3,0,0,0-1.825-.065,1.369,1.369,0,0,0,0,1.89l2.673,2.738a1.173,1.173,0,0,0,.913.391,1.305,1.305,0,0,0,.913-.391l5.085-4.824a1.238,1.238,0,0,0,.075-1.75Q109.381,314.345,109.342,314.309Z" transform="translate(-92.85 -274.737)"/>
      <path id="Path_4020" data-name="Path 4020" d="M214.845,339.626H199.852a1.3,1.3,0,0,0,0,2.608h14.993a1.3,1.3,0,0,0,0-2.608Z" transform="translate(-179.644 -297.251)"/>
    </g>
  </g>
</svg>
