<svg fill="#1c80cf" xmlns="http://www.w3.org/2000/svg" width="60.299" height="60.285" viewBox="0 0 60.299 60.285">
  <g id="data" transform="translate(0 -0.059)">
    <path id="Path_4038" data-name="Path 4038" d="M38.18,31.205H52.389a4.019,4.019,0,1,0,0-2.009H38.18V19.149H43.2a3.014,3.014,0,0,0,3.014-3.014V7.092a1,1,0,0,1,1-1h5.166a4.019,4.019,0,1,0,0-2.009H47.223a3.014,3.014,0,0,0-3.014,3.014v9.043a1,1,0,0,1-1,1H38.18V8.1c0-4.583-8.207-8.038-19.09-8.038S0,3.514,0,8.1V52.3c0,4.583,8.207,8.038,19.09,8.038S38.18,56.888,38.18,52.3V47.281H43.2a1,1,0,0,1,1,1v6.028a3.014,3.014,0,0,0,3.014,3.014h5.166a4.019,4.019,0,1,0,0-2.009H47.223a1,1,0,0,1-1-1V48.286A3.014,3.014,0,0,0,43.2,45.272H38.18Zm18.085-3.014A2.009,2.009,0,1,1,54.256,30.2,2.01,2.01,0,0,1,56.265,28.191Zm0-25.118a2.009,2.009,0,1,1-2.009,2.009A2.01,2.01,0,0,1,56.265,3.073Zm0,51.242a2.009,2.009,0,1,1-2.009,2.009A2.01,2.01,0,0,1,56.265,54.314ZM19.09,2.068c10.066,0,17.081,3.177,17.081,6.028s-7.014,6.028-17.081,6.028S2.009,10.948,2.009,8.1,9.023,2.068,19.09,2.068ZM2.009,11.788c3.072,2.622,9.4,4.346,17.081,4.346S33.1,14.41,36.171,11.788V23.168c0,2.852-7.014,6.028-17.081,6.028S2.009,26.019,2.009,23.168ZM19.09,58.333c-10.066,0-17.081-3.177-17.081-6.028V40.926c3.072,2.622,9.4,4.346,17.081,4.346S33.1,43.548,36.171,40.926V52.3C36.171,55.157,29.156,58.333,19.09,58.333Zm0-15.071c-10.066,0-17.081-3.177-17.081-6.028V26.859c3.072,2.622,9.4,4.346,17.081,4.346S33.1,29.481,36.171,26.859V37.234C36.171,40.086,29.156,43.262,19.09,43.262Zm0,0"/>
    <path id="Path_4039" data-name="Path 4039" d="M440,32.059h2.009v2.009H440Zm0,0" transform="translate(-384.74 -27.981)"/>
    <path id="Path_4040" data-name="Path 4040" d="M440,232.059h2.009v2.009H440Zm0,0" transform="translate(-384.74 -202.863)"/>
    <path id="Path_4041" data-name="Path 4041" d="M440,440.059h2.009v2.01H440Zm0,0" transform="translate(-384.74 -384.74)"/>
  </g>
</svg>
