<svg fill="#1c80cf" xmlns="http://www.w3.org/2000/svg" width="44.416" height="44.293" viewBox="0 0 44.416 44.293">
  <g id="external-link" transform="translate(-3.25 -3.25)">
    <path id="Path_4051" data-name="Path 4051" d="M40.582,47.543H10.21a6.96,6.96,0,0,1-6.96-6.96V10.21a6.96,6.96,0,0,1,6.96-6.96H25.4a1.9,1.9,0,1,1,0,3.8H10.21A3.164,3.164,0,0,0,7.047,10.21V40.582a3.164,3.164,0,0,0,3.164,3.164H40.582a3.164,3.164,0,0,0,3.164-3.164V25.4a1.9,1.9,0,0,1,3.8,0V40.582a6.96,6.96,0,0,1-6.96,6.96Z"/>
    <path id="Path_4052" data-name="Path 4052" d="M27.272,17.171a1.924,1.924,0,0,1-1.9-1.9V7.047H17.148a1.9,1.9,0,1,1,0-3.8H27.272a1.924,1.924,0,0,1,1.9,1.9V15.272a1.924,1.924,0,0,1-1.9,1.9Z" transform="translate(18.372)"/>
    <path id="Path_4053" data-name="Path 4053" d="M14.558,23.481a1.873,1.873,0,0,1-1.266-.633,1.9,1.9,0,0,1,0-2.531L29.744,3.865a1.9,1.9,0,1,1,2.683,2.683l-16.6,16.3a1.873,1.873,0,0,1-1.266.633Z" transform="translate(14.635 0.017)"/>
  </g>
</svg>
