<svg fill="#1c80cf" id="outline" xmlns="http://www.w3.org/2000/svg" width="54.41" height="54.414" viewBox="0 0 54.41 54.414">
  <path id="Path_4021" data-name="Path 4021" d="M115.784,135.568A19.784,19.784,0,1,0,96,115.784,19.807,19.807,0,0,0,115.784,135.568Zm0-37.59a17.806,17.806,0,1,1-17.806,17.806A17.826,17.826,0,0,1,115.784,97.978Z" transform="translate(-88.603 -88.596)"/>
  <path id="Path_4022" data-name="Path 4022" d="M233.934,216.734v5.116a.989.989,0,1,0,1.978,0v-5.116a2.966,2.966,0,0,0,1.689-4.076h0l2.968-2.968a.989.989,0,0,0-1.4-1.4l-2.968,2.968h0a2.968,2.968,0,1,0-2.268,5.475Zm.989-3.787a.989.989,0,1,1-.989.989A.989.989,0,0,1,234.923,212.948Z" transform="translate(-207.742 -186.749)"/>
  <path id="Path_4023" data-name="Path 4023" d="M130.085,151.68c.01.02.019.04.03.059s.024.035.035.053a15.943,15.943,0,0,0,5.682,5.692c.025.017.05.034.075.049s.028.013.041.02a15.8,15.8,0,0,0,15.745,0c.014-.007.028-.012.041-.02s.051-.032.075-.049a15.945,15.945,0,0,0,5.683-5.692c.012-.018.025-.034.035-.053s.021-.04.03-.059a15.8,15.8,0,0,0,0-15.708c-.01-.02-.019-.04-.03-.059s-.032-.052-.05-.076a15.945,15.945,0,0,0-5.669-5.668c-.025-.017-.049-.034-.075-.049s-.039-.02-.059-.03a15.8,15.8,0,0,0-15.711,0c-.019.01-.039.019-.058.03s-.051.032-.075.049a15.944,15.944,0,0,0-5.669,5.668c-.017.025-.034.049-.049.076s-.021.04-.03.059a15.8,15.8,0,0,0,0,15.708Zm1.281-13.9,1.682.971a.989.989,0,1,0,.989-1.713l-1.679-.969a13.963,13.963,0,0,1,3.7-3.7l.969,1.679a.989.989,0,1,0,1.713-.989l-.971-1.682a13.744,13.744,0,0,1,5.06-1.357v1.943a.989.989,0,0,0,1.978,0v-1.943a13.746,13.746,0,0,1,5.06,1.357l-.971,1.682a.989.989,0,1,0,1.713.989l.969-1.679a13.962,13.962,0,0,1,3.7,3.7l-1.679.969a.989.989,0,1,0,.989,1.713l1.682-.971a13.746,13.746,0,0,1,1.357,5.06h-1.943a.989.989,0,0,0,0,1.978h1.943a13.743,13.743,0,0,1-1.357,5.06L154.6,148.9a.989.989,0,1,0-.989,1.713l1.679.969a13.96,13.96,0,0,1-3.7,3.7l-.969-1.679a.989.989,0,1,0-1.713.989l.971,1.682a13.744,13.744,0,0,1-5.06,1.357V155.7a.989.989,0,0,0-1.978,0v1.943a13.745,13.745,0,0,1-5.06-1.357l.971-1.682a.989.989,0,1,0-1.713-.989l-.969,1.679a13.959,13.959,0,0,1-3.7-3.7l1.679-.969a.989.989,0,1,0-.989-1.713l-1.682.971a13.746,13.746,0,0,1-1.357-5.06h1.943a.989.989,0,0,0,0-1.978H130.01a13.744,13.744,0,0,1,1.357-5.06Z" transform="translate(-116.642 -116.638)"/>
  <path id="Path_4024" data-name="Path 4024" d="M90.395,60.1A27.211,27.211,0,0,0,50.1,39.579a.989.989,0,1,0,.965,1.727A25.238,25.238,0,1,1,42.1,49.792l.2,1.7a.989.989,0,1,0,1.964-.235l-.508-4.247a.989.989,0,0,0-1.1-.865l-4.247.508a.989.989,0,1,0,.235,1.964l2.011-.241A27.209,27.209,0,0,0,63.329,90.538a27.635,27.635,0,0,0,3.279-.2A27.2,27.2,0,0,0,90.395,60.1Z" transform="translate(-36.18 -36.123)"/>
</svg>
